{
.appVersion = "3414";
.formatVersion = 3;
DisplayStrings = (
"․‥…,‚„:;/colon.case/semicolon.case “‘’”¡!‼⁉⁈‽⁇?¿
·/periodcentered.case ‧/hyphenationpoint.case ⋅∙⋯⋱⋮⫶⋰•/bullet.case ◦▪▫‣/triangularbullet.case ⁃/hyphenbullet.case *
-/hyphen.case ­/.notdef –/endash.case —/emdash.case ‒―/horizontalbar.case ‐‑_
(/parenleft.case/parenright.case ){/braceleft.case/braceright.case }[/bracketleft.case/bracketright.case ]〈/angleLeft.case/angleRight.case 〉///slash.case/backslash.case/backslash ‹«/guilsinglleft.case/guillemetleft.case/guillemetright.case/guilsinglright.case »›
™℠°^\"'′″†‡|¦¶✓∕√
−+±×÷=≠≈~∼¬⌀∞<≥≤>
Ω∆◊∏∑№∂µℓ∫ƒ#¤¢$₴€₣₽₿£₸¥§&@
↑↗/northEastArrow.cv01 →↘↓↙←↖↔↕
⓿❶❷❸❹❺❻❼❽❾
⓪①②③④⑤⑥⑦⑧⑨
©®℗℮●○◐◑◒◓◌
■□⊡◆◇⟐◄▲▼►
✦✧★✩❤☰≡/.notdef/.notdef/NULL/nbspace/enspace/figurespace/punctuationspace/zeroWidthNoBreakSpace/wordjoiner 
∩⊎∪⊍⊂⪽⪾⊃
̆/brevecomb-cy ˘̈¨̇˙̀`́´̋˝/caroncomb.alt ̂ˆ̌ˇ̊˚̃˜̄¯̒⃰ʼʻʹˈ̵
̣̦/commaaccentcomb.loclMAH ̧¸̨˛/hook-1/hook-2/ogonek-mirrored/paunch-1/paunch-2/vertical.1/vertical.2/vertical.3 

0123456789
/zero.osf/one.osf/two.osf/three.osf/four.osf/five.osf/six.osf/seven.osf/eight.osf/nine.osf 
/a.small/b.small/c.small/d.small/e.small/f.small/g.small/h.small/i.small/j.small/k.small/l.small/m.small/n.small/o.small 
/p.small/q.small/r.small/s.small/t.small/u.small/v.small/w.small/x.small/y.small/z.small/schwa.small/period.small/comma.small 
℀%/zero.small/one.small/two.small/three.small/four.small/five.small/six.small/seven.small/eight.small/nine.small/parenleft.small/parenright.small/equal.small/minus.small/plus.small 
ª/c.superior/schwa.superior/f.superior/g.superior/h.superior ⁱ/j.superior/k.superior ⁿº/p.superior/q.superior/u.superior/v.superior/w.superior/x.superior/y.superior/z.superior/period.superior/comma.superior 
⁰¹²³⁴⁵⁶⁷⁸⁹⁽⁾⁼⁻⁺/zero.numr/one.numr/two.numr/three.numr/four.numr/five.numr/six.numr/seven.numr/eight.numr/nine.numr 
ₐ/b.sub/c.sub/d.sub ₑₔ/f.sub/g.sub ₕ/i.sub/j.sub ₖₗₘₙₒₚ/q.sub/r.sub ₛₜ/u.sub/v.sub/w.sub ₓ/y.sub/z.sub/period.sub/comma.sub 

glyphs = (
{
glyphname = A;
kernLeft = A;
kernRight = A;
lastChange = "2025-08-13 12:38:39 +0000";
layers = (
{
anchors = (
{
name = bottom;
pos = (350,0);
},
{
name = ogonek;
pos = (646,0);
},
{
name = top;
pos = (350,720);
}
);
layerId = m01;
shapes = (
{
closed = 1;
nodes = (
(556,220,l),
(548,240,l),
(162,240,l),
(154,220,l)
);
},
{
angle = 180;
pos = (700,720);
ref = V;
}
);
width = 700;
},
{
anchors = (
{
name = bottom;
pos = (350,0);
},
{
name = ogonek;
pos = (668,0);
},
{
name = top;
pos = (350,720);
}
);
layerId = "CCD41F9B-A064-4484-B59C-AEE566599C6A";
shapes = (
{
closed = 1;
nodes = (
(539,160,l),
(499,280,l),
(182,280,l),
(142,160,l)
);
},
{
angle = 180;
pos = (700,720);
ref = V;
}
);
width = 700;
},
{
anchors = (
{
name = bottom;
pos = (350,0);
},
{
name = ogonek;
pos = (668,0);
},
{
name = top;
pos = (350,720);
}
);
layerId = m003;
shapes = (
{
closed = 1;
nodes = (
(539,160,l),
(499,280,l),
(182,280,l),
(142,160,l)
);
},
{
angle = 180;
pos = (700,720);
ref = V;
}
);
width = 700;
}
);
metricLeft = V;
metricRight = V;
unicode = 65;
userData = {
KernOnName = A;
};
},
{
glyphname = AE;
kernLeft = AE;
kernRight = E;
lastChange = "2025-05-22 16:47:10 +0000";
layers = (
{
anchors = (
{
name = top;
pos = (572,720);
}
);
layerId = m01;
shapes = (
{
closed = 1;
nodes = (
(72,0,l),
(488,700,l),
(510,700,l),
(510,720,l),
(474,720,l),
(48,0,l)
);
},
{
closed = 1;
nodes = (
(506,250,l),
(506,270,l),
(211,270,l),
(211,250,l)
);
},
{
alignment = -1;
pos = (392,0);
ref = E;
}
);
width = 960;
},
{
anchors = (
{
name = top;
pos = (480,720);
}
);
layerId = "CCD41F9B-A064-4484-B59C-AEE566599C6A";
shapes = (
{
closed = 1;
nodes = (
(172,0,l),
(444,602,l),
(480,602,l),
(480,720,l),
(346,720,l),
(20,0,l)
);
},
{
closed = 1;
nodes = (
(486,160,l),
(486,280,l),
(193,280,l),
(193,160,l)
);
},
{
alignment = -1;
pos = (392,0);
ref = E;
}
);
width = 960;
},
{
anchors = (
{
name = top;
pos = (480,720);
}
);
layerId = m003;
shapes = (
{
closed = 1;
nodes = (
(172,0,l),
(444,602,l),
(480,602,l),
(480,720,l),
(346,720,l),
(20,0,l)
);
},
{
closed = 1;
nodes = (
(486,160,l),
(486,280,l),
(193,280,l),
(193,160,l)
);
},
{
alignment = -1;
pos = (392,0);
ref = E;
}
);
width = 960;
}
);
metricLeft = V;
metricRight = E;
unicode = 198;
},
{
glyphname = B;
kernRight = B;
lastChange = "2025-08-13 12:24:40 +0000";
layers = (
{
anchors = (
{
name = bottom;
pos = (312,0);
},
{
name = top;
pos = (312,720);
}
);
layerId = m01;
shapes = (
{
closed = 1;
nodes = (
(390,0,ls),
(454,0,o),
(544,48,o),
(592,130,o),
(592,188,qs),
(592,234,o),
(562,302,o),
(507,353,o),
(468,366,q),
(500,374,o),
(555,422,o),
(582,490,o),
(582,538,qs),
(582,597,o),
(534,677,o),
(454,720,o),
(390,720,qs),
(104,720,l),
(104,0,l)
);
},
{
closed = 1;
nodes = (
(124,356,l),
(390,356,ls),
(446,356,o),
(526,316,o),
(572,236,o),
(572,188,qs),
(572,141,o),
(530,64,o),
(446,20,o),
(390,20,qs),
(124,20,l)
);
},
{
closed = 1;
nodes = (
(124,700,l),
(390,700,ls),
(446,700,o),
(520,661,o),
(562,591,o),
(562,538,qs),
(562,496,o),
(532,424,o),
(459,376,o),
(402,376,qs),
(124,376,l)
);
}
);
width = 666;
},
{
anchors = (
{
name = bottom;
pos = (297,0);
},
{
name = top;
pos = (297,720);
}
);
layerId = "CCD41F9B-A064-4484-B59C-AEE566599C6A";
shapes = (
{
closed = 1;
nodes = (
(373,0,ls),
(473,0,o),
(572,51,o),
(626,144,o),
(626,200,qs),
(626,240,o),
(601,309,o),
(536,362,o),
(490,372,q),
(533,385,o),
(585,433,o),
(607,492,o),
(607,528,qs),
(607,580,o),
(562,667,o),
(465,720,o),
(369,720,qs),
(58,720,l),
(58,0,l)
);
},
{
closed = 1;
nodes = (
(208,302,l),
(370,302,ls),
(400,302,o),
(444,285,o),
(476,241,o),
(476,209,qs),
(476,177,o),
(444,133,o),
(400,116,o),
(370,116,qs),
(208,116,l)
);
},
{
closed = 1;
nodes = (
(208,604,l),
(359,604,ls),
(389,604,o),
(429,586,o),
(457,542,o),
(457,514,qs),
(457,486,o),
(429,442,o),
(389,424,o),
(359,424,qs),
(208,424,l)
);
}
);
width = 666;
},
{
anchors = (
{
name = bottom;
pos = (297,0);
},
{
name = top;
pos = (297,720);
}
);
layerId = m003;
shapes = (
{
closed = 1;
nodes = (
(373,0,ls),
(473,0,o),
(572,51,o),
(626,144,o),
(626,200,qs),
(626,240,o),
(601,309,o),
(536,362,o),
(490,372,q),
(533,385,o),
(585,433,o),
(607,492,o),
(607,528,qs),
(607,580,o),
(562,667,o),
(465,720,o),
(369,720,qs),
(58,720,l),
(58,0,l)
);
},
{
closed = 1;
nodes = (
(208,302,l),
(370,302,ls),
(400,302,o),
(444,285,o),
(476,241,o),
(476,209,qs),
(476,177,o),
(444,133,o),
(400,116,o),
(370,116,qs),
(208,116,l)
);
},
{
closed = 1;
nodes = (
(208,604,l),
(359,604,ls),
(389,604,o),
(429,586,o),
(457,542,o),
(457,514,qs),
(457,486,o),
(429,442,o),
(389,424,o),
(359,424,qs),
(208,424,l)
);
}
);
width = 666;
}
);
metricLeft = N;
unicode = 66;
userData = {
KernOnName = B;
};
},
{
glyphname = C;
kernLeft = C;
kernRight = C;
lastChange = "2025-05-22 16:47:10 +0000";
layers = (
{
anchors = (
{
name = bottom;
pos = (366,0);
},
{
name = top;
pos = (366,720);
}
);
layerId = m01;
shapes = (
{
closed = 1;
nodes = (
(450,-12,o),
(550,44,o),
(610,132,o),
(610,170,q),
(590,170,l),
(590,138,o),
(536,60,o),
(444,8,o),
(370,8,qs),
(292,8,o),
(166,80,o),
(92,238,o),
(92,360,qs),
(92,482,o),
(166,640,o),
(292,712,o),
(370,712,qs),
(444,712,o),
(536,660,o),
(590,582,o),
(590,550,q),
(610,550,l),
(610,588,o),
(550,676,o),
(450,732,o),
(370,732,qs),
(286,732,o),
(150,654,o),
(72,488,o),
(72,360,qs),
(72,232,o),
(150,66,o),
(286,-12,o),
(370,-12,qs)
);
}
);
width = 680;
},
{
anchors = (
{
name = bottom;
pos = (366,0);
},
{
name = top;
pos = (366,720);
}
);
layerId = "CCD41F9B-A064-4484-B59C-AEE566599C6A";
shapes = (
{
closed = 1;
nodes = (
(456,-12,o),
(580,50,o),
(644,154,o),
(644,210,q),
(500,210,l),
(500,186,o),
(474,142,o),
(418,112,o),
(366,112,qs),
(310,112,o),
(234,168,o),
(194,278,o),
(194,360,qs),
(194,442,o),
(234,552,o),
(310,608,o),
(366,608,qs),
(418,608,o),
(474,578,o),
(500,534,o),
(500,510,q),
(644,510,l),
(644,566,o),
(580,670,o),
(456,732,o),
(366,732,qs),
(270,732,o),
(120,644,o),
(40,480,o),
(40,360,qs),
(40,240,o),
(120,76,o),
(270,-12,o),
(366,-12,qs)
);
}
);
width = 680;
},
{
anchors = (
{
name = bottom;
pos = (366,0);
},
{
name = top;
pos = (366,720);
}
);
layerId = m003;
shapes = (
{
closed = 1;
nodes = (
(456,-12,o),
(580,50,o),
(644,154,o),
(644,210,q),
(500,210,l),
(500,186,o),
(474,142,o),
(418,112,o),
(366,112,qs),
(310,112,o),
(234,168,o),
(194,278,o),
(194,360,qs),
(194,442,o),
(234,552,o),
(310,608,o),
(366,608,qs),
(418,608,o),
(474,578,o),
(500,534,o),
(500,510,q),
(644,510,l),
(644,566,o),
(580,670,o),
(456,732,o),
(366,732,qs),
(270,732,o),
(120,644,o),
(40,480,o),
(40,360,qs),
(40,240,o),
(120,76,o),
(270,-12,o),
(366,-12,qs)
);
}
);
width = 680;
}
);
metricLeft = O;
unicode = 67;
},
{
glyphname = D;
kernRight = D;
lastChange = "2025-05-22 16:47:10 +0000";
layers = (
{
anchors = (
{
name = bottom;
pos = (320,0);
},
{
name = top;
pos = (320,720);
}
);
layerId = m01;
shapes = (
{
closed = 1;
nodes = (
(248,0,ls),
(402,0,o),
(544,96,o),
(608,254,o),
(608,360,qs),
(608,466,o),
(544,624,o),
(402,720,o),
(248,720,qs),
(104,720,l),
(104,0,l)
);
},
{
closed = 1;
nodes = (
(124,700,l),
(248,700,ls),
(396,700,o),
(528,610,o),
(588,460,o),
(588,360,qs),
(588,260,o),
(528,110,o),
(396,20,o),
(248,20,qs),
(124,20,l)
);
}
);
width = 680;
},
{
anchors = (
{
name = bottom;
pos = (300,0);
},
{
name = top;
pos = (300,720);
}
);
layerId = "CCD41F9B-A064-4484-B59C-AEE566599C6A";
shapes = (
{
closed = 1;
nodes = (
(268,0,ls),
(380,0,o),
(550,88,o),
(640,240,o),
(640,360,qs),
(640,480,o),
(550,639,o),
(380,720,o),
(268,720,qs),
(58,720,l),
(58,0,l)
);
},
{
closed = 1;
nodes = (
(208,596,l),
(248,596,ls),
(352,596,o),
(444,540,o),
(486,442,o),
(486,360,qs),
(486,278,o),
(444,180,o),
(352,124,o),
(248,124,qs),
(208,124,l)
);
}
);
width = 680;
},
{
anchors = (
{
name = bottom;
pos = (300,0);
},
{
name = top;
pos = (300,720);
}
);
layerId = m003;
shapes = (
{
closed = 1;
nodes = (
(268,0,ls),
(380,0,o),
(550,88,o),
(640,240,o),
(640,360,qs),
(640,480,o),
(550,639,o),
(380,720,o),
(268,720,qs),
(58,720,l),
(58,0,l)
);
},
{
closed = 1;
nodes = (
(208,596,l),
(248,596,ls),
(352,596,o),
(444,540,o),
(486,442,o),
(486,360,qs),
(486,278,o),
(444,180,o),
(352,124,o),
(248,124,qs),
(208,124,l)
);
}
);
width = 680;
}
);
metricLeft = N;
metricRight = O;
unicode = 68;
},
{
glyphname = E;
kernRight = E;
lastChange = "2025-05-22 16:47:10 +0000";
layers = (
{
anchors = (
{
name = bottom;
pos = (304,0);
},
{
name = ogonek;
pos = (508,0);
},
{
name = top;
pos = (304,720);
}
);
layerId = m01;
shapes = (
{
closed = 1;
nodes = (
(514,0,l),
(514,20,l),
(124,20,l),
(124,360,l),
(494,360,l),
(494,380,l),
(124,380,l),
(124,700,l),
(514,700,l),
(514,720,l),
(104,720,l),
(104,0,l)
);
}
);
width = 568;
},
{
anchors = (
{
name = bottom;
pos = (290,0);
},
{
name = ogonek;
pos = (512,0);
},
{
name = top;
pos = (290,720);
}
);
layerId = "CCD41F9B-A064-4484-B59C-AEE566599C6A";
shapes = (
{
closed = 1;
nodes = (
(524,0,l),
(524,126,l),
(208,126,l),
(208,302,l),
(492,302,l),
(492,426,l),
(208,426,l),
(208,594,l),
(524,594,l),
(524,720,l),
(58,720,l),
(58,0,l)
);
}
);
width = 568;
},
{
anchors = (
{
name = bottom;
pos = (290,0);
},
{
name = ogonek;
pos = (512,0);
},
{
name = top;
pos = (290,720);
}
);
layerId = m003;
shapes = (
{
closed = 1;
nodes = (
(524,0,l),
(524,126,l),
(208,126,l),
(208,302,l),
(492,302,l),
(492,426,l),
(208,426,l),
(208,594,l),
(524,594,l),
(524,720,l),
(58,720,l),
(58,0,l)
);
}
);
width = 568;
}
);
metricLeft = N;
unicode = 69;
userData = {
KernOnName = E;
};
},
{
glyphname = Schwa;
kernLeft = C;
kernRight = D;
lastChange = "2025-08-13 16:06:28 +0000";
layers = (
{
anchors = (
{
name = bottom;
pos = (360,0);
},
{
name = top;
pos = (360,720);
}
);
layerId = m01;
shapes = (
{
closed = 1;
nodes = (
(470,-12,o),
(604,84,o),
(668,264,o),
(668,370,qs),
(668,476,o),
(593,643,o),
(450,732,o),
(358,732,qs),
(274,732,o),
(157,677,o),
(92,588,o),
(92,550,q),
(112,550,l),
(112,582,o),
(171,661,o),
(280,712,o),
(358,712,qs),
(444,712,o),
(577,629,o),
(648,470,o),
(648,370,qs),
(648,270,o),
(588,98,o),
(464,8,o),
(370,8,qs),
(276,8,o),
(154,87,o),
(92,232,o),
(92,340,q),
(658,340,l),
(658,360,l),
(72,360,l),
(72,340,ls),
(72,226,o),
(138,73,o),
(270,-12,o),
(370,-12,qs)
);
}
);
width = 740;
},
{
anchors = (
{
name = bottom;
pos = (371,0);
},
{
name = top;
pos = (371,720);
}
);
layerId = "CCD41F9B-A064-4484-B59C-AEE566599C6A";
shapes = (
{
closed = 1;
nodes = (
(471,-12,o),
(617,76,o),
(700,240,o),
(700,360,qs),
(700,480,o),
(612,644,o),
(458,732,o),
(356,732,qs),
(270,732,o),
(138,676,o),
(52,566,o),
(48,510,q),
(198,510,l),
(202,534,o),
(248,586,o),
(314,608,o),
(356,608,qs),
(416,608,o),
(501,556,o),
(554,452,o),
(554,360,qs),
(554,268,o),
(510,162,o),
(429,112,o),
(369,112,qs),
(309,112,o),
(233,160,o),
(194,246,o),
(194,292,q),
(596,292,l),
(596,412,l),
(40,412,l),
(40,360,ls),
(40,240,o),
(121,81,o),
(267,-12,o),
(369,-12,qs)
);
}
);
width = 740;
},
{
anchors = (
{
name = bottom;
pos = (371,0);
},
{
name = top;
pos = (371,720);
}
);
layerId = m003;
shapes = (
{
closed = 1;
nodes = (
(471,-12,o),
(617,76,o),
(700,240,o),
(700,360,qs),
(700,480,o),
(612,644,o),
(458,732,o),
(356,732,qs),
(270,732,o),
(138,676,o),
(52,566,o),
(48,510,q),
(198,510,l),
(202,534,o),
(248,586,o),
(314,608,o),
(356,608,qs),
(416,608,o),
(501,556,o),
(554,452,o),
(554,360,qs),
(554,268,o),
(510,162,o),
(429,112,o),
(369,112,qs),
(309,112,o),
(233,160,o),
(194,246,o),
(194,292,q),
(596,292,l),
(596,412,l),
(40,412,l),
(40,360,ls),
(40,240,o),
(121,81,o),
(267,-12,o),
(369,-12,qs)
);
}
);
width = 740;
}
);
metricLeft = O;
metricRight = O;
unicode = 399;
},
{
glyphname = Ezh;
kernRight = B;
lastChange = "2025-08-10 11:50:29 +0000";
layers = (
{
anchors = (
{
name = bottom;
pos = (278,0);
},
{
name = top;
pos = (284,720);
}
);
layerId = m01;
shapes = (
{
closed = 1;
nodes = (
(368,-8,o),
(469,39,o),
(530,136,o),
(530,206,qs),
(530,276,o),
(461,371,o),
(352,414,o),
(260,414,q),
(511,704,l),
(511,720,l),
(90,720,l),
(90,700,l),
(482,700,l),
(230,408,l),
(230,394,l),
(258,394,ls),
(348,394,o),
(447,355,o),
(510,270,o),
(510,206,qs),
(510,142,o),
(455,55,o),
(362,12,o),
(296,12,qs),
(234,12,o),
(136,46,o),
(80,122,o),
(80,170,q),
(60,170,l),
(60,114,o),
(124,30,o),
(228,-8,o),
(296,-8,qs)
);
}
);
width = 604;
},
{
anchors = (
{
name = bottom;
pos = (284,0);
},
{
name = top;
pos = (284,720);
}
);
layerId = "CCD41F9B-A064-4484-B59C-AEE566599C6A";
shapes = (
{
closed = 1;
nodes = (
(381,-12,o),
(500,45,o),
(564,149,o),
(564,218,qs),
(564,277,o),
(524,369,o),
(422,436,o),
(336,436,q),
(540,674,l),
(540,720,l),
(46,720,l),
(46,600,l),
(334,600,l),
(170,402,l),
(170,326,l),
(286,326,ls),
(340,326,o),
(390,296,o),
(414,250,o),
(414,218,qs),
(414,186,o),
(390,136,o),
(336,108,o),
(300,108,qs),
(262,108,o),
(206,132,o),
(176,178,o),
(176,210,q),
(30,210,l),
(30,146,o),
(100,44,o),
(221,-12,o),
(300,-12,qs)
);
}
);
width = 604;
},
{
anchors = (
{
name = bottom;
pos = (284,0);
},
{
name = top;
pos = (284,720);
}
);
layerId = m003;
shapes = (
{
closed = 1;
nodes = (
(381,-12,o),
(500,45,o),
(564,149,o),
(564,218,qs),
(564,277,o),
(524,369,o),
(422,436,o),
(336,436,q),
(540,674,l),
(540,720,l),
(46,720,l),
(46,600,l),
(334,600,l),
(170,402,l),
(170,326,l),
(286,326,ls),
(340,326,o),
(390,296,o),
(414,250,o),
(414,218,qs),
(414,186,o),
(390,136,o),
(336,108,o),
(300,108,qs),
(262,108,o),
(206,132,o),
(176,178,o),
(176,210,q),
(30,210,l),
(30,146,o),
(100,44,o),
(221,-12,o),
(300,-12,qs)
);
}
);
width = 604;
}
);
metricRight = B;
unicode = 439;
},
{
glyphname = F;
kernRight = F;
lastChange = "2025-05-22 16:47:10 +0000";
layers = (
{
anchors = (
{
name = top;
pos = (298,720);
}
);
layerId = m01;
shapes = (
{
closed = 1;
nodes = (
(124,0,l),
(124,700,l),
(502,700,l),
(502,720,l),
(104,720,l),
(104,0,l)
);
},
{
closed = 1;
nodes = (
(482,360,l),
(482,380,l),
(124,380,l),
(124,360,l)
);
}
);
width = 554;
},
{
anchors = (
{
name = top;
pos = (292,720);
}
);
layerId = "CCD41F9B-A064-4484-B59C-AEE566599C6A";
shapes = (
{
closed = 1;
nodes = (
(208,0,l),
(208,592,l),
(514,592,l),
(514,720,l),
(58,720,l),
(58,0,l)
);
},
{
closed = 1;
nodes = (
(494,290,l),
(494,418,l),
(208,418,l),
(208,290,l)
);
}
);
width = 554;
},
{
anchors = (
{
name = top;
pos = (292,720);
}
);
layerId = m003;
shapes = (
{
closed = 1;
nodes = (
(208,0,l),
(208,592,l),
(514,592,l),
(514,720,l),
(58,720,l),
(58,0,l)
);
},
{
closed = 1;
nodes = (
(494,290,l),
(494,418,l),
(208,418,l),
(208,290,l)
);
}
);
width = 554;
}
);
metricLeft = N;
unicode = 70;
userData = {
KernOnName = F;
};
},
{
glyphname = G;
kernLeft = C;
kernRight = G;
lastChange = "2025-08-11 11:06:03 +0000";
layers = (
{
anchors = (
{
name = bottom;
pos = (378,0);
},
{
name = top;
pos = (378,720);
}
);
layerId = m01;
shapes = (
{
closed = 1;
nodes = (
(488,-12,o),
(616,85,o),
(668,246,o),
(668,344,q),
(668,354,o),
(667,362,q),
(408,362,l),
(408,342,l),
(648,342,l),
(648,252,o),
(600,99,o),
(482,8,o),
(382,8,qs),
(284,8,o),
(156,102,o),
(92,260,o),
(92,360,qs),
(92,460,o),
(156,620,o),
(288,712,o),
(382,712,qs),
(450,712,o),
(556,669,o),
(622,582,o),
(622,550,q),
(642,550,l),
(642,588,o),
(570,685,o),
(456,732,o),
(382,732,qs),
(282,732,o),
(140,634,o),
(72,466,o),
(72,360,qs),
(72,254,o),
(140,86,o),
(278,-12,o),
(382,-12,qs)
);
}
);
width = 740;
},
{
anchors = (
{
name = bottom;
pos = (381,0);
},
{
name = top;
pos = (381,720);
}
);
layerId = "CCD41F9B-A064-4484-B59C-AEE566599C6A";
shapes = (
{
closed = 1;
nodes = (
(481,-12,o),
(629,74,o),
(700,230,o),
(700,350,q),
(700,380,o),
(696,400,q),
(370,400,l),
(370,280,l),
(560,280,l),
(560,240,o),
(524,162,o),
(449,112,o),
(389,112,qs),
(329,112,o),
(245,168,o),
(194,278,o),
(194,360,qs),
(194,442,o),
(245,552,o),
(331,608,o),
(391,608,qs),
(443,608,o),
(505,580,o),
(541,534,o),
(541,510,q),
(685,510,l),
(685,566,o),
(605,676,o),
(473,732,o),
(387,732,qs),
(285,732,o),
(131,644,o),
(40,480,o),
(40,360,qs),
(40,240,o),
(129,76,o),
(283,-12,o),
(385,-12,qs)
);
}
);
width = 740;
},
{
anchors = (
{
name = bottom;
pos = (381,0);
},
{
name = top;
pos = (381,720);
}
);
layerId = m003;
shapes = (
{
closed = 1;
nodes = (
(481,-12,o),
(629,74,o),
(700,230,o),
(700,350,q),
(700,380,o),
(696,400,q),
(370,400,l),
(370,280,l),
(560,280,l),
(560,240,o),
(524,162,o),
(449,112,o),
(389,112,qs),
(329,112,o),
(245,168,o),
(194,278,o),
(194,360,qs),
(194,442,o),
(245,552,o),
(331,608,o),
(391,608,qs),
(443,608,o),
(505,580,o),
(541,534,o),
(541,510,q),
(685,510,l),
(685,566,o),
(605,676,o),
(473,732,o),
(387,732,qs),
(285,732,o),
(131,644,o),
(40,480,o),
(40,360,qs),
(40,240,o),
(129,76,o),
(283,-12,o),
(385,-12,qs)
);
}
);
width = 740;
}
);
metricLeft = O;
metricRight = O;
unicode = 71;
},
{
glyphname = H;
kernRight = H;
lastChange = "2025-05-22 16:47:10 +0000";
layers = (
{
anchors = (
{
name = bottom;
pos = (340,0);
},
{
name = top;
pos = (340,720);
}
);
layerId = m01;
shapes = (
{
closed = 1;
nodes = (
(124,0,l),
(124,360,l),
(556,360,l),
(556,0,l),
(576,0,l),
(576,720,l),
(556,720,l),
(556,380,l),
(124,380,l),
(124,720,l),
(104,720,l),
(104,0,l)
);
}
);
width = 680;
},
{
anchors = (
{
name = bottom;
pos = (340,0);
},
{
name = top;
pos = (340,720);
}
);
layerId = "CCD41F9B-A064-4484-B59C-AEE566599C6A";
shapes = (
{
closed = 1;
nodes = (
(208,0,l),
(208,305,l),
(472,305,l),
(472,0,l),
(622,0,l),
(622,720,l),
(472,720,l),
(472,435,l),
(208,435,l),
(208,720,l),
(58,720,l),
(58,0,l)
);
}
);
width = 680;
},
{
anchors = (
{
name = bottom;
pos = (340,0);
},
{
name = top;
pos = (340,720);
}
);
layerId = m003;
shapes = (
{
closed = 1;
nodes = (
(208,0,l),
(208,305,l),
(472,305,l),
(472,0,l),
(622,0,l),
(622,720,l),
(472,720,l),
(472,435,l),
(208,435,l),
(208,720,l),
(58,720,l),
(58,0,l)
);
}
);
width = 680;
}
);
metricLeft = N;
metricRight = N;
unicode = 72;
userData = {
KernOnName = H;
};
},
{
glyphname = Hbar;
kernRight = H;
lastChange = "2025-05-22 16:47:10 +0000";
layers = (
{
layerId = m01;
shapes = (
{
closed = 1;
nodes = (
(712,550,l),
(712,570,l),
(32,570,l),
(32,550,l)
);
},
{
pos = (36,0);
ref = H;
}
);
width = 744;
},
{
layerId = "CCD41F9B-A064-4484-B59C-AEE566599C6A";
shapes = (
{
closed = 1;
nodes = (
(728,520,l),
(728,620,l),
(16,620,l),
(16,520,l)
);
},
{
pos = (34,0);
ref = H;
}
);
width = 744;
},
{
layerId = m003;
shapes = (
{
closed = 1;
nodes = (
(728,520,l),
(728,620,l),
(16,620,l),
(16,520,l)
);
},
{
pos = (34,0);
ref = H;
}
);
width = 744;
}
);
unicode = 294;
},
{
glyphname = I;
kernRight = H;
lastChange = "2025-05-22 16:47:10 +0000";
layers = (
{
anchors = (
{
name = bottom;
pos = (135,0);
},
{
name = ogonek;
pos = (139,0);
},
{
name = top;
pos = (135,720);
}
);
layerId = m01;
shapes = (
{
closed = 1;
nodes = (
(145,0,l),
(145,720,l),
(125,720,l),
(125,0,l)
);
}
);
width = 270;
},
{
anchors = (
{
name = bottom;
pos = (135,0);
},
{
name = ogonek;
pos = (198,0);
},
{
name = top;
pos = (135,720);
}
);
layerId = "CCD41F9B-A064-4484-B59C-AEE566599C6A";
shapes = (
{
closed = 1;
nodes = (
(210,0,l),
(210,720,l),
(60,720,l),
(60,0,l)
);
}
);
width = 270;
},
{
anchors = (
{
name = bottom;
pos = (135,0);
},
{
name = ogonek;
pos = (198,0);
},
{
name = top;
pos = (135,720);
}
);
layerId = m003;
shapes = (
{
closed = 1;
nodes = (
(210,0,l),
(210,720,l),
(60,720,l),
(60,0,l)
);
}
);
width = 270;
}
);
unicode = 73;
},
{
glyphname = J;
kernLeft = J;
kernRight = J;
lastChange = "2025-05-22 16:47:10 +0000";
layers = (
{
anchors = (
{
name = bottom;
pos = (250,0);
},
{
name = top;
pos = (436,720);
}
);
layerId = m01;
shapes = (
{
closed = 1;
nodes = (
(320,-4,o),
(403,49,o),
(448,144,o),
(448,232,qs),
(448,720,l),
(428,720,l),
(428,232,ls),
(428,150,o),
(389,65,o),
(314,16,o),
(252,16,qs),
(194,16,o),
(118,54,o),
(74,124,o),
(74,170,q),
(54,170,l),
(54,118,o),
(104,38,o),
(188,-4,o),
(252,-4,qs)
);
}
);
width = 546;
},
{
anchors = (
{
name = bottom;
pos = (263,0);
},
{
name = top;
pos = (417,720);
}
);
layerId = "CCD41F9B-A064-4484-B59C-AEE566599C6A";
shapes = (
{
closed = 1;
nodes = (
(326,-6,o),
(430,42,o),
(492,142,o),
(492,214,qs),
(492,720,l),
(342,720,l),
(342,228,ls),
(342,193,o),
(324,147,o),
(284,124,o),
(256,124,qs),
(228,124,o),
(192,144,o),
(172,178,o),
(172,210,q),
(26,210,l),
(26,142,o),
(88,42,o),
(198,-6,o),
(262,-6,qs)
);
}
);
width = 546;
},
{
anchors = (
{
name = bottom;
pos = (263,0);
},
{
name = top;
pos = (417,720);
}
);
layerId = m003;
shapes = (
{
closed = 1;
nodes = (
(326,-6,o),
(430,42,o),
(492,142,o),
(492,214,qs),
(492,720,l),
(342,720,l),
(342,228,ls),
(342,193,o),
(324,147,o),
(284,124,o),
(256,124,qs),
(228,124,o),
(192,144,o),
(172,178,o),
(172,210,q),
(26,210,l),
(26,142,o),
(88,42,o),
(198,-6,o),
(262,-6,qs)
);
}
);
width = 546;
}
);
metricRight = U;
unicode = 74;
},
{
glyphname = K;
kernRight = K;
lastChange = "2025-05-22 16:47:10 +0000";
layers = (
{
anchors = (
{
name = bottom;
pos = (302,0);
},
{
name = top;
pos = (302,720);
}
);
layerId = m01;
shapes = (
{
closed = 1;
nodes = (
(124,0,l),
(124,278,l),
(280,423,l),
(582,0,l),
(606,0,l),
(295,438,l),
(606,720,l),
(580,720,l),
(124,304,l),
(124,720,l),
(104,720,l),
(104,0,l)
);
}
);
width = 660;
},
{
anchors = (
{
name = bottom;
pos = (326,0);
},
{
name = top;
pos = (326,720);
}
);
layerId = "CCD41F9B-A064-4484-B59C-AEE566599C6A";
shapes = (
{
closed = 1;
nodes = (
(204,0,l),
(204,228,l),
(282,324,l),
(454,0,l),
(630,0,l),
(390,438,l),
(640,720,l),
(470,720,l),
(204,400,l),
(204,720,l),
(58,720,l),
(58,0,l)
);
}
);
width = 660;
},
{
anchors = (
{
name = bottom;
pos = (326,0);
},
{
name = top;
pos = (326,720);
}
);
layerId = m003;
shapes = (
{
closed = 1;
nodes = (
(204,0,l),
(204,228,l),
(282,324,l),
(454,0,l),
(630,0,l),
(390,438,l),
(640,720,l),
(470,720,l),
(204,400,l),
(204,720,l),
(58,720,l),
(58,0,l)
);
}
);
width = 660;
}
);
metricLeft = N;
unicode = 75;
userData = {
KernOnName = K;
};
},
{
glyphname = L;
kernRight = L;
lastChange = "2025-05-22 16:47:10 +0000";
layers = (
{
anchors = (
{
name = bottom;
pos = (280,0);
},
{
name = dot;
pos = (346,360);
},
{
name = top;
pos = (140,720);
},
{
name = topright;
pos = (390,720);
}
);
layerId = m01;
shapes = (
{
closed = 1;
nodes = (
(480,0,l),
(480,20,l),
(124,20,l),
(124,720,l),
(104,720,l),
(104,0,l)
);
}
);
width = 520;
},
{
anchors = (
{
name = bottom;
pos = (284,0);
},
{
name = dot;
pos = (390,360);
},
{
name = top;
pos = (127,720);
},
{
name = topright;
pos = (350,720);
}
);
layerId = "CCD41F9B-A064-4484-B59C-AEE566599C6A";
shapes = (
{
closed = 1;
nodes = (
(500,0,l),
(500,128,l),
(208,128,l),
(208,720,l),
(58,720,l),
(58,0,l)
);
}
);
width = 520;
},
{
anchors = (
{
name = bottom;
pos = (284,0);
},
{
name = dot;
pos = (390,360);
},
{
name = top;
pos = (127,720);
},
{
name = topright;
pos = (350,720);
}
);
layerId = m003;
shapes = (
{
closed = 1;
nodes = (
(500,0,l),
(500,128,l),
(208,128,l),
(208,720,l),
(58,720,l),
(58,0,l)
);
}
);
width = 520;
}
);
metricLeft = N;
unicode = 76;
userData = {
KernOnName = L;
};
},
{
color = 7;
glyphname = L.ss02;
kernRight = L;
lastChange = "2025-05-22 16:47:10 +0000";
layers = (
{
anchors = (
{
name = bottom;
pos = (280,0);
},
{
name = dot;
pos = (346,360);
},
{
name = top;
pos = (140,720);
},
{
name = topright;
pos = (390,720);
}
);
layerId = m01;
shapes = (
{
closed = 1;
nodes = (
(480,0,l),
(480,20,l),
(254,20,ls),
(190,20,o),
(124,86,o),
(124,150,qs),
(124,720,l),
(104,720,l),
(104,150,ls),
(104,78,o),
(182,0,o),
(254,0,qs)
);
}
);
width = 520;
},
{
anchors = (
{
name = bottom;
pos = (284,0);
},
{
name = dot;
pos = (390,360);
},
{
name = top;
pos = (127,720);
},
{
name = topright;
pos = (350,720);
}
);
layerId = "CCD41F9B-A064-4484-B59C-AEE566599C6A";
shapes = (
{
closed = 1;
nodes = (
(500,0,l),
(500,128,l),
(258,128,ls),
(232,128,o),
(208,152,o),
(208,178,qs),
(208,720,l),
(58,720,l),
(58,150,ls),
(58,80,o),
(138,0,o),
(208,0,qs)
);
}
);
width = 520;
},
{
anchors = (
{
name = bottom;
pos = (284,0);
},
{
name = dot;
pos = (390,360);
},
{
name = top;
pos = (127,720);
},
{
name = topright;
pos = (350,720);
}
);
layerId = m003;
shapes = (
{
closed = 1;
nodes = (
(500,0,l),
(500,128,l),
(258,128,ls),
(232,128,o),
(208,152,o),
(208,178,qs),
(208,720,l),
(58,720,l),
(58,150,ls),
(58,80,o),
(138,0,o),
(208,0,qs)
);
}
);
width = 520;
}
);
metricLeft = N;
userData = {
KernOnName = L;
};
},
{
glyphname = Lslash;
kernRight = L;
lastChange = "2025-05-22 16:47:10 +0000";
layers = (
{
layerId = m01;
shapes = (
{
closed = 1;
nodes = (
(391,427,l),
(391,448,l),
(28,306,l),
(28,285,l)
);
},
{
alignment = -1;
pos = (6,0);
ref = L;
}
);
width = 526;
},
{
layerId = "CCD41F9B-A064-4484-B59C-AEE566599C6A";
shapes = (
{
closed = 1;
nodes = (
(440,400,l),
(440,500,l),
(0,340,l),
(0,240,l)
);
},
{
alignment = -1;
pos = (6,0);
ref = L;
}
);
width = 526;
},
{
layerId = m003;
shapes = (
{
closed = 1;
nodes = (
(440,400,l),
(440,500,l),
(0,340,l),
(0,240,l)
);
},
{
alignment = -1;
pos = (6,0);
ref = L;
}
);
width = 526;
}
);
metricRight = L;
unicode = 321;
},
{
color = 7;
glyphname = Lslash.ss02;
kernRight = L;
lastChange = "2025-05-22 16:47:10 +0000";
layers = (
{
layerId = m01;
shapes = (
{
closed = 1;
nodes = (
(391,427,l),
(391,448,l),
(28,306,l),
(28,285,l)
);
},
{
alignment = -1;
pos = (6,0);
ref = L.ss02;
}
);
width = 526;
},
{
layerId = "CCD41F9B-A064-4484-B59C-AEE566599C6A";
shapes = (
{
closed = 1;
nodes = (
(440,400,l),
(440,500,l),
(0,340,l),
(0,240,l)
);
},
{
alignment = -1;
pos = (6,0);
ref = L.ss02;
}
);
width = 526;
},
{
layerId = m003;
shapes = (
{
closed = 1;
nodes = (
(440,400,l),
(440,500,l),
(0,340,l),
(0,240,l)
);
},
{
alignment = -1;
pos = (6,0);
ref = L.ss02;
}
);
width = 526;
}
);
metricRight = L;
},
{
glyphname = M;
kernRight = H;
lastChange = "2025-05-22 16:47:10 +0000";
layers = (
{
anchors = (
{
name = bottom;
pos = (420,0);
},
{
name = top;
pos = (420,720);
}
);
layerId = m01;
shapes = (
{
closed = 1;
nodes = (
(124,0,l),
(124,696,l),
(410,0,l),
(432,0,l),
(716,696,l),
(716,0,l),
(736,0,l),
(736,720,l),
(704,720,l),
(422,24,l),
(136,720,l),
(104,720,l),
(104,0,l)
);
}
);
width = 840;
},
{
anchors = (
{
name = bottom;
pos = (422,0);
},
{
name = top;
pos = (422,720);
}
);
layerId = "CCD41F9B-A064-4484-B59C-AEE566599C6A";
shapes = (
{
closed = 1;
nodes = (
(198,0,l),
(198,536,l),
(384,0,l),
(456,0,l),
(634,544,l),
(634,0,l),
(782,0,l),
(782,720,l),
(576,720,l),
(426,240,l),
(268,720,l),
(58,720,l),
(58,0,l)
);
}
);
width = 840;
},
{
anchors = (
{
name = bottom;
pos = (422,0);
},
{
name = top;
pos = (422,720);
}
);
layerId = m003;
shapes = (
{
closed = 1;
nodes = (
(198,0,l),
(198,536,l),
(384,0,l),
(456,0,l),
(634,544,l),
(634,0,l),
(782,0,l),
(782,720,l),
(576,720,l),
(426,240,l),
(268,720,l),
(58,720,l),
(58,0,l)
);
}
);
width = 840;
}
);
metricLeft = N;
metricRight = N;
unicode = 77;
},
{
glyphname = N;
kernRight = H;
lastChange = "2025-05-22 16:47:10 +0000";
layers = (
{
anchors = (
{
name = bottom;
pos = (346,0);
},
{
name = top;
pos = (346,720);
}
);
layerId = m01;
shapes = (
{
closed = 1;
nodes = (
(124,0,l),
(124,694,l),
(563,0,l),
(590,0,l),
(590,720,l),
(570,720,l),
(570,26,l),
(131,720,l),
(104,720,l),
(104,0,l)
);
}
);
width = 694;
},
{
anchors = (
{
name = bottom;
pos = (348,0);
},
{
name = top;
pos = (348,720);
}
);
layerId = "CCD41F9B-A064-4484-B59C-AEE566599C6A";
shapes = (
{
closed = 1;
nodes = (
(202,0,l),
(202,490,l),
(490,0,l),
(636,0,l),
(636,720,l),
(492,720,l),
(492,230,l),
(204,720,l),
(58,720,l),
(58,0,l)
);
}
);
width = 694;
},
{
anchors = (
{
name = bottom;
pos = (348,0);
},
{
name = top;
pos = (348,720);
}
);
layerId = m003;
shapes = (
{
closed = 1;
nodes = (
(202,0,l),
(202,490,l),
(490,0,l),
(636,0,l),
(636,720,l),
(492,720,l),
(492,230,l),
(204,720,l),
(58,720,l),
(58,0,l)
);
}
);
width = 694;
}
);
unicode = 78;
},
{
glyphname = Eng;
kernRight = H;
lastChange = "2025-08-13 18:01:10 +0000";
layers = (
{
layerId = m01;
shapes = (
{
closed = 1;
nodes = (
(124,0,l),
(124,694,l),
(570,0,l),
(590,0,l),
(590,720,l),
(570,720,l),
(570,38,l),
(131,720,l),
(104,720,l),
(104,0,l)
);
},
{
alignment = -1;
pos = (430,0);
ref = "hook-1";
}
);
width = 694;
},
{
layerId = "CCD41F9B-A064-4484-B59C-AEE566599C6A";
shapes = (
{
closed = 1;
nodes = (
(204,0,l),
(204,490,l),
(486,0,l),
(636,0,l),
(636,720,l),
(490,720,l),
(490,250,l),
(216,720,l),
(58,720,l),
(58,0,l)
);
},
{
alignment = -1;
pos = (363,0);
ref = "hook-1";
}
);
width = 694;
},
{
layerId = m003;
shapes = (
{
closed = 1;
nodes = (
(204,0,l),
(204,490,l),
(486,0,l),
(636,0,l),
(636,720,l),
(490,720,l),
(490,250,l),
(216,720,l),
(58,720,l),
(58,0,l)
);
},
{
alignment = -1;
pos = (363,0);
ref = "hook-1";
}
);
width = 694;
}
);
metricLeft = N;
metricRight = N;
unicode = 330;
},
{
glyphname = O;
kernLeft = C;
kernRight = D;
lastChange = "2025-05-22 16:47:10 +0000";
layers = (
{
anchors = (
{
name = bottom;
pos = (380,0);
},
{
name = ogonek;
pos = (477,10);
},
{
name = top;
pos = (380,720);
},
{
name = topleft;
pos = (10,720);
}
);
layerId = m01;
shapes = (
{
closed = 1;
nodes = (
(476,-12,o),
(620,88,o),
(688,256,o),
(688,360,qs),
(688,464,o),
(620,632,o),
(476,732,o),
(380,732,qs),
(284,732,o),
(140,632,o),
(72,464,o),
(72,360,qs),
(72,256,o),
(140,88,o),
(284,-12,o),
(380,-12,qs)
);
},
{
closed = 1;
nodes = (
(290,8,o),
(156,102,o),
(92,262,o),
(92,360,qs),
(92,458,o),
(156,618,o),
(290,712,o),
(380,712,qs),
(470,712,o),
(604,618,o),
(668,458,o),
(668,360,qs),
(668,262,o),
(604,102,o),
(470,8,o),
(380,8,qs)
);
}
);
width = 760;
},
{
anchors = (
{
name = bottom;
pos = (380,0);
},
{
name = ogonek;
pos = (464,10);
},
{
name = top;
pos = (380,720);
},
{
name = topleft;
pos = (30,720);
}
);
layerId = "CCD41F9B-A064-4484-B59C-AEE566599C6A";
shapes = (
{
closed = 1;
nodes = (
(480,-12,o),
(632,76,o),
(720,240,o),
(720,360,qs),
(720,480,o),
(632,644,o),
(480,732,o),
(380,732,qs),
(280,732,o),
(128,644,o),
(40,480,o),
(40,360,qs),
(40,240,o),
(128,76,o),
(280,-12,o),
(380,-12,qs)
);
},
{
closed = 1;
nodes = (
(320,116,o),
(240,172,o),
(194,278,o),
(194,360,qs),
(194,442,o),
(240,548,o),
(320,604,o),
(380,604,qs),
(440,604,o),
(520,548,o),
(566,442,o),
(566,360,qs),
(566,278,o),
(520,172,o),
(440,116,o),
(380,116,qs)
);
}
);
width = 760;
},
{
anchors = (
{
name = bottom;
pos = (380,0);
},
{
name = ogonek;
pos = (464,10);
},
{
name = top;
pos = (380,720);
},
{
name = topleft;
pos = (30,720);
}
);
layerId = m003;
shapes = (
{
closed = 1;
nodes = (
(480,-12,o),
(632,76,o),
(720,240,o),
(720,360,qs),
(720,480,o),
(632,644,o),
(480,732,o),
(380,732,qs),
(280,732,o),
(128,644,o),
(40,480,o),
(40,360,qs),
(40,240,o),
(128,76,o),
(280,-12,o),
(380,-12,qs)
);
},
{
closed = 1;
nodes = (
(320,116,o),
(240,172,o),
(194,278,o),
(194,360,qs),
(194,442,o),
(240,548,o),
(320,604,o),
(380,604,qs),
(440,604,o),
(520,548,o),
(566,442,o),
(566,360,qs),
(566,278,o),
(520,172,o),
(440,116,o),
(380,116,qs)
);
}
);
width = 760;
}
);
unicode = 79;
userData = {
KernOnName = O;
};
},
{
glyphname = Oslash;
kernLeft = C;
kernRight = D;
lastChange = "2025-05-22 16:47:10 +0000";
layers = (
{
anchors = (
{
name = top;
pos = (380,720);
}
);
layerId = m01;
shapes = (
{
closed = 1;
nodes = (
(99,0,l),
(687,720,l),
(661,720,l),
(73,0,l)
);
},
{
ref = O;
}
);
width = 760;
},
{
anchors = (
{
name = top;
pos = (380,720);
}
);
layerId = "CCD41F9B-A064-4484-B59C-AEE566599C6A";
shapes = (
{
closed = 1;
nodes = (
(205,0,l),
(718,720,l),
(580,720,l),
(67,0,l)
);
},
{
ref = O;
}
);
width = 760;
},
{
anchors = (
{
name = top;
pos = (380,720);
}
);
layerId = m003;
shapes = (
{
closed = 1;
nodes = (
(205,0,l),
(718,720,l),
(580,720,l),
(67,0,l)
);
},
{
ref = O;
}
);
width = 760;
}
);
metricLeft = O;
metricRight = O;
unicode = 216;
},
{
glyphname = OE;
kernLeft = C;
kernRight = E;
lastChange = "2025-05-22 16:47:10 +0000";
layers = (
{
anchors = (
{
name = bottom;
pos = (572,0);
},
{
name = top;
pos = (572,720);
},
{
name = topleft;
pos = (-36,720);
}
);
layerId = m01;
shapes = (
{
closed = 1;
nodes = (
(448,-12,o),
(575,88,o),
(636,257,o),
(636,360,qs),
(636,464,o),
(575,632,o),
(448,732,o),
(354,732,qs),
(260,732,o),
(133,632,o),
(72,463,o),
(72,360,qs),
(72,253,o),
(136,85,o),
(263,-12,o),
(354,-12,qs)
);
},
{
closed = 1;
nodes = (
(266,8,o),
(148,105,o),
(92,265,o),
(92,360,qs),
(92,457,o),
(150,617,o),
(268,712,o),
(354,712,qs),
(443,712,o),
(561,615,o),
(616,455,o),
(616,360,qs),
(616,263,o),
(558,103,o),
(440,8,o),
(354,8,qs)
);
},
{
alignment = -1;
pos = (512,0);
ref = E;
}
);
width = 1080;
},
{
anchors = (
{
name = bottom;
pos = (555,0);
},
{
name = top;
pos = (555,720);
},
{
name = topleft;
pos = (26,720);
}
);
layerId = "CCD41F9B-A064-4484-B59C-AEE566599C6A";
shapes = (
{
closed = 1;
nodes = (
(480,-12,o),
(632,76,o),
(720,240,o),
(720,360,qs),
(720,480,o),
(632,644,o),
(480,732,o),
(380,732,qs),
(280,732,o),
(128,644,o),
(40,480,o),
(40,360,qs),
(40,240,o),
(128,76,o),
(280,-12,o),
(380,-12,qs)
);
},
{
closed = 1;
nodes = (
(320,116,o),
(240,172,o),
(194,278,o),
(194,360,qs),
(194,442,o),
(240,548,o),
(320,604,o),
(380,604,qs),
(440,604,o),
(520,548,o),
(566,442,o),
(566,360,qs),
(566,278,o),
(520,172,o),
(440,116,o),
(380,116,qs)
);
},
{
alignment = -1;
pos = (512,0);
ref = E;
}
);
width = 1080;
},
{
anchors = (
{
name = bottom;
pos = (555,0);
},
{
name = top;
pos = (555,720);
},
{
name = topleft;
pos = (26,720);
}
);
layerId = m003;
shapes = (
{
closed = 1;
nodes = (
(480,-12,o),
(632,76,o),
(720,240,o),
(720,360,qs),
(720,480,o),
(632,644,o),
(480,732,o),
(380,732,qs),
(280,732,o),
(128,644,o),
(40,480,o),
(40,360,qs),
(40,240,o),
(128,76,o),
(280,-12,o),
(380,-12,qs)
);
},
{
closed = 1;
nodes = (
(320,116,o),
(240,172,o),
(194,278,o),
(194,360,qs),
(194,442,o),
(240,548,o),
(320,604,o),
(380,604,qs),
(440,604,o),
(520,548,o),
(566,442,o),
(566,360,qs),
(566,278,o),
(520,172,o),
(440,116,o),
(380,116,qs)
);
},
{
alignment = -1;
pos = (512,0);
ref = E;
}
);
width = 1080;
}
);
metricLeft = O;
metricRight = E;
unicode = 338;
},
{
glyphname = P;
kernRight = P;
lastChange = "2025-08-13 12:41:33 +0000";
layers = (
{
anchors = (
{
name = bottom;
pos = (318,0);
},
{
name = top;
pos = (318,720);
}
);
layerId = m01;
shapes = (
{
closed = 1;
nodes = (
(124,0,l),
(124,296,l),
(362,296,ls),
(438,296,o),
(544,346,o),
(606,442,o),
(606,508,qs),
(606,574,o),
(544,670,o),
(438,720,o),
(362,720,qs),
(104,720,l),
(104,0,l)
);
},
{
closed = 1;
nodes = (
(124,700,l),
(360,700,ls),
(430,700,o),
(528,656,o),
(586,568,o),
(586,508,qs),
(586,448,o),
(528,360,o),
(430,316,o),
(360,316,qs),
(124,316,l)
);
}
);
width = 660;
},
{
anchors = (
{
name = bottom;
pos = (320,0);
},
{
name = top;
pos = (320,720);
}
);
layerId = "CCD41F9B-A064-4484-B59C-AEE566599C6A";
shapes = (
{
closed = 1;
nodes = (
(208,0,l),
(208,264,l),
(366,264,ls),
(446,264,o),
(554,310,o),
(630,416,o),
(630,492,qs),
(630,568,o),
(554,675,o),
(446,720,o),
(366,720,qs),
(58,720,l),
(58,0,l)
);
},
{
closed = 1;
nodes = (
(208,596,l),
(350,596,ls),
(398,596,o),
(452,570,o),
(480,524,o),
(480,492,qs),
(480,460,o),
(452,414,o),
(398,388,o),
(350,388,qs),
(208,388,l)
);
}
);
width = 660;
},
{
anchors = (
{
name = bottom;
pos = (320,0);
},
{
name = top;
pos = (320,720);
}
);
layerId = m003;
shapes = (
{
closed = 1;
nodes = (
(208,0,l),
(208,264,l),
(366,264,ls),
(446,264,o),
(554,310,o),
(630,416,o),
(630,492,qs),
(630,568,o),
(554,675,o),
(446,720,o),
(366,720,qs),
(58,720,l),
(58,0,l)
);
},
{
closed = 1;
nodes = (
(208,596,l),
(350,596,ls),
(398,596,o),
(452,570,o),
(480,524,o),
(480,492,qs),
(480,460,o),
(452,414,o),
(398,388,o),
(350,388,qs),
(208,388,l)
);
}
);
width = 660;
}
);
metricLeft = N;
unicode = 80;
},
{
glyphname = Thorn;
kernRight = Thorn;
lastChange = "2025-05-22 16:47:10 +0000";
layers = (
{
layerId = m01;
shapes = (
{
closed = 1;
nodes = (
(302,158,ls),
(378,158,o),
(484,208,o),
(546,304,o),
(546,370,qs),
(546,436,o),
(484,532,o),
(378,582,o),
(302,582,qs),
(104,582,l),
(104,158,l)
);
},
{
closed = 1;
nodes = (
(124,0,l),
(124,720,l),
(104,720,l),
(104,0,l)
);
},
{
closed = 1;
nodes = (
(124,562,l),
(300,562,ls),
(370,562,o),
(468,518,o),
(526,430,o),
(526,370,qs),
(526,310,o),
(468,222,o),
(370,178,o),
(300,178,qs),
(124,178,l)
);
}
);
width = 600;
},
{
layerId = "CCD41F9B-A064-4484-B59C-AEE566599C6A";
shapes = (
{
closed = 1;
nodes = (
(312,140,ls),
(392,140,o),
(509,197,o),
(570,299,o),
(570,365,qs),
(570,431,o),
(509,533,o),
(392,590,o),
(312,590,qs),
(58,590,l),
(58,140,l)
);
},
{
closed = 1;
nodes = (
(208,0,l),
(208,720,l),
(58,720,l),
(58,0,l)
);
},
{
closed = 1;
nodes = (
(208,470,l),
(294,470,ls),
(336,470,o),
(385,445,o),
(416,397,o),
(416,365,qs),
(416,333,o),
(385,285,o),
(336,260,o),
(294,260,qs),
(208,260,l)
);
}
);
width = 600;
},
{
layerId = m003;
shapes = (
{
closed = 1;
nodes = (
(312,140,ls),
(392,140,o),
(509,197,o),
(570,299,o),
(570,365,qs),
(570,431,o),
(509,533,o),
(392,590,o),
(312,590,qs),
(58,590,l),
(58,140,l)
);
},
{
closed = 1;
nodes = (
(208,0,l),
(208,720,l),
(58,720,l),
(58,0,l)
);
},
{
closed = 1;
nodes = (
(208,470,l),
(294,470,ls),
(336,470,o),
(385,445,o),
(416,397,o),
(416,365,qs),
(416,333,o),
(385,285,o),
(336,260,o),
(294,260,qs),
(208,260,l)
);
}
);
width = 600;
}
);
metricLeft = N;
metricRight = "Softsign-cy";
unicode = 222;
},
{
glyphname = Q;
kernLeft = C;
kernRight = Q;
lastChange = "2025-05-22 16:47:10 +0000";
layers = (
{
anchors = (
{
name = bottom;
pos = (385,0);
},
{
name = ogonek;
pos = (483,10);
},
{
name = top;
pos = (385,720);
},
{
name = topleft;
pos = (7,720);
}
);
layerId = m01;
shapes = (
{
closed = 1;
nodes = (
(663,-120,l),
(543,48,l),
(525,37,l),
(637,-120,l)
);
},
{
ref = O;
}
);
width = 760;
},
{
anchors = (
{
name = bottom;
pos = (381,0);
},
{
name = ogonek;
pos = (464,10);
},
{
name = top;
pos = (381,720);
},
{
name = topleft;
pos = (31,720);
}
);
layerId = "CCD41F9B-A064-4484-B59C-AEE566599C6A";
shapes = (
{
closed = 1;
nodes = (
(713,-120,l),
(584,70,l),
(461,7,l),
(548,-120,l)
);
},
{
ref = O;
}
);
width = 760;
},
{
anchors = (
{
name = bottom;
pos = (381,0);
},
{
name = ogonek;
pos = (464,10);
},
{
name = top;
pos = (381,720);
},
{
name = topleft;
pos = (31,720);
}
);
layerId = m003;
shapes = (
{
closed = 1;
nodes = (
(713,-120,l),
(584,70,l),
(461,7,l),
(548,-120,l)
);
},
{
ref = O;
}
);
width = 760;
}
);
metricLeft = O;
metricRight = O;
unicode = 81;
},
{
glyphname = R;
kernRight = R;
lastChange = "2025-08-13 16:21:36 +0000";
layers = (
{
anchors = (
{
name = bottom;
pos = (306,0);
},
{
name = top;
pos = (306,720);
}
);
layerId = m01;
shapes = (
{
closed = 1;
nodes = (
(124,0,l),
(124,332,l),
(361,332,l),
(591,0,l),
(616,0,l),
(386,332,l),
(458,332,o),
(545,378,o),
(598,472,o),
(598,526,qs),
(598,588,o),
(545,674,o),
(458,720,o),
(386,720,qs),
(104,720,l),
(104,0,l)
);
},
{
closed = 1;
nodes = (
(124,700,l),
(386,700,ls),
(452,700,o),
(529,660,o),
(578,582,o),
(578,526,qs),
(578,478,o),
(529,392,o),
(452,352,o),
(386,352,qs),
(124,352,l)
);
}
);
width = 680;
},
{
anchors = (
{
name = bottom;
pos = (321,0);
},
{
name = top;
pos = (310,720);
}
);
layerId = "CCD41F9B-A064-4484-B59C-AEE566599C6A";
shapes = (
{
closed = 1;
nodes = (
(208,0,l),
(208,280,l),
(315,280,l),
(479,0,l),
(646,0,l),
(470,292,l),
(498,300,o),
(574,356,o),
(619,440,o),
(619,500,qs),
(619,564,o),
(561,664,o),
(445,720,o),
(369,720,qs),
(58,720,l),
(58,0,l)
);
},
{
closed = 1;
nodes = (
(208,596,l),
(353,596,ls),
(397,596,o),
(445,570,o),
(469,528,o),
(469,500,qs),
(469,472,o),
(445,431,o),
(397,404,o),
(353,404,qs),
(208,404,l)
);
}
);
width = 680;
},
{
anchors = (
{
name = bottom;
pos = (321,0);
},
{
name = top;
pos = (310,720);
}
);
layerId = m003;
shapes = (
{
closed = 1;
nodes = (
(208,0,l),
(208,280,l),
(315,280,l),
(479,0,l),
(646,0,l),
(470,292,l),
(498,300,o),
(574,356,o),
(619,440,o),
(619,500,qs),
(619,564,o),
(561,664,o),
(445,720,o),
(369,720,qs),
(58,720,l),
(58,0,l)
);
},
{
closed = 1;
nodes = (
(208,596,l),
(353,596,ls),
(397,596,o),
(445,570,o),
(469,528,o),
(469,500,qs),
(469,472,o),
(445,431,o),
(397,404,o),
(353,404,qs),
(208,404,l)
);
}
);
width = 680;
}
);
metricLeft = N;
unicode = 82;
userData = {
KernOnName = R;
};
},
{
glyphname = S;
kernLeft = S;
kernRight = S;
lastChange = "2025-05-22 16:47:10 +0000";
layers = (
{
anchors = (
{
name = bottom;
pos = (320,0);
},
{
name = top;
pos = (320,720);
}
);
layerId = m01;
shapes = (
{
closed = 1;
nodes = (
(398,-12,o),
(497,27,o),
(560,120,o),
(560,186,qs),
(560,238,o),
(529,311,o),
(447,366,o),
(362,375,qs),
(282,385,ls),
(204,395,o),
(136,442,o),
(108,500,o),
(108,546,qs),
(108,598,o),
(159,670,o),
(248,712,o),
(312,712,q),
(374,712,o),
(461,674,o),
(518,594,o),
(518,550,q),
(538,550,l),
(538,602,o),
(475,690,o),
(380,732,o),
(312,732,qs),
(242,732,o),
(145,686,o),
(88,604,o),
(88,546,qs),
(88,492,o),
(122,426,o),
(198,375,o),
(278,365,qs),
(358,355,ls),
(439,345,o),
(513,297,o),
(540,232,o),
(540,186,qs),
(540,126,o),
(483,43,o),
(392,8,o),
(326,8,qs),
(260,8,o),
(163,39,o),
(100,112,o),
(100,170,q),
(80,170,l),
(80,106,o),
(149,23,o),
(254,-12,o),
(326,-12,qs)
);
}
);
width = 640;
},
{
anchors = (
{
name = bottom;
pos = (315,0);
},
{
name = top;
pos = (315,720);
}
);
layerId = "CCD41F9B-A064-4484-B59C-AEE566599C6A";
shapes = (
{
closed = 1;
nodes = (
(397,-10,o),
(527,40,o),
(598,149,o),
(598,221,qs),
(598,289,o),
(536,379,o),
(442,419,o),
(394,427,qs),
(286,444,ls),
(248,450,o),
(215,466,o),
(194,500,o),
(194,522,qs),
(194,550,o),
(228,590,o),
(284,608,o),
(314,608,qs),
(344,608,o),
(394,592,o),
(430,549,o),
(430,510,q),
(576,510,l),
(574,586,o),
(494,686,o),
(378,730,o),
(314,730,qs),
(237,730,o),
(113,676,o),
(42,573,o),
(42,503,qs),
(42,445,o),
(94,355,o),
(188,309,o),
(244,300,qs),
(352,283,ls),
(390,277,o),
(428,257,o),
(446,225,o),
(446,201,qs),
(446,173,o),
(410,129,o),
(355,112,o),
(319,112,qs),
(283,112,o),
(221,134,o),
(188,180,o),
(188,210,q),
(42,210,l),
(44,130,o),
(128,30,o),
(243,-10,o),
(319,-10,qs)
);
}
);
width = 640;
},
{
anchors = (
{
name = bottom;
pos = (315,0);
},
{
name = top;
pos = (315,720);
}
);
layerId = m003;
shapes = (
{
closed = 1;
nodes = (
(397,-10,o),
(527,40,o),
(598,149,o),
(598,221,qs),
(598,289,o),
(536,379,o),
(442,419,o),
(394,427,qs),
(286,444,ls),
(248,450,o),
(215,466,o),
(194,500,o),
(194,522,qs),
(194,550,o),
(228,590,o),
(284,608,o),
(314,608,qs),
(344,608,o),
(394,592,o),
(430,549,o),
(430,510,q),
(576,510,l),
(574,586,o),
(494,686,o),
(378,730,o),
(314,730,qs),
(237,730,o),
(113,676,o),
(42,573,o),
(42,503,qs),
(42,445,o),
(94,355,o),
(188,309,o),
(244,300,qs),
(352,283,ls),
(390,277,o),
(428,257,o),
(446,225,o),
(446,201,qs),
(446,173,o),
(410,129,o),
(355,112,o),
(319,112,qs),
(283,112,o),
(221,134,o),
(188,180,o),
(188,210,q),
(42,210,l),
(44,130,o),
(128,30,o),
(243,-10,o),
(319,-10,qs)
);
}
);
width = 640;
}
);
unicode = 83;
userData = {
KernOnName = S;
};
},
{
glyphname = Germandbls;
kernRight = B;
lastChange = "2025-08-10 14:15:08 +0000";
layers = (
{
layerId = m01;
shapes = (
{
closed = 1;
nodes = (
(494,0,o),
(574,29,o),
(626,96,o),
(626,150,qs),
(626,208,o),
(563,281,o),
(497,307,qs),
(451,325,ls),
(411,341,o),
(378,392,o),
(378,422,qs),
(378,455,o),
(417,515,o),
(436,540,qs),
(568,710,l),
(568,720,l),
(104,720,l),
(104,0,l),
(124,0,l),
(124,700,l),
(537,700,l),
(421,553,ls),
(398,524,o),
(358,459,o),
(358,422,qs),
(358,386,o),
(397,326,o),
(444,308,qs),
(490,290,ls),
(553,265,o),
(606,200,o),
(606,150,qs),
(606,102,o),
(560,45,o),
(488,20,o),
(436,20,q),
(322,20,l),
(322,0,l),
(436,0,l)
);
}
);
width = 680;
},
{
layerId = "CCD41F9B-A064-4484-B59C-AEE566599C6A";
shapes = (
{
closed = 1;
nodes = (
(496,0,o),
(586,28,o),
(650,122,o),
(650,188,qs),
(650,238,o),
(608,313,o),
(565,340,qs),
(504,379,ls),
(486,390,o),
(460,412,o),
(460,434,qs),
(460,449,o),
(473,474,o),
(484,487,qs),
(606,632,l),
(606,720,l),
(58,720,l),
(58,0,l),
(208,0,l),
(208,596,l),
(426,596,l),
(359,515,ls),
(341,493,o),
(308,436,o),
(308,404,qs),
(308,352,o),
(358,298,o),
(400,274,qs),
(460,240,ls),
(482,228,o),
(500,198,o),
(500,182,qs),
(500,162,o),
(484,134,o),
(454,120,o),
(430,120,q),
(308,120,l),
(308,0,l),
(432,0,l)
);
}
);
width = 680;
},
{
layerId = m003;
shapes = (
{
closed = 1;
nodes = (
(496,0,o),
(586,28,o),
(650,122,o),
(650,188,qs),
(650,238,o),
(608,313,o),
(565,340,qs),
(504,379,ls),
(486,390,o),
(460,412,o),
(460,434,qs),
(460,449,o),
(473,474,o),
(484,487,qs),
(606,632,l),
(606,720,l),
(58,720,l),
(58,0,l),
(208,0,l),
(208,596,l),
(426,596,l),
(359,515,ls),
(341,493,o),
(308,436,o),
(308,404,qs),
(308,352,o),
(358,298,o),
(400,274,qs),
(460,240,ls),
(482,228,o),
(500,198,o),
(500,182,qs),
(500,162,o),
(484,134,o),
(454,120,o),
(430,120,q),
(308,120,l),
(308,0,l),
(432,0,l)
);
}
);
width = 680;
}
);
metricLeft = N;
metricRight = P;
unicode = 7838;
},
{
glyphname = T;
kernLeft = T;
kernRight = T;
lastChange = "2025-05-22 16:47:10 +0000";
layers = (
{
anchors = (
{
name = bottom;
pos = (270,0);
},
{
name = top;
pos = (270,720);
}
);
layerId = m01;
shapes = (
{
closed = 1;
nodes = (
(280,0,l),
(280,700,l),
(500,700,l),
(500,720,l),
(40,720,l),
(40,700,l),
(260,700,l),
(260,0,l)
);
}
);
width = 540;
},
{
anchors = (
{
name = bottom;
pos = (270,0);
},
{
name = top;
pos = (270,720);
}
);
layerId = "CCD41F9B-A064-4484-B59C-AEE566599C6A";
shapes = (
{
closed = 1;
nodes = (
(345,0,l),
(345,592,l),
(520,592,l),
(520,720,l),
(20,720,l),
(20,592,l),
(195,592,l),
(195,0,l)
);
}
);
width = 540;
},
{
anchors = (
{
name = bottom;
pos = (270,0);
},
{
name = top;
pos = (270,720);
}
);
layerId = m003;
shapes = (
{
closed = 1;
nodes = (
(345,0,l),
(345,592,l),
(520,592,l),
(520,720,l),
(20,720,l),
(20,592,l),
(195,592,l),
(195,0,l)
);
}
);
width = 540;
}
);
unicode = 84;
userData = {
KernOnName = T;
};
},
{
glyphname = U;
kernLeft = U;
kernRight = J;
lastChange = "2025-05-22 16:47:10 +0000";
layers = (
{
anchors = (
{
name = bottom;
pos = (340,0);
},
{
name = ogonek;
pos = (391,0);
},
{
name = top;
pos = (340,720);
}
);
layerId = m01;
shapes = (
{
closed = 1;
nodes = (
(424,-12,o),
(527,51,o),
(582,154,o),
(582,240,qs),
(582,720,l),
(562,720,l),
(562,240,ls),
(562,160,o),
(513,65,o),
(418,8,o),
(340,8,qs),
(262,8,o),
(167,65,o),
(118,160,o),
(118,240,qs),
(118,720,l),
(98,720,l),
(98,240,ls),
(98,154,o),
(153,51,o),
(256,-12,o),
(340,-12,qs)
);
}
);
width = 680;
},
{
anchors = (
{
name = bottom;
pos = (340,0);
},
{
name = ogonek;
pos = (420,0);
},
{
name = top;
pos = (340,720);
}
);
layerId = "CCD41F9B-A064-4484-B59C-AEE566599C6A";
shapes = (
{
closed = 1;
nodes = (
(400,-10,o),
(528,33,o),
(626,151,o),
(626,285,qs),
(626,720,l),
(476,720,l),
(476,299,ls),
(476,209,o),
(433,149,o),
(376,124,o),
(340,124,qs),
(304,124,o),
(247,149,o),
(204,209,o),
(204,299,qs),
(204,720,l),
(54,720,l),
(54,285,ls),
(54,151,o),
(152,33,o),
(280,-10,o),
(340,-10,q)
);
}
);
width = 680;
},
{
anchors = (
{
name = bottom;
pos = (340,0);
},
{
name = ogonek;
pos = (420,0);
},
{
name = top;
pos = (340,720);
}
);
layerId = m003;
shapes = (
{
closed = 1;
nodes = (
(400,-10,o),
(528,33,o),
(626,151,o),
(626,285,qs),
(626,720,l),
(476,720,l),
(476,299,ls),
(476,209,o),
(433,149,o),
(376,124,o),
(340,124,qs),
(304,124,o),
(247,149,o),
(204,209,o),
(204,299,qs),
(204,720,l),
(54,720,l),
(54,285,ls),
(54,151,o),
(152,33,o),
(280,-10,o),
(340,-10,q)
);
}
);
width = 680;
}
);
unicode = 85;
},
{
glyphname = V;
kernLeft = V;
kernRight = V;
lastChange = "2025-08-13 12:38:53 +0000";
layers = (
{
anchors = (
{
name = bottom;
pos = (350,0);
},
{
name = top;
pos = (350,720);
}
);
layerId = m01;
shapes = (
{
closed = 1;
nodes = (
(364,0,l),
(652,720,l),
(630,720,l),
(350,24,l),
(70,720,l),
(48,720,l),
(336,0,l)
);
}
);
width = 700;
},
{
anchors = (
{
name = bottom;
pos = (357,0);
},
{
name = top;
pos = (360,720);
}
);
layerId = "CCD41F9B-A064-4484-B59C-AEE566599C6A";
shapes = (
{
closed = 1;
nodes = (
(450,0,l),
(680,720,l),
(534,720,l),
(356,150,l),
(178,720,l),
(20,720,l),
(256,0,l)
);
}
);
width = 700;
},
{
anchors = (
{
name = bottom;
pos = (350,0);
},
{
name = top;
pos = (350,720);
}
);
layerId = m003;
shapes = (
{
closed = 1;
nodes = (
(450,0,l),
(680,720,l),
(534,720,l),
(356,150,l),
(178,720,l),
(20,720,l),
(256,0,l)
);
}
);
width = 700;
}
);
unicode = 86;
userData = {
KernOnName = V;
};
},
{
glyphname = W;
kernLeft = W;
kernRight = W;
lastChange = "2025-05-22 16:47:10 +0000";
layers = (
{
anchors = (
{
name = bottom;
pos = (470,0);
},
{
name = top;
pos = (470,720);
}
);
layerId = m01;
shapes = (
{
closed = 1;
nodes = (
(280,0,l),
(470,688,l),
(660,0,l),
(688,0,l),
(900,720,l),
(879,720,l),
(674,22,l),
(480,720,l),
(460,720,l),
(266,22,l),
(61,720,l),
(40,720,l),
(252,0,l)
);
}
);
width = 940;
},
{
anchors = (
{
name = bottom;
pos = (470,0);
},
{
name = top;
pos = (470,720);
}
);
layerId = "CCD41F9B-A064-4484-B59C-AEE566599C6A";
shapes = (
{
closed = 1;
nodes = (
(364,0,l),
(469,468,l),
(572,0,l),
(752,0,l),
(924,720,l),
(786,720,l),
(665,176,l),
(550,720,l),
(404,720,l),
(288,176,l),
(168,720,l),
(16,720,l),
(188,0,l)
);
}
);
width = 940;
},
{
anchors = (
{
name = bottom;
pos = (470,0);
},
{
name = top;
pos = (470,720);
}
);
layerId = m003;
shapes = (
{
closed = 1;
nodes = (
(364,0,l),
(469,468,l),
(572,0,l),
(752,0,l),
(924,720,l),
(786,720,l),
(665,176,l),
(550,720,l),
(404,720,l),
(288,176,l),
(168,720,l),
(16,720,l),
(188,0,l)
);
}
);
width = 940;
}
);
unicode = 87;
},
{
glyphname = X;
kernLeft = X;
kernRight = X;
lastChange = "2025-05-22 16:47:10 +0000";
layers = (
{
anchors = (
{
name = bottom;
pos = (330,0);
},
{
name = top;
pos = (330,720);
}
);
layerId = m01;
shapes = (
{
closed = 1;
nodes = (
(76,0,l),
(330,354,l),
(584,0,l),
(610,0,l),
(344,368,l),
(596,720,l),
(570,720,l),
(330,382,l),
(90,720,l),
(64,720,l),
(316,368,l),
(50,0,l)
);
}
);
width = 660;
},
{
anchors = (
{
name = bottom;
pos = (326,0);
},
{
name = top;
pos = (326,720);
}
);
layerId = "CCD41F9B-A064-4484-B59C-AEE566599C6A";
shapes = (
{
closed = 1;
nodes = (
(176,0,l),
(324,276,l),
(472,0,l),
(644,0,l),
(436,372,l),
(635,720,l),
(475,720,l),
(328,452,l),
(192,720,l),
(20,720,l),
(220,358,l),
(16,0,l)
);
}
);
width = 660;
},
{
anchors = (
{
name = bottom;
pos = (326,0);
},
{
name = top;
pos = (326,720);
}
);
layerId = m003;
shapes = (
{
closed = 1;
nodes = (
(176,0,l),
(324,276,l),
(472,0,l),
(644,0,l),
(436,372,l),
(635,720,l),
(475,720,l),
(328,452,l),
(192,720,l),
(20,720,l),
(220,358,l),
(16,0,l)
);
}
);
width = 660;
}
);
unicode = 88;
userData = {
KernOnName = X;
};
},
{
glyphname = Y;
kernLeft = Y;
kernRight = Y;
lastChange = "2025-05-22 16:47:10 +0000";
layers = (
{
anchors = (
{
name = bottom;
pos = (330,0);
},
{
name = top;
pos = (330,720);
}
);
layerId = m01;
shapes = (
{
closed = 1;
nodes = (
(340,0,l),
(340,278,l),
(612,720,l),
(589,720,l),
(331,300,l),
(71,720,l),
(48,720,l),
(320,278,l),
(320,0,l)
);
}
);
width = 660;
},
{
anchors = (
{
name = bottom;
pos = (330,0);
},
{
name = top;
pos = (330,720);
}
);
layerId = "CCD41F9B-A064-4484-B59C-AEE566599C6A";
shapes = (
{
closed = 1;
nodes = (
(406,0,l),
(406,287,l),
(644,720,l),
(494,720,l),
(338,420,l),
(184,720,l),
(16,720,l),
(256,287,l),
(256,0,l)
);
}
);
width = 660;
},
{
anchors = (
{
name = bottom;
pos = (330,0);
},
{
name = top;
pos = (330,720);
}
);
layerId = m003;
shapes = (
{
closed = 1;
nodes = (
(406,0,l),
(406,287,l),
(644,720,l),
(494,720,l),
(338,420,l),
(184,720,l),
(16,720,l),
(256,287,l),
(256,0,l)
);
}
);
width = 660;
}
);
unicode = 89;
},
{
glyphname = Z;
kernLeft = Z;
kernRight = Z;
lastChange = "2025-08-10 09:21:04 +0000";
layers = (
{
anchors = (
{
name = bottom;
pos = (309,0);
},
{
name = top;
pos = (309,720);
}
);
layerId = m01;
shapes = (
{
closed = 1;
nodes = (
(570,0,l),
(570,20,l),
(92,20,l),
(560,712,l),
(560,720,l),
(70,720,l),
(70,700,l),
(528,700,l),
(60,8,l),
(60,0,l)
);
}
);
width = 630;
},
{
anchors = (
{
name = bottom;
pos = (315,0);
},
{
name = top;
pos = (315,720);
}
);
layerId = "CCD41F9B-A064-4484-B59C-AEE566599C6A";
shapes = (
{
closed = 1;
nodes = (
(590,0,l),
(590,128,l),
(240,128,l),
(590,652,l),
(590,720,l),
(40,720,l),
(40,592,l),
(390,592,l),
(40,68,l),
(40,0,l)
);
}
);
width = 630;
},
{
anchors = (
{
name = bottom;
pos = (315,0);
},
{
name = top;
pos = (315,720);
}
);
layerId = m003;
shapes = (
{
closed = 1;
nodes = (
(590,0,l),
(590,128,l),
(240,128,l),
(590,652,l),
(590,720,l),
(40,720,l),
(40,592,l),
(390,592,l),
(40,68,l),
(40,0,l)
);
}
);
width = 630;
}
);
unicode = 90;
},
{
glyphname = Saltillo;
kernRight = H;
lastChange = "2025-08-10 09:15:38 +0000";
layers = (
{
layerId = m01;
shapes = (
{
closed = 1;
nodes = (
(140,240,l),
(140,580,l),
(140,720,l),
(120,720,l),
(120,580,l),
(120,240,l)
);
}
);
width = 260;
},
{
layerId = "CCD41F9B-A064-4484-B59C-AEE566599C6A";
shapes = (
{
closed = 1;
nodes = (
(205,240,l),
(205,580,l),
(205,720,l),
(55,720,l),
(55,580,l),
(55,240,l)
);
}
);
width = 260;
},
{
layerId = m003;
shapes = (
{
closed = 1;
nodes = (
(205,240,l),
(205,580,l),
(205,720,l),
(55,720,l),
(55,580,l),
(55,240,l)
);
}
);
width = 260;
}
);
unicode = 42891;
},
{
color = 3;
glyphname = I_J;
lastChange = "2025-05-22 16:47:10 +0000";
layers = (
{
layerId = m01;
shapes = (
{
closed = 1;
nodes = (
(118,240,l),
(118,720,l),
(98,720,l),
(98,240,l)
);
},
{
pos = (44,0);
ref = J;
}
);
width = 590;
},
{
layerId = "CCD41F9B-A064-4484-B59C-AEE566599C6A";
shapes = (
{
closed = 1;
nodes = (
(216,280,l),
(216,720,l),
(66,720,l),
(66,280,l)
);
},
{
pos = (44,0);
ref = J;
}
);
width = 590;
},
{
layerId = m003;
shapes = (
{
closed = 1;
nodes = (
(216,280,l),
(216,720,l),
(66,720,l),
(66,280,l)
);
},
{
pos = (44,0);
ref = J;
}
);
width = 590;
}
);
},
{
glyphname = a;
kernLeft = a;
kernRight = a;
lastChange = "2025-08-13 13:30:50 +0000";
layers = (
{
anchors = (
{
name = bottom;
pos = (254,0);
},
{
name = ogonek;
pos = (432,0);
},
{
name = top;
pos = (254,500);
}
);
annotations = (
{
pos = (410,8);
type = Arrow;
}
);
layerId = m01;
shapes = (
{
closed = 1;
nodes = (
(252,-6,o),
(320,20,o),
(382,76,o),
(402,124,q),
(402,50,o),
(423,0,q),
(444,0,l),
(422,54,o),
(422,140,qs),
(422,342,ls),
(422,404,o),
(386,474,o),
(304,512,o),
(254,512,qs),
(208,512,o),
(130,480,o),
(86,418,o),
(86,370,q),
(106,370,l),
(106,412,o),
(145,466,o),
(212,492,o),
(254,492,qs),
(300,492,o),
(371,460,o),
(402,397,o),
(402,338,qs),
(402,220,ls),
(402,162,o),
(352,68,o),
(264,14,o),
(208,14,qs),
(164,14,o),
(107,43,o),
(78,96,o),
(78,130,qs),
(78,180,o),
(128,240,o),
(208,260,o),
(288,260,qs),
(412,260,l),
(412,280,l),
(288,280,ls),
(204,280,o),
(115,256,o),
(58,186,o),
(58,130,qs),
(58,90,o),
(92,28,o),
(159,-6,o),
(208,-6,qs)
);
}
);
width = 520;
},
{
anchors = (
{
name = bottom;
pos = (249,0);
},
{
name = ogonek;
pos = (464,0);
},
{
name = top;
pos = (249,500);
}
);
layerId = "CCD41F9B-A064-4484-B59C-AEE566599C6A";
shapes = (
{
closed = 1;
nodes = (
(220,-8,o),
(269,6,o),
(316,40,o),
(332,60,q),
(332,24,o),
(344,0,q),
(480,0,l),
(466,40,o),
(466,86,qs),
(466,300,ls),
(466,372,o),
(418,462,o),
(322,512,o),
(254,512,qs),
(190,512,o),
(96,463,o),
(48,384,o),
(48,340,q),
(182,340,l),
(182,360,o),
(199,389,o),
(232,402,o),
(254,402,qs),
(274,402,o),
(308,388,o),
(332,352,o),
(332,320,qs),
(332,196,ls),
(332,164,o),
(298,118,o),
(253,100,o),
(225,100,qs),
(201,100,o),
(171,114,o),
(160,134,o),
(160,148,qs),
(160,168,o),
(190,197,o),
(242,204,o),
(296,204,qs),
(358,204,l),
(358,304,l),
(282,304,ls),
(190,304,o),
(88,274,o),
(26,198,o),
(26,138,qs),
(26,90,o),
(72,22,o),
(144,-8,o),
(184,-8,qs)
);
}
);
width = 520;
},
{
anchors = (
{
name = bottom;
pos = (251,0);
},
{
name = ogonek;
pos = (444,0);
},
{
name = top;
pos = (251,500);
}
);
annotations = (
{
pos = (410,8);
type = Arrow;
}
);
associatedMasterId = m01;
attr = {
coordinates = (
400
);
};
layerId = "D052525E-BDC2-4275-945A-3DF775006CB2";
name = "10 февр. 25 г., 19:40";
shapes = (
{
closed = 1;
nodes = (
(231,-7,o),
(291,9,o),
(342,50,o),
(360,86,q),
(360,32,o),
(379,0,q),
(465,0,l),
(447,49,o),
(447,129,qs),
(447,329,ls),
(447,397,o),
(401,472,o),
(314,512,o),
(259,512,qs),
(200,512,o),
(111,471,o),
(64,400,o),
(64,353,q),
(149,353,l),
(148,381,o),
(174,423,o),
(223,443,o),
(254,443,qs),
(286,443,o),
(336,421,o),
(360,375,o),
(360,331,qs),
(360,209,ls),
(360,173,o),
(320,100,o),
(260,63,o),
(220,63,qs),
(187,63,o),
(146,85,o),
(127,120,o),
(127,143,qs),
(127,175,o),
(161,214,o),
(224,230,o),
(293,230,qs),
(381,230,l),
(381,295,l),
(285,295,ls),
(198,295,o),
(98,266,o),
(40,192,o),
(40,135,qs),
(40,90,o),
(81,25,o),
(148,-7,o),
(192,-7,qs)
);
}
);
width = 520;
},
{
anchors = (
{
name = bottom;
pos = (249,0);
},
{
name = ogonek;
pos = (464,0);
},
{
name = top;
pos = (249,500);
}
);
layerId = m003;
shapes = (
{
closed = 1;
nodes = (
(220,-8,o),
(269,6,o),
(316,40,o),
(332,60,q),
(332,24,o),
(344,0,q),
(480,0,l),
(466,40,o),
(466,86,qs),
(466,300,ls),
(466,372,o),
(418,462,o),
(322,512,o),
(254,512,qs),
(190,512,o),
(96,463,o),
(48,384,o),
(48,340,q),
(182,340,l),
(182,360,o),
(199,389,o),
(232,402,o),
(254,402,qs),
(274,402,o),
(308,388,o),
(332,352,o),
(332,320,qs),
(332,196,ls),
(332,164,o),
(298,118,o),
(253,100,o),
(225,100,qs),
(201,100,o),
(171,114,o),
(160,134,o),
(160,148,qs),
(160,168,o),
(190,197,o),
(242,204,o),
(296,204,qs),
(358,204,l),
(358,304,l),
(282,304,ls),
(190,304,o),
(88,274,o),
(26,198,o),
(26,138,qs),
(26,90,o),
(72,22,o),
(144,-8,o),
(184,-8,qs)
);
}
);
width = 520;
}
);
unicode = 97;
userData = {
KernOnName = a;
};
},
{
color = 6;
glyphname = a.cv01;
kernLeft = c;
lastChange = "2025-05-22 16:47:10 +0000";
layers = (
{
anchors = (
{
name = bottom;
pos = (280,0);
},
{
name = ogonek;
pos = (478,0);
},
{
name = top;
pos = (280,500);
}
);
layerId = m01;
shapes = (
{
closed = 1;
nodes = (
(324,-12,o),
(401,22,o),
(456,92,o),
(464,120,q),
(464,0,l),
(484,0,l),
(484,500,l),
(464,500,l),
(464,380,l),
(456,408,o),
(401,478,o),
(324,512,o),
(276,512,qs),
(210,512,o),
(121,450,o),
(68,336,o),
(68,250,qs),
(68,164,o),
(121,50,o),
(210,-12,o),
(276,-12,qs)
);
},
{
closed = 1;
nodes = (
(216,8,o),
(137,64,o),
(88,170,o),
(88,250,qs),
(88,330,o),
(137,436,o),
(216,492,o),
(276,492,qs),
(336,492,o),
(417,436,o),
(464,330,o),
(464,250,qs),
(464,170,o),
(417,64,o),
(336,8,o),
(276,8,qs)
);
}
);
width = 584;
},
{
anchors = (
{
name = bottom;
pos = (280,0);
},
{
name = ogonek;
pos = (516,0);
},
{
name = top;
pos = (280,500);
}
);
layerId = "CCD41F9B-A064-4484-B59C-AEE566599C6A";
shapes = (
{
closed = 1;
nodes = (
(270,-12,o),
(324,6,o),
(374,46,o),
(386,76,q),
(386,0,l),
(528,0,l),
(528,500,l),
(386,500,l),
(386,424,l),
(374,454,o),
(324,494,o),
(270,512,o),
(240,512,qs),
(176,512,o),
(76,444,o),
(24,330,o),
(24,250,qs),
(24,170,o),
(76,56,o),
(176,-12,o),
(240,-12,qs)
);
},
{
closed = 1;
nodes = (
(244,108,o),
(196,144,o),
(170,206,o),
(170,250,qs),
(170,294,o),
(196,356,o),
(244,392,o),
(280,392,qs),
(316,392,o),
(364,356,o),
(390,294,o),
(390,250,qs),
(390,206,o),
(364,144,o),
(316,108,o),
(280,108,qs)
);
}
);
width = 584;
},
{
anchors = (
{
name = bottom;
pos = (280,0);
},
{
name = ogonek;
pos = (516,0);
},
{
name = top;
pos = (280,500);
}
);
layerId = m003;
shapes = (
{
closed = 1;
nodes = (
(270,-12,o),
(324,6,o),
(374,46,o),
(386,76,q),
(386,0,l),
(528,0,l),
(528,500,l),
(386,500,l),
(386,424,l),
(374,454,o),
(324,494,o),
(270,512,o),
(240,512,qs),
(176,512,o),
(76,444,o),
(24,330,o),
(24,250,qs),
(24,170,o),
(76,56,o),
(176,-12,o),
(240,-12,qs)
);
},
{
closed = 1;
nodes = (
(244,108,o),
(196,144,o),
(170,206,o),
(170,250,qs),
(170,294,o),
(196,356,o),
(244,392,o),
(280,392,qs),
(316,392,o),
(364,356,o),
(390,294,o),
(390,250,qs),
(390,206,o),
(364,144,o),
(316,108,o),
(280,108,qs)
);
}
);
width = 584;
}
);
metricLeft = o;
metricRight = u;
},
{
color = 9;
glyphname = a.ss01;
kernLeft = a;
kernRight = a;
lastChange = "2025-08-10 13:57:36 +0000";
layers = (
{
anchors = (
{
name = bottom;
pos = (254,0);
},
{
name = ogonek;
pos = (504,0);
},
{
name = top;
pos = (254,500);
}
);
annotations = (
{
pos = (410,8);
type = Arrow;
}
);
layerId = m01;
shapes = (
{
closed = 1;
nodes = (
(252,-6,o),
(320,20,o),
(382,76,o),
(402,124,q),
(402,80,ls),
(402,40,o),
(444,0,o),
(482,0,qs),
(522,0,l),
(522,20,l),
(482,20,ls),
(452,20,o),
(422,50,o),
(422,80,qs),
(422,342,ls),
(422,404,o),
(386,474,o),
(304,512,o),
(254,512,qs),
(208,512,o),
(130,480,o),
(86,418,o),
(86,370,q),
(106,370,l),
(106,412,o),
(145,466,o),
(212,492,o),
(254,492,qs),
(300,492,o),
(371,460,o),
(402,397,o),
(402,338,qs),
(402,220,ls),
(402,162,o),
(352,68,o),
(264,14,o),
(208,14,qs),
(164,14,o),
(107,43,o),
(78,96,o),
(78,130,qs),
(78,180,o),
(128,240,o),
(208,260,o),
(288,260,qs),
(412,260,l),
(412,280,l),
(288,280,ls),
(204,280,o),
(115,256,o),
(58,186,o),
(58,130,qs),
(58,90,o),
(92,28,o),
(159,-6,o),
(208,-6,qs)
);
}
);
width = 540;
},
{
anchors = (
{
name = bottom;
pos = (260,0);
},
{
name = ogonek;
pos = (504,0);
},
{
name = top;
pos = (260,500);
}
);
layerId = "CCD41F9B-A064-4484-B59C-AEE566599C6A";
shapes = (
{
closed = 1;
nodes = (
(216,-8,o),
(268,8,o),
(314,48,o),
(330,84,q),
(330,64,ls),
(330,38,o),
(360,0,o),
(404,0,qs),
(514,0,l),
(514,114,l),
(486,114,ls),
(475,114,o),
(466,123,o),
(466,134,qs),
(466,320,ls),
(466,392,o),
(412,470,o),
(322,512,o),
(262,512,qs),
(194,512,o),
(96,464,o),
(48,386,o),
(48,340,q),
(182,340,l),
(180,360,o),
(196,390,o),
(232,406,o),
(254,406,qs),
(276,406,o),
(310,392,o),
(328,358,o),
(328,326,qs),
(328,190,ls),
(328,158,o),
(298,118,o),
(257,100,o),
(229,100,qs),
(205,100,o),
(175,116,o),
(164,138,o),
(164,152,qs),
(164,172,o),
(186,201,o),
(236,214,o),
(296,214,qs),
(358,214,l),
(358,306,l),
(282,306,ls),
(194,306,o),
(86,274,o),
(26,196,o),
(26,138,qs),
(26,90,o),
(72,22,o),
(140,-8,o),
(180,-8,qs)
);
}
);
width = 540;
},
{
anchors = (
{
name = bottom;
pos = (260,0);
},
{
name = ogonek;
pos = (504,0);
},
{
name = top;
pos = (260,500);
}
);
layerId = m003;
shapes = (
{
closed = 1;
nodes = (
(216,-8,o),
(268,8,o),
(314,48,o),
(330,84,q),
(330,64,ls),
(330,38,o),
(360,0,o),
(404,0,qs),
(514,0,l),
(514,114,l),
(486,114,ls),
(475,114,o),
(466,123,o),
(466,134,qs),
(466,320,ls),
(466,392,o),
(412,470,o),
(322,512,o),
(262,512,qs),
(194,512,o),
(96,464,o),
(48,386,o),
(48,340,q),
(182,340,l),
(180,360,o),
(196,390,o),
(232,406,o),
(254,406,qs),
(276,406,o),
(310,392,o),
(328,358,o),
(328,326,qs),
(328,190,ls),
(328,158,o),
(298,118,o),
(257,100,o),
(229,100,qs),
(205,100,o),
(175,116,o),
(164,138,o),
(164,152,qs),
(164,172,o),
(186,201,o),
(236,214,o),
(296,214,qs),
(358,214,l),
(358,306,l),
(282,306,ls),
(194,306,o),
(86,274,o),
(26,196,o),
(26,138,qs),
(26,90,o),
(72,22,o),
(140,-8,o),
(180,-8,qs)
);
}
);
width = 540;
}
);
userData = {
KernOnName = a;
};
},
{
color = 8;
glyphname = a.ss01.cv01;
kernLeft = c;
lastChange = "2025-05-22 16:47:10 +0000";
layers = (
{
anchors = (
{
name = bottom;
pos = (280,0);
},
{
name = ogonek;
pos = (478,0);
},
{
name = top;
pos = (280,500);
}
);
layerId = m01;
shapes = (
{
closed = 1;
nodes = (
(324,-12,o),
(401,22,o),
(456,92,o),
(464,120,q),
(464,80,ls),
(464,40,o),
(504,0,o),
(544,0,qs),
(562,0,l),
(562,20,l),
(544,20,ls),
(514,20,o),
(484,50,o),
(484,80,qs),
(484,500,l),
(464,500,l),
(464,380,l),
(456,408,o),
(401,478,o),
(324,512,o),
(276,512,qs),
(210,512,o),
(121,450,o),
(68,336,o),
(68,250,qs),
(68,164,o),
(121,50,o),
(210,-12,o),
(276,-12,qs)
);
},
{
closed = 1;
nodes = (
(216,8,o),
(137,64,o),
(88,170,o),
(88,250,qs),
(88,330,o),
(137,436,o),
(216,492,o),
(276,492,qs),
(336,492,o),
(417,436,o),
(464,330,o),
(464,250,qs),
(464,170,o),
(417,64,o),
(336,8,o),
(276,8,qs)
);
}
);
width = 600;
},
{
anchors = (
{
name = bottom;
pos = (280,0);
},
{
name = ogonek;
pos = (564,0);
},
{
name = top;
pos = (280,500);
}
);
layerId = "CCD41F9B-A064-4484-B59C-AEE566599C6A";
shapes = (
{
closed = 1;
nodes = (
(272,-12,o),
(326,4,o),
(380,48,o),
(396,92,q),
(396,70,ls),
(396,39,o),
(441,0,o),
(482,0,qs),
(574,0,l),
(574,114,l),
(568,114,ls),
(547,114,o),
(528,133,o),
(528,154,qs),
(528,500,l),
(386,500,l),
(386,424,l),
(374,454,o),
(324,494,o),
(270,512,o),
(240,512,qs),
(176,512,o),
(76,444,o),
(24,330,o),
(24,250,qs),
(24,170,o),
(76,56,o),
(176,-12,o),
(240,-12,qs)
);
},
{
closed = 1;
nodes = (
(244,108,o),
(196,144,o),
(170,206,o),
(170,250,qs),
(170,294,o),
(196,356,o),
(244,392,o),
(280,392,qs),
(316,392,o),
(364,356,o),
(390,294,o),
(390,250,qs),
(390,206,o),
(364,144,o),
(316,108,o),
(280,108,qs)
);
}
);
width = 600;
},
{
anchors = (
{
name = bottom;
pos = (280,0);
},
{
name = ogonek;
pos = (564,0);
},
{
name = top;
pos = (280,500);
}
);
layerId = m003;
shapes = (
{
closed = 1;
nodes = (
(272,-12,o),
(326,4,o),
(380,48,o),
(396,92,q),
(396,70,ls),
(396,39,o),
(441,0,o),
(482,0,qs),
(574,0,l),
(574,114,l),
(568,114,ls),
(547,114,o),
(528,133,o),
(528,154,qs),
(528,500,l),
(386,500,l),
(386,424,l),
(374,454,o),
(324,494,o),
(270,512,o),
(240,512,qs),
(176,512,o),
(76,444,o),
(24,330,o),
(24,250,qs),
(24,170,o),
(76,56,o),
(176,-12,o),
(240,-12,qs)
);
},
{
closed = 1;
nodes = (
(244,108,o),
(196,144,o),
(170,206,o),
(170,250,qs),
(170,294,o),
(196,356,o),
(244,392,o),
(280,392,qs),
(316,392,o),
(364,356,o),
(390,294,o),
(390,250,qs),
(390,206,o),
(364,144,o),
(316,108,o),
(280,108,qs)
);
}
);
width = 600;
}
);
metricLeft = o;
metricRight = a.ss01;
},
{
color = 7;
glyphname = a.ss02;
kernLeft = a;
kernRight = a;
lastChange = "2025-05-22 16:47:10 +0000";
layers = (
{
anchors = (
{
name = bottom;
pos = (254,0);
},
{
name = ogonek;
pos = (424,0);
},
{
name = top;
pos = (254,500);
}
);
annotations = (
{
pos = (410,8);
type = Arrow;
}
);
layerId = m01;
shapes = (
{
closed = 1;
nodes = (
(252,-6,o),
(320,20,o),
(382,76,o),
(402,124,q),
(402,0,l),
(422,0,l),
(422,342,ls),
(422,404,o),
(386,474,o),
(304,512,o),
(254,512,qs),
(208,512,o),
(130,480,o),
(86,418,o),
(86,370,q),
(106,370,l),
(106,412,o),
(145,466,o),
(212,492,o),
(254,492,qs),
(300,492,o),
(371,460,o),
(402,397,o),
(402,338,qs),
(402,220,ls),
(402,162,o),
(352,68,o),
(264,14,o),
(208,14,qs),
(164,14,o),
(107,43,o),
(78,96,o),
(78,130,qs),
(78,180,o),
(128,240,o),
(208,260,o),
(288,260,qs),
(412,260,l),
(412,280,l),
(288,280,ls),
(204,280,o),
(115,256,o),
(58,186,o),
(58,130,qs),
(58,90,o),
(92,28,o),
(159,-6,o),
(208,-6,qs)
);
}
);
width = 520;
},
{
anchors = (
{
name = bottom;
pos = (256,0);
},
{
name = ogonek;
pos = (454,0);
},
{
name = top;
pos = (256,500);
}
);
layerId = "CCD41F9B-A064-4484-B59C-AEE566599C6A";
shapes = (
{
closed = 1;
nodes = (
(216,-8,o),
(268,8,o),
(314,48,o),
(330,84,q),
(330,0,l),
(466,0,l),
(466,320,ls),
(466,392,o),
(412,470,o),
(322,512,o),
(262,512,qs),
(194,512,o),
(96,464,o),
(48,386,o),
(48,340,q),
(182,340,l),
(180,360,o),
(196,390,o),
(232,406,o),
(254,406,qs),
(276,406,o),
(310,392,o),
(328,358,o),
(328,326,qs),
(328,190,ls),
(328,158,o),
(298,118,o),
(257,100,o),
(229,100,qs),
(205,100,o),
(175,116,o),
(164,138,o),
(164,152,qs),
(164,172,o),
(186,201,o),
(236,214,o),
(296,214,qs),
(358,214,l),
(358,306,l),
(282,306,ls),
(194,306,o),
(86,274,o),
(26,196,o),
(26,138,qs),
(26,90,o),
(72,22,o),
(140,-8,o),
(180,-8,qs)
);
}
);
width = 520;
},
{
anchors = (
{
name = bottom;
pos = (256,0);
},
{
name = ogonek;
pos = (454,0);
},
{
name = top;
pos = (256,500);
}
);
layerId = m003;
shapes = (
{
closed = 1;
nodes = (
(216,-8,o),
(268,8,o),
(314,48,o),
(330,84,q),
(330,0,l),
(466,0,l),
(466,320,ls),
(466,392,o),
(412,470,o),
(322,512,o),
(262,512,qs),
(194,512,o),
(96,464,o),
(48,386,o),
(48,340,q),
(182,340,l),
(180,360,o),
(196,390,o),
(232,406,o),
(254,406,qs),
(276,406,o),
(310,392,o),
(328,358,o),
(328,326,qs),
(328,190,ls),
(328,158,o),
(298,118,o),
(257,100,o),
(229,100,qs),
(205,100,o),
(175,116,o),
(164,138,o),
(164,152,qs),
(164,172,o),
(186,201,o),
(236,214,o),
(296,214,qs),
(358,214,l),
(358,306,l),
(282,306,ls),
(194,306,o),
(86,274,o),
(26,196,o),
(26,138,qs),
(26,90,o),
(72,22,o),
(140,-8,o),
(180,-8,qs)
);
}
);
width = 520;
}
);
userData = {
KernOnName = a;
};
},
{
glyphname = ae;
kernLeft = a;
kernRight = e;
lastChange = "2025-08-10 09:25:29 +0000";
layers = (
{
anchors = (
{
name = top;
pos = (405,500);
}
);
layerId = m01;
shapes = (
{
closed = 1;
nodes = (
(270,-12,o),
(356,47,o),
(394,128,o),
(398,160,q),
(400,128,o),
(440,44,o),
(527,-12,o),
(587,-12,qs),
(643,-12,o),
(715,28,o),
(756,104,o),
(756,130,q),
(735,130,l),
(735,107,o),
(699,42,o),
(637,8,o),
(587,8,qs),
(533,8,o),
(452,60,o),
(408,170,o),
(408,252,q),
(768,252,l),
(768,272,ls),
(768,338,o),
(728,446,o),
(645,512,o),
(585,512,qs),
(525,512,o),
(447,460,o),
(406,394,o),
(401,366,q),
(399,394,o),
(360,472,o),
(286,512,o),
(242,512,qs),
(194,512,o),
(123,480,o),
(82,420,o),
(82,380,q),
(102,380,l),
(102,414,o),
(137,464,o),
(200,492,o),
(242,492,qs),
(280,492,o),
(350,454,o),
(388,366,o),
(388,272,q),
(254,272,ls),
(186,272,o),
(100,245,o),
(50,176,o),
(50,130,qs),
(50,86,o),
(85,26,o),
(154,-12,o),
(204,-12,qs)
);
},
{
closed = 1;
nodes = (
(160,8,o),
(101,40,o),
(70,92,o),
(70,130,qs),
(70,170,o),
(114,229,o),
(192,252,o),
(254,252,qs),
(388,252,l),
(384,142,o),
(328,46,o),
(252,8,o),
(204,8,qs)
);
},
{
closed = 1;
nodes = (
(408,354,o),
(462,449,o),
(533,492,o),
(585,492,qs),
(637,492,o),
(711,437,o),
(748,332,o),
(748,272,q),
(408,272,l)
);
}
);
width = 820;
},
{
anchors = (
{
name = top;
pos = (409,500);
}
);
layerId = "CCD41F9B-A064-4484-B59C-AEE566599C6A";
shapes = (
{
closed = 1;
nodes = (
(266,-12,o),
(342,22,o),
(382,66,o),
(392,92,q),
(404,64,o),
(456,20,o),
(531,-12,o),
(585,-12,qs),
(641,-12,o),
(735,34,o),
(790,120,o),
(792,160,q),
(660,160,l),
(660,144,o),
(642,115,o),
(607,94,o),
(577,94,qs),
(547,94,o),
(495,122,o),
(468,174,o),
(468,210,q),
(794,210,l),
(794,260,ls),
(794,335,o),
(738,450,o),
(640,512,o),
(578,512,qs),
(530,512,o),
(464,486,o),
(420,446,o),
(406,426,q),
(396,448,o),
(352,488,o),
(285,512,o),
(239,512,qs),
(187,512,o),
(95,466,o),
(46,380,o),
(44,340,q),
(176,340,l),
(174,364,o),
(194,396,o),
(225,412,o),
(249,412,qs),
(273,412,o),
(307,394,o),
(328,359,o),
(328,298,q),
(274,298,ls),
(184,298,o),
(80,266,o),
(26,190,o),
(26,136,qs),
(26,90,o),
(76,21,o),
(156,-12,o),
(216,-12,qs)
);
},
{
closed = 1;
nodes = (
(201,94,o),
(175,108,o),
(160,132,o),
(160,150,qs),
(160,170,o),
(182,198,o),
(240,210,o),
(280,210,qs),
(328,210,l),
(326,168,o),
(298,118,o),
(255,94,o),
(227,94,qs)
);
},
{
closed = 1;
nodes = (
(472,336,o),
(502,388,o),
(544,412,o),
(572,412,qs),
(604,412,o),
(642,386,o),
(664,338,o),
(664,298,q),
(470,298,l)
);
}
);
width = 820;
},
{
anchors = (
{
name = top;
pos = (409,500);
}
);
layerId = m003;
shapes = (
{
closed = 1;
nodes = (
(266,-12,o),
(342,22,o),
(382,66,o),
(392,92,q),
(404,64,o),
(456,20,o),
(531,-12,o),
(585,-12,qs),
(641,-12,o),
(735,34,o),
(790,120,o),
(792,160,q),
(660,160,l),
(660,144,o),
(642,115,o),
(607,94,o),
(577,94,qs),
(547,94,o),
(495,122,o),
(468,174,o),
(468,210,q),
(794,210,l),
(794,260,ls),
(794,335,o),
(738,450,o),
(640,512,o),
(578,512,qs),
(530,512,o),
(464,486,o),
(420,446,o),
(406,426,q),
(396,448,o),
(352,488,o),
(285,512,o),
(239,512,qs),
(187,512,o),
(95,466,o),
(46,380,o),
(44,340,q),
(176,340,l),
(174,364,o),
(194,396,o),
(225,412,o),
(249,412,qs),
(273,412,o),
(307,394,o),
(328,359,o),
(328,298,q),
(274,298,ls),
(184,298,o),
(80,266,o),
(26,190,o),
(26,136,qs),
(26,90,o),
(76,21,o),
(156,-12,o),
(216,-12,qs)
);
},
{
closed = 1;
nodes = (
(201,94,o),
(175,108,o),
(160,132,o),
(160,150,qs),
(160,170,o),
(182,198,o),
(240,210,o),
(280,210,qs),
(328,210,l),
(326,168,o),
(298,118,o),
(255,94,o),
(227,94,qs)
);
},
{
closed = 1;
nodes = (
(472,336,o),
(502,388,o),
(544,412,o),
(572,412,qs),
(604,412,o),
(642,386,o),
(664,338,o),
(664,298,q),
(470,298,l)
);
}
);
width = 820;
}
);
unicode = 230;
},
{
glyphname = b;
kernLeft = b;
kernRight = b;
lastChange = "2025-05-22 16:47:10 +0000";
layers = (
{
anchors = (
{
name = bottom;
pos = (306,0);
},
{
name = top;
pos = (306,500);
}
);
layerId = m01;
shapes = (
{
closed = 1;
nodes = (
(374,-12,o),
(463,50,o),
(516,164,o),
(516,250,qs),
(516,336,o),
(463,450,o),
(374,512,o),
(308,512,qs),
(260,512,o),
(183,478,o),
(128,408,o),
(120,380,q),
(120,720,l),
(100,720,l),
(100,0,l),
(120,0,l),
(120,120,l),
(128,92,o),
(183,22,o),
(260,-12,o),
(308,-12,qs)
);
},
{
closed = 1;
nodes = (
(248,8,o),
(167,64,o),
(120,170,o),
(120,250,qs),
(120,330,o),
(167,436,o),
(248,492,o),
(308,492,qs),
(368,492,o),
(447,436,o),
(496,330,o),
(496,250,qs),
(496,170,o),
(447,64,o),
(368,8,o),
(308,8,qs)
);
}
);
width = 584;
},
{
anchors = (
{
name = bottom;
pos = (334,0);
},
{
name = top;
pos = (332,500);
}
);
layerId = "CCD41F9B-A064-4484-B59C-AEE566599C6A";
shapes = (
{
closed = 1;
nodes = (
(408,-12,o),
(508,56,o),
(560,170,o),
(560,250,qs),
(560,330,o),
(508,444,o),
(408,512,o),
(344,512,qs),
(314,512,o),
(260,494,o),
(210,454,o),
(198,424,q),
(198,720,l),
(56,720,l),
(56,0,l),
(198,0,l),
(198,76,l),
(210,46,o),
(260,6,o),
(314,-12,o),
(344,-12,qs)
);
},
{
closed = 1;
nodes = (
(268,108,o),
(220,144,o),
(194,206,o),
(194,250,qs),
(194,294,o),
(220,356,o),
(268,392,o),
(304,392,qs),
(340,392,o),
(388,356,o),
(414,294,o),
(414,250,qs),
(414,206,o),
(388,144,o),
(340,108,o),
(304,108,qs)
);
}
);
width = 584;
},
{
anchors = (
{
name = bottom;
pos = (334,0);
},
{
name = top;
pos = (332,500);
}
);
layerId = m003;
shapes = (
{
closed = 1;
nodes = (
(408,-12,o),
(508,56,o),
(560,170,o),
(560,250,qs),
(560,330,o),
(508,444,o),
(408,512,o),
(344,512,qs),
(314,512,o),
(260,494,o),
(210,454,o),
(198,424,q),
(198,720,l),
(56,720,l),
(56,0,l),
(198,0,l),
(198,76,l),
(210,46,o),
(260,6,o),
(314,-12,o),
(344,-12,qs)
);
},
{
closed = 1;
nodes = (
(268,108,o),
(220,144,o),
(194,206,o),
(194,250,qs),
(194,294,o),
(220,356,o),
(268,392,o),
(304,392,qs),
(340,392,o),
(388,356,o),
(414,294,o),
(414,250,qs),
(414,206,o),
(388,144,o),
(340,108,o),
(304,108,qs)
);
}
);
width = 584;
}
);
metricLeft = n;
metricRight = o;
unicode = 98;
},
{
glyphname = c;
kernLeft = c;
kernRight = c;
lastChange = "2025-05-22 16:47:10 +0000";
layers = (
{
anchors = (
{
name = bottom;
pos = (276,0);
},
{
name = top;
pos = (276,500);
}
);
layerId = m01;
shapes = (
{
closed = 1;
nodes = (
(328,-12,o),
(404,30,o),
(446,102,o),
(446,130,q),
(426,130,l),
(426,108,o),
(388,44,o),
(322,8,o),
(272,8,qs),
(218,8,o),
(134,64,o),
(88,170,o),
(88,250,qs),
(88,330,o),
(134,436,o),
(218,492,o),
(272,492,qs),
(322,492,o),
(388,456,o),
(426,392,o),
(426,370,q),
(446,370,l),
(446,398,o),
(404,470,o),
(328,512,o),
(272,512,qs),
(212,512,o),
(118,450,o),
(68,336,o),
(68,250,qs),
(68,164,o),
(118,50,o),
(212,-12,o),
(272,-12,qs)
);
}
);
width = 500;
},
{
anchors = (
{
name = bottom;
pos = (264,0);
},
{
name = top;
pos = (264,500);
}
);
layerId = "CCD41F9B-A064-4484-B59C-AEE566599C6A";
shapes = (
{
closed = 1;
nodes = (
(344,-12,o),
(442,44,o),
(486,124,o),
(486,160,q),
(348,160,l),
(348,146,o),
(330,114,o),
(298,98,o),
(274,98,qs),
(244,98,o),
(196,136,o),
(170,205,o),
(170,251,qs),
(170,297,o),
(196,364,o),
(244,402,o),
(274,402,qs),
(298,402,o),
(330,386,o),
(348,354,o),
(348,340,q),
(486,340,l),
(486,376,o),
(442,456,o),
(344,512,o),
(272,512,qs),
(196,512,o),
(84,444,o),
(24,323,o),
(24,251,qs),
(24,179,o),
(84,56,o),
(196,-12,o),
(272,-12,qs)
);
}
);
width = 500;
},
{
anchors = (
{
name = bottom;
pos = (264,0);
},
{
name = top;
pos = (264,500);
}
);
layerId = m003;
shapes = (
{
closed = 1;
nodes = (
(344,-12,o),
(442,44,o),
(486,124,o),
(486,160,q),
(348,160,l),
(348,146,o),
(330,114,o),
(298,98,o),
(274,98,qs),
(244,98,o),
(196,136,o),
(170,205,o),
(170,251,qs),
(170,297,o),
(196,364,o),
(244,402,o),
(274,402,qs),
(298,402,o),
(330,386,o),
(348,354,o),
(348,340,q),
(486,340,l),
(486,376,o),
(442,456,o),
(344,512,o),
(272,512,qs),
(196,512,o),
(84,444,o),
(24,323,o),
(24,251,qs),
(24,179,o),
(84,56,o),
(196,-12,o),
(272,-12,qs)
);
}
);
width = 500;
}
);
metricLeft = o;
unicode = 99;
userData = {
KernOnName = c;
};
},
{
glyphname = eth;
kernLeft = c;
kernRight = b;
lastChange = "2025-05-22 16:47:10 +0000";
layers = (
{
layerId = m01;
shapes = (
{
closed = 1;
nodes = (
(218,540,l),
(416,746,l),
(388,746,l),
(190,540,l)
);
},
{
ref = partialdiff;
}
);
width = 560;
},
{
layerId = "CCD41F9B-A064-4484-B59C-AEE566599C6A";
shapes = (
{
closed = 1;
nodes = (
(265,541,l),
(464,746,l),
(351,746,l),
(152,541,l)
);
},
{
ref = partialdiff;
}
);
width = 560;
},
{
layerId = m003;
shapes = (
{
closed = 1;
nodes = (
(265,541,l),
(464,746,l),
(351,746,l),
(152,541,l)
);
},
{
ref = partialdiff;
}
);
width = 560;
}
);
metricLeft = o;
metricRight = o;
unicode = 240;
},
{
glyphname = e;
kernLeft = c;
kernRight = e;
lastChange = "2025-08-11 11:46:02 +0000";
layers = (
{
anchors = (
{
name = bottom;
pos = (272,0);
},
{
name = ogonek;
pos = (324,0);
},
{
name = top;
pos = (272,500);
}
);
layerId = m01;
shapes = (
{
closed = 1;
nodes = (
(326,-12,o),
(400,26,o),
(448,96,o),
(450,130,q),
(429,130,l),
(425,98,o),
(387,42,o),
(320,8,o),
(272,8,qs),
(212,8,o),
(130,66,o),
(88,164,o),
(88,244,qs),
(88,256,ls),
(88,338,o),
(134,438,o),
(210,492,o),
(270,492,qs),
(326,492,o),
(402,440,o),
(442,343,o),
(442,276,q),
(80,276,l),
(80,256,l),
(462,256,l),
(462,270,ls),
(462,345,o),
(420,453,o),
(334,512,o),
(270,512,qs),
(204,512,o),
(118,452,o),
(68,343,o),
(68,250,qs),
(68,157,o),
(114,50,o),
(206,-12,o),
(272,-12,qs)
);
}
);
width = 530;
},
{
anchors = (
{
name = bottom;
pos = (271,0);
},
{
name = ogonek;
pos = (343,0);
},
{
name = top;
pos = (271,500);
}
);
layerId = "CCD41F9B-A064-4484-B59C-AEE566599C6A";
shapes = (
{
closed = 1;
nodes = (
(347,-12,o),
(447,38,o),
(502,124,o),
(504,160,q),
(364,160,l),
(364,144,o),
(344,112,o),
(307,94,o),
(277,94,qs),
(242,94,o),
(193,128,o),
(168,191,o),
(168,241,qs),
(168,261,ls),
(168,313,o),
(192,377,o),
(240,412,o),
(276,412,qs),
(304,412,o),
(344,390,o),
(368,344,o),
(368,300,q),
(115,300,l),
(115,212,l),
(506,212,l),
(506,250,ls),
(506,326,o),
(454,444,o),
(346,512,o),
(272,512,qs),
(198,512,o),
(85,444,o),
(24,326,o),
(24,250,qs),
(24,174,o),
(87,54,o),
(205,-12,o),
(279,-12,qs)
);
}
);
width = 530;
},
{
anchors = (
{
name = bottom;
pos = (271,0);
},
{
name = ogonek;
pos = (335,0);
},
{
name = top;
pos = (271,500);
}
);
associatedMasterId = m01;
attr = {
coordinates = (
400
);
};
layerId = "18EA5F01-8DA6-450F-98F0-DE5221F54865";
name = "10 февр. 25 г., 19:35";
shapes = (
{
closed = 1;
nodes = (
(338,-12,o),
(427,33,o),
(479,112,o),
(481,147,q),
(392,147,l),
(390,123,o),
(362,83,o),
(311,59,o),
(275,59,qs),
(231,59,o),
(166,103,o),
(134,181,o),
(134,242,qs),
(134,259,ls),
(134,324,o),
(167,403,o),
(227,442,o),
(271,442,qs),
(313,442,o),
(369,411,o),
(400,344,o),
(400,296,q),
(100,296,l),
(100,224,l),
(487,224,l),
(487,259,ls),
(487,334,o),
(439,448,o),
(341,512,o),
(271,512,qs),
(201,512,o),
(99,447,o),
(43,333,o),
(43,250,qs),
(43,167,o),
(99,52,o),
(205,-12,o),
(276,-12,qs)
);
}
);
width = 530;
},
{
anchors = (
{
name = bottom;
pos = (271,0);
},
{
name = ogonek;
pos = (343,0);
},
{
name = top;
pos = (271,500);
}
);
layerId = m003;
shapes = (
{
closed = 1;
nodes = (
(347,-12,o),
(447,38,o),
(502,124,o),
(504,160,q),
(364,160,l),
(364,144,o),
(344,112,o),
(307,94,o),
(277,94,qs),
(242,94,o),
(193,128,o),
(168,191,o),
(168,241,qs),
(168,261,ls),
(168,313,o),
(192,377,o),
(240,412,o),
(276,412,qs),
(304,412,o),
(344,390,o),
(368,344,o),
(368,300,q),
(115,300,l),
(115,212,l),
(506,212,l),
(506,250,ls),
(506,326,o),
(454,444,o),
(346,512,o),
(272,512,qs),
(198,512,o),
(85,444,o),
(24,326,o),
(24,250,qs),
(24,174,o),
(87,54,o),
(205,-12,o),
(279,-12,qs)
);
}
);
width = 530;
}
);
metricLeft = o;
metricRight = o;
unicode = 101;
userData = {
KernOnName = e;
};
},
{
glyphname = ezh;
kernLeft = y;
kernRight = y;
lastChange = "2025-08-10 09:41:04 +0000";
layers = (
{
anchors = (
{
name = bottom;
pos = (240,-200);
},
{
name = top;
pos = (229,500);
}
);
layerId = m01;
shapes = (
{
closed = 1;
nodes = (
(308,-212,o),
(400,-162,o),
(452,-68,o),
(452,0,q),
(452,67,o),
(396,160,o),
(292,210,o),
(208,210,q),
(424,480,l),
(424,500,l),
(54,500,l),
(54,480,l),
(398,480,l),
(182,210,l),
(182,190,l),
(204,190,ls),
(286,190,o),
(380,146,o),
(432,60,o),
(432,0,qs),
(432,-60,o),
(386,-146,o),
(302,-192,o),
(244,-192,qs),
(186,-192,o),
(106,-161,o),
(62,-100,o),
(62,-70,q),
(42,-70,l),
(42,-106,o),
(90,-175,o),
(181,-212,o),
(244,-212,qs)
);
}
);
width = 520;
},
{
anchors = (
{
name = bottom;
pos = (258,-200);
},
{
name = top;
pos = (248,500);
}
);
layerId = "CCD41F9B-A064-4484-B59C-AEE566599C6A";
shapes = (
{
closed = 1;
nodes = (
(328,-212,o),
(437,-158,o),
(496,-60,o),
(496,0,qs),
(496,72,o),
(444,170,o),
(348,220,o),
(290,220,q),
(466,460,l),
(466,500,l),
(46,500,l),
(46,382,l),
(276,382,l),
(120,162,l),
(120,120,l),
(206,120,ls),
(266,120,o),
(326,92,o),
(354,38,o),
(354,0,qs),
(354,-28,o),
(332,-74,o),
(288,-100,o),
(256,-100,qs),
(226,-100,o),
(188,-86,o),
(164,-56,o),
(164,-40,q),
(20,-40,l),
(22,-76,o),
(76,-162,o),
(184,-212,o),
(256,-212,qs)
);
}
);
width = 520;
},
{
anchors = (
{
name = bottom;
pos = (258,-200);
},
{
name = top;
pos = (248,500);
}
);
layerId = m003;
shapes = (
{
closed = 1;
nodes = (
(328,-212,o),
(437,-158,o),
(496,-60,o),
(496,0,qs),
(496,72,o),
(444,170,o),
(348,220,o),
(290,220,q),
(466,460,l),
(466,500,l),
(46,500,l),
(46,382,l),
(276,382,l),
(120,162,l),
(120,120,l),
(206,120,ls),
(266,120,o),
(326,92,o),
(354,38,o),
(354,0,qs),
(354,-28,o),
(332,-74,o),
(288,-100,o),
(256,-100,qs),
(226,-100,o),
(188,-86,o),
(164,-56,o),
(164,-40,q),
(20,-40,l),
(22,-76,o),
(76,-162,o),
(184,-212,o),
(256,-212,qs)
);
}
);
width = 520;
}
);
metricRight = o;
unicode = 658;
},
{
glyphname = f;
kernLeft = f;
kernRight = f;
lastChange = "2025-05-22 16:47:10 +0000";
layers = (
{
anchors = (
{
name = bottom;
pos = (141,0);
},
{
name = top;
pos = (153,720);
}
);
layerId = m01;
shapes = (
{
closed = 1;
nodes = (
(170,0,l),
(170,594,ls),
(170,653,o),
(221,700,o),
(284,700,qs),
(306,700,l),
(306,720,l),
(284,720,ls),
(213,720,o),
(150,665,o),
(150,600,qs),
(150,0,l)
);
},
{
closed = 1;
nodes = (
(306,480,l),
(306,500,l),
(40,500,l),
(40,480,l)
);
}
);
width = 380;
},
{
anchors = (
{
name = bottom;
pos = (182,0);
},
{
name = top;
pos = (191,720);
}
);
layerId = "CCD41F9B-A064-4484-B59C-AEE566599C6A";
shapes = (
{
closed = 1;
nodes = (
(240,2,l),
(240,560,ls),
(240,584,o),
(264,608,o),
(288,608,qs),
(344,608,l),
(344,720,l),
(246,720,ls),
(172,720,o),
(98,652,o),
(98,580,qs),
(98,2,l)
);
},
{
closed = 1;
nodes = (
(344,380,l),
(344,500,l),
(20,500,l),
(20,380,l)
);
}
);
width = 380;
},
{
anchors = (
{
name = bottom;
pos = (182,0);
},
{
name = top;
pos = (191,720);
}
);
layerId = m003;
shapes = (
{
closed = 1;
nodes = (
(240,2,l),
(240,560,ls),
(240,584,o),
(264,608,o),
(288,608,qs),
(344,608,l),
(344,720,l),
(246,720,ls),
(172,720,o),
(98,652,o),
(98,580,qs),
(98,2,l)
);
},
{
closed = 1;
nodes = (
(344,380,l),
(344,500,l),
(20,500,l),
(20,380,l)
);
}
);
width = 380;
}
);
unicode = 102;
userData = {
KernOnName = f;
};
},
{
glyphname = g;
kernLeft = c;
kernRight = g;
lastChange = "2025-05-22 16:47:10 +0000";
layers = (
{
anchors = (
{
name = bottom;
pos = (276,-200);
},
{
name = top;
pos = (276,500);
}
);
layerId = m01;
shapes = (
{
closed = 1;
nodes = (
(336,-212,o),
(420,-176,o),
(474,-86,o),
(474,0,qs),
(474,500,l),
(454,500,l),
(454,384,l),
(448,412,o),
(396,474,o),
(319,512,o),
(271,512,qs),
(207,512,o),
(114,448,o),
(68,344,o),
(68,264,qs),
(68,184,o),
(114,80,o),
(207,16,o),
(271,16,qs),
(319,16,o),
(396,54,o),
(448,116,o),
(454,144,q),
(454,0,ls),
(454,-80,o),
(406,-160,o),
(330,-192,o),
(282,-192,qs),
(234,-192,o),
(158,-160,o),
(118,-102,o),
(118,-70,q),
(98,-70,l),
(98,-108,o),
(144,-176,o),
(228,-212,o),
(282,-212,qs)
);
},
{
closed = 1;
nodes = (
(213,36,o),
(130,94,o),
(88,190,o),
(88,264,qs),
(88,338,o),
(130,434,o),
(213,492,o),
(271,492,qs),
(329,492,o),
(410,434,o),
(454,338,o),
(454,264,qs),
(454,190,o),
(410,94,o),
(329,36,o),
(271,36,qs)
);
}
);
width = 574;
},
{
anchors = (
{
name = bottom;
pos = (282,-200);
},
{
name = top;
pos = (272,500);
}
);
layerId = "CCD41F9B-A064-4484-B59C-AEE566599C6A";
shapes = (
{
closed = 1;
nodes = (
(340,-212,o),
(450,-168,o),
(518,-56,o),
(518,20,qs),
(518,500,l),
(376,500,l),
(376,424,l),
(364,454,o),
(318,494,o),
(260,512,o),
(234,512,qs),
(172,512,o),
(74,446,o),
(24,334,o),
(24,258,qs),
(24,182,o),
(74,70,o),
(172,4,o),
(234,4,qs),
(260,4,o),
(318,22,o),
(364,62,o),
(376,92,q),
(376,20,ls),
(376,-28,o),
(346,-80,o),
(296,-100,o),
(266,-100,qs),
(236,-100,o),
(198,-86,o),
(178,-56,o),
(178,-40,q),
(34,-40,l),
(36,-76,o),
(90,-162,o),
(200,-212,o),
(270,-212,qs)
);
},
{
closed = 1;
nodes = (
(240,124,o),
(194,158,o),
(170,218,o),
(170,258,qs),
(170,298,o),
(194,358,o),
(240,392,o),
(274,392,qs),
(308,392,o),
(354,358,o),
(378,298,o),
(378,258,qs),
(378,218,o),
(354,158,o),
(308,124,o),
(274,124,qs)
);
}
);
width = 574;
},
{
anchors = (
{
name = bottom;
pos = (282,-200);
},
{
name = top;
pos = (272,500);
}
);
layerId = m003;
shapes = (
{
closed = 1;
nodes = (
(340,-212,o),
(450,-168,o),
(518,-56,o),
(518,20,qs),
(518,500,l),
(376,500,l),
(376,424,l),
(364,454,o),
(318,494,o),
(260,512,o),
(234,512,qs),
(172,512,o),
(74,446,o),
(24,334,o),
(24,258,qs),
(24,182,o),
(74,70,o),
(172,4,o),
(234,4,qs),
(260,4,o),
(318,22,o),
(364,62,o),
(376,92,q),
(376,20,ls),
(376,-28,o),
(346,-80,o),
(296,-100,o),
(266,-100,qs),
(236,-100,o),
(198,-86,o),
(178,-56,o),
(178,-40,q),
(34,-40,l),
(36,-76,o),
(90,-162,o),
(200,-212,o),
(270,-212,qs)
);
},
{
closed = 1;
nodes = (
(240,124,o),
(194,158,o),
(170,218,o),
(170,258,qs),
(170,298,o),
(194,358,o),
(240,392,o),
(274,392,qs),
(308,392,o),
(354,358,o),
(378,298,o),
(378,258,qs),
(378,218,o),
(354,158,o),
(308,124,o),
(274,124,qs)
);
}
);
width = 574;
}
);
metricLeft = o;
metricRight = u;
unicode = 103;
userData = {
KernOnName = g;
};
},
{
color = 9;
glyphname = g.ss01;
kernLeft = c;
kernRight = g;
lastChange = "2025-05-22 16:47:10 +0000";
layers = (
{
anchors = (
{
name = bottom;
pos = (274,-200);
},
{
name = top;
pos = (274,500);
}
);
layerId = m01;
shapes = (
{
closed = 1;
nodes = (
(342,-218,o),
(426,-188,o),
(482,-122,o),
(482,-70,qs),
(482,-18,o),
(426,48,o),
(342,78,o),
(274,78,q),
(190,78,ls),
(158,78,o),
(128,104,o),
(128,124,qs),
(128,144,o),
(158,168,o),
(190,168,qs),
(274,168,ls),
(330,168,o),
(411,205,o),
(461,288,o),
(461,340,q),
(461,388,o),
(419,462,o),
(389,480,q),
(486,480,l),
(486,500,l),
(351,500,l),
(321,512,o),
(274,512,qs),
(218,512,o),
(138,470,o),
(89,392,o),
(89,340,qs),
(89,298,o),
(117,232,o),
(162,194,o),
(182,188,q),
(158,186,o),
(123,168,o),
(108,140,o),
(108,124,qs),
(108,106,o),
(124,76,o),
(158,58,o),
(188,58,qs),
(274,58,l),
(334,58,o),
(414,32,o),
(462,-26,o),
(462,-70,qs),
(462,-114,o),
(414,-172,o),
(334,-198,o),
(274,-198,qs),
(214,-198,o),
(134,-172,o),
(88,-114,o),
(88,-70,qs),
(88,-26,o),
(134,32,o),
(214,58,o),
(274,58,q),
(274,78,l),
(206,78,o),
(122,48,o),
(68,-18,o),
(68,-70,qs),
(68,-122,o),
(122,-188,o),
(206,-218,o),
(274,-218,qs)
);
},
{
closed = 1;
nodes = (
(226,188,o),
(150,221,o),
(109,296,o),
(109,340,q),
(109,384,o),
(150,454,o),
(226,492,o),
(274,492,q),
(322,492,o),
(398,458,o),
(441,384,o),
(441,340,qs),
(441,296,o),
(399,221,o),
(322,188,o),
(274,188,qs)
);
}
);
width = 554;
},
{
anchors = (
{
name = bottom;
pos = (274,-200);
},
{
name = top;
pos = (274,500);
}
);
layerId = "CCD41F9B-A064-4484-B59C-AEE566599C6A";
shapes = (
{
closed = 1;
nodes = (
(377,-224,o),
(476,-192,o),
(530,-122,o),
(530,-70,qs),
(530,-18,o),
(476,52,o),
(377,84,o),
(277,84,q),
(229,84,ls),
(212,84,o),
(191,101,o),
(191,116,qs),
(191,131,o),
(212,148,o),
(229,148,qs),
(271,148,ls),
(347,148,o),
(447,192,o),
(492,268,o),
(492,308,qs),
(492,328,o),
(478,376,o),
(464,394,q),
(530,394,l),
(530,500,l),
(364,500,l),
(321,512,o),
(270,512,qs),
(200,512,o),
(97,464,o),
(42,380,o),
(42,330,qs),
(42,286,o),
(69,228,o),
(102,194,o),
(116,186,q),
(100,178,o),
(76,144,o),
(65,108,o),
(65,84,qs),
(65,48,o),
(95,2,o),
(159,-30,o),
(215,-30,qs),
(277,-30,l),
(325,-30,o),
(379,-36,o),
(404,-54,o),
(404,-70,qs),
(404,-86,o),
(379,-104,o),
(325,-110,o),
(277,-110,qs),
(229,-110,o),
(175,-104,o),
(150,-86,o),
(150,-70,qs),
(150,-54,o),
(175,-36,o),
(229,-30,o),
(277,-30,q),
(277,64,l),
(197,64,o),
(83,44,o),
(24,-22,o),
(24,-70,qs),
(24,-122,o),
(78,-192,o),
(177,-224,o),
(277,-224,qs)
);
},
{
closed = 1;
nodes = (
(246,256,o),
(210,270,o),
(188,306,o),
(188,330,qs),
(188,354,o),
(210,390,o),
(246,404,o),
(270,404,qs),
(294,404,o),
(330,390,o),
(352,354,o),
(352,330,q),
(352,306,o),
(330,270,o),
(294,256,o),
(270,256,qs)
);
}
);
width = 554;
},
{
anchors = (
{
name = bottom;
pos = (274,-200);
},
{
name = top;
pos = (274,500);
}
);
layerId = m003;
shapes = (
{
closed = 1;
nodes = (
(377,-224,o),
(476,-192,o),
(530,-122,o),
(530,-70,qs),
(530,-18,o),
(476,52,o),
(377,84,o),
(277,84,q),
(229,84,ls),
(212,84,o),
(191,101,o),
(191,116,qs),
(191,131,o),
(212,148,o),
(229,148,qs),
(271,148,ls),
(347,148,o),
(447,192,o),
(492,268,o),
(492,308,qs),
(492,328,o),
(478,376,o),
(464,394,q),
(530,394,l),
(530,500,l),
(364,500,l),
(321,512,o),
(270,512,qs),
(200,512,o),
(97,464,o),
(42,380,o),
(42,330,qs),
(42,286,o),
(69,228,o),
(102,194,o),
(116,186,q),
(100,178,o),
(76,144,o),
(65,108,o),
(65,84,qs),
(65,48,o),
(95,2,o),
(159,-30,o),
(215,-30,qs),
(277,-30,l),
(325,-30,o),
(379,-36,o),
(404,-54,o),
(404,-70,qs),
(404,-86,o),
(379,-104,o),
(325,-110,o),
(277,-110,qs),
(229,-110,o),
(175,-104,o),
(150,-86,o),
(150,-70,qs),
(150,-54,o),
(175,-36,o),
(229,-30,o),
(277,-30,q),
(277,64,l),
(197,64,o),
(83,44,o),
(24,-22,o),
(24,-70,qs),
(24,-122,o),
(78,-192,o),
(177,-224,o),
(277,-224,qs)
);
},
{
closed = 1;
nodes = (
(246,256,o),
(210,270,o),
(188,306,o),
(188,330,qs),
(188,354,o),
(210,390,o),
(246,404,o),
(270,404,qs),
(294,404,o),
(330,390,o),
(352,354,o),
(352,330,q),
(352,306,o),
(330,270,o),
(294,256,o),
(270,256,qs)
);
}
);
width = 554;
}
);
metricLeft = o;
metricRight = o;
userData = {
KernOnName = g;
};
},
{
color = 7;
glyphname = g.ss02;
kernLeft = c;
kernRight = g;
lastChange = "2025-08-12 14:59:53 +0000";
layers = (
{
anchors = (
{
name = bottom;
pos = (274,-200);
},
{
name = top;
pos = (274,500);
}
);
layerId = m01;
shapes = (
{
closed = 1;
nodes = (
(330,168,o),
(413,212,o),
(461,288,o),
(461,340,q),
(461,392,o),
(412,468,o),
(330,512,o),
(274,512,qs),
(218,512,o),
(136,468,o),
(89,392,o),
(89,340,qs),
(89,288,o),
(136,212,o),
(218,168,o),
(274,168,q)
);
},
{
closed = 1;
nodes = (
(226,188,o),
(150,226,o),
(109,296,o),
(109,340,q),
(109,384,o),
(150,454,o),
(226,492,o),
(274,492,q),
(322,492,o),
(398,454,o),
(441,384,o),
(441,340,qs),
(441,296,o),
(399,226,o),
(322,188,o),
(274,188,qs)
);
},
{
closed = 1;
nodes = (
(179,78,o),
(68,7,o),
(68,-70,qs),
(68,-149,o),
(181,-218,o),
(274,-218,qs),
(370,-218,o),
(482,-146,o),
(482,-70,qs),
(482,7,o),
(367,78,o),
(274,78,qs)
);
},
{
closed = 1;
nodes = (
(88,-1,o),
(190,58,o),
(274,58,qs),
(357,58,o),
(462,-2,o),
(462,-70,qs),
(462,-138,o),
(359,-198,o),
(274,-198,qs),
(188,-198,o),
(88,-138,o),
(88,-70,qs)
);
},
{
closed = 1;
nodes = (
(264,180,l),
(264,70,l),
(284,70,l),
(284,180,l)
);
}
);
width = 550;
},
{
anchors = (
{
name = bottom;
pos = (272,-200);
},
{
name = top;
pos = (272,500);
}
);
layerId = "CCD41F9B-A064-4484-B59C-AEE566599C6A";
shapes = (
{
closed = 1;
nodes = (
(341,148,o),
(445,190,o),
(503,276,o),
(503,330,qs),
(503,384,o),
(445,468,o),
(341,512,o),
(275,512,qs),
(209,512,o),
(105,468,o),
(47,384,o),
(47,330,qs),
(47,276,o),
(105,190,o),
(209,148,o),
(275,148,qs)
);
},
{
closed = 1;
nodes = (
(251,256,o),
(215,270,o),
(193,306,o),
(193,330,qs),
(193,354,o),
(215,390,o),
(251,404,o),
(275,404,qs),
(299,404,o),
(335,390,o),
(357,354,o),
(357,330,q),
(357,306,o),
(335,270,o),
(299,256,o),
(275,256,qs)
);
},
{
closed = 1;
nodes = (
(166,94,o),
(24,17,o),
(24,-70,qs),
(24,-157,o),
(166,-234,o),
(275,-234,qs),
(384,-234,o),
(526,-157,o),
(526,-70,qs),
(526,18,o),
(385,94,o),
(275,94,qs)
);
},
{
closed = 1;
nodes = (
(152,-43,o),
(209,-20,o),
(275,-20,qs),
(341,-20,o),
(398,-43,o),
(398,-70,qs),
(398,-97,o),
(341,-120,o),
(275,-120,qs),
(209,-120,o),
(152,-97,o),
(152,-70,qs)
);
},
{
closed = 1;
nodes = (
(215,209,l),
(215,20,l),
(335,20,l),
(335,209,l)
);
}
);
width = 550;
},
{
anchors = (
{
name = bottom;
pos = (272,-200);
},
{
name = top;
pos = (272,500);
}
);
layerId = m003;
shapes = (
{
closed = 1;
nodes = (
(341,148,o),
(445,190,o),
(503,276,o),
(503,330,qs),
(503,384,o),
(445,468,o),
(341,512,o),
(275,512,qs),
(209,512,o),
(105,468,o),
(47,384,o),
(47,330,qs),
(47,276,o),
(105,190,o),
(209,148,o),
(275,148,qs)
);
},
{
closed = 1;
nodes = (
(251,256,o),
(215,270,o),
(193,306,o),
(193,330,qs),
(193,354,o),
(215,390,o),
(251,404,o),
(275,404,qs),
(299,404,o),
(335,390,o),
(357,354,o),
(357,330,q),
(357,306,o),
(335,270,o),
(299,256,o),
(275,256,qs)
);
},
{
closed = 1;
nodes = (
(166,94,o),
(24,17,o),
(24,-70,qs),
(24,-157,o),
(166,-234,o),
(275,-234,qs),
(384,-234,o),
(526,-157,o),
(526,-70,qs),
(526,18,o),
(385,94,o),
(275,94,qs)
);
},
{
closed = 1;
nodes = (
(152,-43,o),
(209,-20,o),
(275,-20,qs),
(341,-20,o),
(398,-43,o),
(398,-70,qs),
(398,-97,o),
(341,-120,o),
(275,-120,qs),
(209,-120,o),
(152,-97,o),
(152,-70,qs)
);
},
{
closed = 1;
nodes = (
(215,209,l),
(215,20,l),
(335,20,l),
(335,209,l)
);
}
);
width = 550;
}
);
metricLeft = o;
metricRight = o;
userData = {
KernOnName = g;
};
},
{
glyphname = h;
kernLeft = b;
kernRight = a;
lastChange = "2025-05-22 16:47:10 +0000";
layers = (
{
anchors = (
{
name = bottom;
pos = (288,0);
},
{
name = top;
pos = (110,720);
}
);
annotations = (
{
pos = (377.372,368.1);
type = Plus;
}
);
hints = (
{
horizontal = 1;
place = (0,21);
target = up;
type = BottomGhost;
},
{
horizontal = 1;
place = (512,20);
type = Stem;
},
{
horizontal = 1;
place = (720,-20);
target = down;
type = TopGhost;
},
{
place = (97,20);
type = Stem;
},
{
place = (455,20);
type = Stem;
}
);
layerId = m01;
shapes = (
{
closed = 1;
nodes = (
(120,0,l),
(120,302,ls),
(120,378,o),
(174,460,o),
(247,492,o),
(290,492,qs),
(339,492,o),
(407,456,o),
(442,386,o),
(442,322,qs),
(442,0,l),
(462,0,l),
(462,326,ls),
(462,396,o),
(422,471,o),
(346,512,o),
(290,512,qs),
(239,512,o),
(165,476,o),
(126,424,o),
(120,400,q),
(120,720,l),
(100,720,l),
(100,0,l)
);
}
);
width = 560;
},
{
anchors = (
{
name = bottom;
pos = (305,0);
},
{
name = top;
pos = (128,720);
}
);
hints = (
{
place = (52,142);
type = Stem;
}
);
layerId = "CCD41F9B-A064-4484-B59C-AEE566599C6A";
shapes = (
{
closed = 1;
nodes = (
(198,0,l),
(198,260,ls),
(198,312,o),
(226,362,o),
(270,382,o),
(294,382,qs),
(320,382,o),
(351,362,o),
(364,328,o),
(364,300,qs),
(364,0,l),
(506,0,l),
(506,314,ls),
(506,386,o),
(468,466,o),
(400,510,o),
(342,510,qs),
(312,510,o),
(252,486,o),
(210,442,o),
(198,416,q),
(198,720,l),
(56,720,l),
(56,0,l)
);
}
);
width = 560;
},
{
anchors = (
{
name = bottom;
pos = (305,0);
},
{
name = top;
pos = (128,720);
}
);
hints = (
{
place = (52,142);
type = Stem;
}
);
layerId = m003;
shapes = (
{
closed = 1;
nodes = (
(198,0,l),
(198,260,ls),
(198,312,o),
(226,362,o),
(270,382,o),
(294,382,qs),
(320,382,o),
(351,362,o),
(364,328,o),
(364,300,qs),
(364,0,l),
(506,0,l),
(506,314,ls),
(506,386,o),
(468,466,o),
(400,510,o),
(342,510,qs),
(312,510,o),
(252,486,o),
(210,442,o),
(198,416,q),
(198,720,l),
(56,720,l),
(56,0,l)
);
}
);
width = 560;
}
);
metricLeft = n;
metricRight = n;
unicode = 104;
},
{
glyphname = idotless;
kernLeft = m;
kernRight = g;
lastChange = "2025-05-22 16:47:10 +0000";
layers = (
{
anchors = (
{
name = bottom;
pos = (128,0);
},
{
name = ogonek;
pos = (132,0);
},
{
name = top;
pos = (128,500);
}
);
layerId = m01;
shapes = (
{
closed = 1;
nodes = (
(138,0,l),
(138,500,l),
(118,500,l),
(118,0,l)
);
}
);
width = 256;
},
{
anchors = (
{
name = bottom;
pos = (128,0);
},
{
name = ogonek;
pos = (187,0);
},
{
name = top;
pos = (128,500);
}
);
layerId = "CCD41F9B-A064-4484-B59C-AEE566599C6A";
shapes = (
{
closed = 1;
nodes = (
(199,0,l),
(199,500,l),
(57,500,l),
(57,0,l)
);
}
);
width = 256;
},
{
anchors = (
{
name = bottom;
pos = (128,0);
},
{
name = ogonek;
pos = (187,0);
},
{
name = top;
pos = (128,500);
}
);
layerId = m003;
shapes = (
{
closed = 1;
nodes = (
(199,0,l),
(199,500,l),
(57,500,l),
(57,0,l)
);
}
);
width = 256;
}
);
unicode = 305;
},
{
glyphname = jdotless;
kernLeft = b;
lastChange = "2025-05-22 16:47:10 +0000";
layers = (
{
anchors = (
{
name = bottom;
pos = (127,-200);
},
{
name = top;
pos = (128,500);
}
);
layerId = m01;
shapes = (
{
closed = 1;
nodes = (
(24,-200,ls),
(82,-200,o),
(138,-143,o),
(138,-80,qs),
(138,500,l),
(118,500,l),
(118,-74,ls),
(118,-131,o),
(73,-180,o),
(24,-180,qs),
(16,-180,l),
(16,-200,l)
);
}
);
width = 256;
},
{
anchors = (
{
name = bottom;
pos = (112,-200);
},
{
name = top;
pos = (128,500);
}
);
layerId = "CCD41F9B-A064-4484-B59C-AEE566599C6A";
shapes = (
{
closed = 1;
nodes = (
(51,-200,ls),
(125,-200,o),
(199,-132,o),
(199,-60,qs),
(199,500,l),
(57,500,l),
(57,-38,ls),
(57,-62,o),
(33,-86,o),
(9,-86,qs),
(-20,-86,l),
(-20,-200,l)
);
}
);
width = 256;
},
{
anchors = (
{
name = bottom;
pos = (112,-200);
},
{
name = top;
pos = (128,500);
}
);
layerId = m003;
shapes = (
{
closed = 1;
nodes = (
(51,-200,ls),
(125,-200,o),
(199,-132,o),
(199,-60,qs),
(199,500,l),
(57,500,l),
(57,-38,ls),
(57,-62,o),
(33,-86,o),
(9,-86,qs),
(-20,-86,l),
(-20,-200,l)
);
}
);
width = 256;
}
);
metricRight = idotless;
unicode = 567;
},
{
color = 7;
glyphname = jdotless.ss02;
kernLeft = b;
lastChange = "2025-05-22 16:47:10 +0000";
layers = (
{
anchors = (
{
name = bottom;
pos = (129,-240);
},
{
name = top;
pos = (128,500);
}
);
layerId = m01;
shapes = (
{
closed = 1;
nodes = (
(138,-200,l),
(138,500,l),
(118,500,l),
(118,-200,l)
);
}
);
width = 256;
},
{
anchors = (
{
name = bottom;
pos = (128,-200);
},
{
name = top;
pos = (128,500);
}
);
layerId = "CCD41F9B-A064-4484-B59C-AEE566599C6A";
shapes = (
{
closed = 1;
nodes = (
(199,-200,l),
(199,500,l),
(57,500,l),
(57,-200,l)
);
}
);
width = 256;
},
{
anchors = (
{
name = bottom;
pos = (128,-200);
},
{
name = top;
pos = (128,500);
}
);
layerId = m003;
shapes = (
{
closed = 1;
nodes = (
(199,-200,l),
(199,500,l),
(57,500,l),
(57,-200,l)
);
}
);
width = 256;
}
);
metricLeft = idotless;
metricRight = idotless;
},
{
glyphname = k;
kernLeft = b;
kernRight = k;
lastChange = "2025-05-22 16:47:10 +0000";
layers = (
{
anchors = (
{
name = bottom;
pos = (244,0);
},
{
name = top;
pos = (224,720);
}
);
layerId = m01;
shapes = (
{
closed = 1;
nodes = (
(120,0,l),
(120,183,l),
(242,285,l),
(476,0,l),
(502,0,l),
(257,297,l),
(494,500,l),
(466,500,l),
(120,208,l),
(120,720,l),
(100,720,l),
(100,0,l)
);
}
);
width = 540;
},
{
anchors = (
{
name = bottom;
pos = (240,0);
},
{
name = top;
pos = (291,720);
}
);
layerId = "CCD41F9B-A064-4484-B59C-AEE566599C6A";
shapes = (
{
closed = 1;
nodes = (
(196,0,l),
(196,176,l),
(228,210,l),
(363,0,l),
(521,0,l),
(332,294,l),
(524,500,l),
(361,500,l),
(196,322,l),
(196,720,l),
(56,720,l),
(56,0,l)
);
}
);
width = 540;
},
{
anchors = (
{
name = bottom;
pos = (240,0);
},
{
name = top;
pos = (291,720);
}
);
layerId = m003;
shapes = (
{
closed = 1;
nodes = (
(196,0,l),
(196,176,l),
(228,210,l),
(363,0,l),
(521,0,l),
(332,294,l),
(524,500,l),
(361,500,l),
(196,322,l),
(196,720,l),
(56,720,l),
(56,0,l)
);
}
);
width = 540;
}
);
metricLeft = n;
unicode = 107;
userData = {
KernOnName = k;
};
},
{
color = 7;
glyphname = k.ss02;
kernLeft = b;
kernRight = k;
lastChange = "2025-08-13 17:21:33 +0000";
layers = (
{
anchors = (
{
name = bottom;
pos = (244,0);
},
{
name = top;
pos = (224,720);
}
);
layerId = m01;
shapes = (
{
closed = 1;
nodes = (
(120,0,l),
(120,248,l),
(274,248,l),
(274,268,l),
(120,268,l),
(120,720,l),
(100,720,l),
(100,0,l)
);
},
{
closed = 1;
nodes = (
(490,0,l),
(282,260,l),
(256,260,l),
(464,0,l)
);
},
{
closed = 1;
nodes = (
(282,258,l),
(490,500,l),
(464,500,l),
(256,258,l)
);
}
);
width = 530;
},
{
anchors = (
{
name = bottom;
pos = (240,0);
},
{
name = top;
pos = (291,720);
}
);
layerId = "CCD41F9B-A064-4484-B59C-AEE566599C6A";
shapes = (
{
closed = 1;
nodes = (
(196,0,l),
(196,196,l),
(278,196,l),
(278,310,l),
(196,310,l),
(196,720,l),
(56,720,l),
(56,0,l)
);
},
{
closed = 1;
nodes = (
(514,0,l),
(340,282,l),
(180,282,l),
(352,0,l)
);
},
{
closed = 1;
nodes = (
(328,238,l),
(506,500,l),
(358,500,l),
(182,238,l)
);
}
);
width = 530;
},
{
anchors = (
{
name = bottom;
pos = (240,0);
},
{
name = top;
pos = (291,720);
}
);
layerId = m003;
shapes = (
{
closed = 1;
nodes = (
(196,0,l),
(196,196,l),
(300,196,l),
(300,310,l),
(196,310,l),
(196,720,l),
(56,720,l),
(56,0,l)
);
},
{
closed = 1;
nodes = (
(514,0,l),
(340,282,l),
(180,282,l),
(352,0,l)
);
},
{
closed = 1;
nodes = (
(328,238,l),
(506,500,l),
(358,500,l),
(182,238,l)
);
}
);
width = 530;
}
);
metricLeft = n;
userData = {
KernOnName = k;
};
},
{
glyphname = kgreenlandic;
kernLeft = b;
kernRight = k;
lastChange = "2025-05-22 16:47:10 +0000";
layers = (
{
layerId = m01;
shapes = (
{
closed = 1;
nodes = (
(120,0,l),
(120,183,l),
(242,285,l),
(476,0,l),
(502,0,l),
(257,297,l),
(494,500,l),
(466,500,l),
(120,208,l),
(120,500,l),
(100,500,l),
(100,0,l)
);
}
);
width = 530;
},
{
layerId = "CCD41F9B-A064-4484-B59C-AEE566599C6A";
shapes = (
{
closed = 1;
nodes = (
(196,0,l),
(196,176,l),
(228,210,l),
(363,0,l),
(521,0,l),
(332,294,l),
(524,500,l),
(361,500,l),
(196,322,l),
(196,500,l),
(56,500,l),
(56,0,l)
);
}
);
width = 530;
},
{
layerId = m003;
shapes = (
{
closed = 1;
nodes = (
(196,0,l),
(196,176,l),
(228,210,l),
(363,0,l),
(521,0,l),
(332,294,l),
(524,500,l),
(361,500,l),
(196,322,l),
(196,500,l),
(56,500,l),
(56,0,l)
);
}
);
width = 530;
}
);
unicode = 312;
},
{
glyphname = l;
kernLeft = b;
lastChange = "2025-05-22 16:47:10 +0000";
layers = (
{
anchors = (
{
name = bottom;
pos = (128,0);
},
{
name = top;
pos = (128,720);
},
{
name = topright;
pos = (178,720);
}
);
layerId = m01;
shapes = (
{
closed = 1;
nodes = (
(138,0,l),
(138,720,l),
(118,720,l),
(118,0,l)
);
}
);
width = 256;
},
{
anchors = (
{
name = bottom;
pos = (128,0);
},
{
name = top;
pos = (127,720);
},
{
name = topright;
pos = (210,720);
}
);
layerId = "CCD41F9B-A064-4484-B59C-AEE566599C6A";
shapes = (
{
closed = 1;
nodes = (
(199,0,l),
(199,720,l),
(57,720,l),
(57,0,l)
);
}
);
width = 256;
},
{
anchors = (
{
name = bottom;
pos = (128,0);
},
{
name = top;
pos = (127,720);
},
{
name = topright;
pos = (210,720);
}
);
layerId = m003;
shapes = (
{
closed = 1;
nodes = (
(199,0,l),
(199,720,l),
(57,720,l),
(57,0,l)
);
}
);
width = 256;
}
);
unicode = 108;
},
{
color = 9;
glyphname = l.ss01;
kernLeft = b;
lastChange = "2025-05-22 16:47:10 +0000";
layers = (
{
anchors = (
{
name = bottom;
pos = (148,0);
},
{
name = topright;
pos = (178,720);
}
);
layerId = m01;
shapes = (
{
closed = 1;
nodes = (
(252,0,l),
(252,20,l),
(202,20,ls),
(170,20,o),
(128,53,o),
(128,90,qs),
(128,720,l),
(108,720,l),
(108,84,ls),
(108,44,o),
(159,0,o),
(202,0,qs)
);
}
);
width = 300;
},
{
anchors = (
{
name = bottom;
pos = (128,0);
},
{
name = topright;
pos = (211,720);
}
);
layerId = "CCD41F9B-A064-4484-B59C-AEE566599C6A";
shapes = (
{
closed = 1;
nodes = (
(288,0,l),
(288,114,l),
(242,114,ls),
(218,114,o),
(194,138,o),
(194,162,qs),
(194,720,l),
(52,720,l),
(52,140,ls),
(52,68,o),
(126,0,o),
(200,0,qs)
);
}
);
width = 300;
},
{
anchors = (
{
name = bottom;
pos = (128,0);
},
{
name = topright;
pos = (211,720);
}
);
layerId = m003;
shapes = (
{
closed = 1;
nodes = (
(288,0,l),
(288,114,l),
(242,114,ls),
(218,114,o),
(194,138,o),
(194,162,qs),
(194,720,l),
(52,720,l),
(52,140,ls),
(52,68,o),
(126,0,o),
(200,0,qs)
);
}
);
width = 300;
}
);
},
{
glyphname = ldot;
kernLeft = b;
lastChange = "2025-08-10 08:48:56 +0000";
layers = (
{
anchors = (
{
name = top;
pos = (282,360);
}
);
layerId = m01;
shapes = (
{
alignment = -1;
ref = l;
},
{
closed = 1;
nodes = (
(162,346,o),
(178,330,o),
(190,330,qs),
(194,330,ls),
(206,330,o),
(222,346,o),
(222,360,q),
(222,374,o),
(206,390,o),
(194,390,qs),
(190,390,ls),
(178,390,o),
(162,374,o),
(162,360,q)
);
}
);
width = 382;
},
{
anchors = (
{
name = top;
pos = (373.482,361.322);
}
);
layerId = "CCD41F9B-A064-4484-B59C-AEE566599C6A";
shapes = (
{
alignment = -1;
ref = l;
},
{
closed = 1;
nodes = (
(212,319,o),
(258,268,o),
(294,268,qs),
(302,268,ls),
(338,268,o),
(381,321,o),
(381,361,q),
(381,401,o),
(335,452,o),
(299,452,qs),
(291,452,ls),
(255,452,o),
(212,399,o),
(212,359,q)
);
}
);
width = 382;
},
{
anchors = (
{
name = top;
pos = (373.482,361.322);
}
);
layerId = m003;
shapes = (
{
alignment = -1;
ref = l;
},
{
closed = 1;
nodes = (
(212,319,o),
(258,268,o),
(294,268,qs),
(302,268,ls),
(338,268,o),
(381,321,o),
(381,361,q),
(381,401,o),
(335,452,o),
(299,452,qs),
(291,452,ls),
(255,452,o),
(212,399,o),
(212,359,q)
);
}
);
width = 382;
}
);
metricLeft = l;
unicode = 320;
},
{
color = 9;
glyphname = ldot.ss01;
kernLeft = b;
lastChange = "2025-08-10 09:06:04 +0000";
layers = (
{
layerId = m01;
shapes = (
{
alignment = -1;
pos = (10,0);
ref = l.ss01;
},
{
closed = 1;
nodes = (
(172,346,o),
(188,330,o),
(200,330,qs),
(204,330,ls),
(216,330,o),
(232,346,o),
(232,360,q),
(232,374,o),
(216,390,o),
(204,390,qs),
(200,390,ls),
(188,390,o),
(172,374,o),
(172,360,q)
);
}
);
width = 390;
},
{
layerId = "CCD41F9B-A064-4484-B59C-AEE566599C6A";
shapes = (
{
alignment = -1;
pos = (5,0);
ref = l.ss01;
},
{
closed = 1;
nodes = (
(220,319,o),
(266,268,o),
(302,268,qs),
(310,268,ls),
(346,268,o),
(389,321,o),
(389,361,q),
(389,401,o),
(343,452,o),
(307,452,qs),
(299,452,ls),
(263,452,o),
(220,399,o),
(220,359,q)
);
}
);
width = 390;
},
{
layerId = m003;
shapes = (
{
alignment = -1;
pos = (5,0);
ref = l.ss01;
},
{
closed = 1;
nodes = (
(220,319,o),
(266,268,o),
(302,268,qs),
(310,268,ls),
(346,268,o),
(389,321,o),
(389,361,q),
(389,401,o),
(343,452,o),
(307,452,qs),
(299,452,ls),
(263,452,o),
(220,399,o),
(220,359,q)
);
}
);
width = 390;
}
);
metricLeft = l;
},
{
glyphname = lslash;
kernLeft = b;
lastChange = "2025-05-22 16:47:10 +0000";
layers = (
{
layerId = m01;
shapes = (
{
closed = 1;
nodes = (
(270,419,l),
(270,441,l),
(30,341,l),
(30,319,l)
);
},
{
alignment = -1;
pos = (22,0);
ref = l;
}
);
width = 300;
},
{
layerId = "CCD41F9B-A064-4484-B59C-AEE566599C6A";
shapes = (
{
closed = 1;
nodes = (
(300,368,l),
(300,482,l),
(0,352,l),
(0,238,l)
);
},
{
alignment = -1;
pos = (21,0);
ref = l;
}
);
width = 300;
},
{
layerId = m003;
shapes = (
{
closed = 1;
nodes = (
(300,368,l),
(300,482,l),
(0,352,l),
(0,238,l)
);
},
{
alignment = -1;
pos = (21,0);
ref = l;
}
);
width = 300;
}
);
unicode = 322;
},
{
color = 9;
glyphname = lslash.ss01;
kernLeft = b;
lastChange = "2025-05-22 16:47:10 +0000";
layers = (
{
layerId = m01;
shapes = (
{
closed = 1;
nodes = (
(270,419,l),
(270,441,l),
(30,341,l),
(30,319,l)
);
},
{
alignment = -1;
pos = (22,0);
ref = l.ss01;
}
);
width = 300;
},
{
layerId = "CCD41F9B-A064-4484-B59C-AEE566599C6A";
shapes = (
{
closed = 1;
nodes = (
(300,368,l),
(300,482,l),
(0,352,l),
(0,238,l)
);
},
{
alignment = -1;
pos = (21,0);
ref = l.ss01;
}
);
width = 300;
},
{
layerId = m003;
shapes = (
{
closed = 1;
nodes = (
(300,368,l),
(300,482,l),
(0,352,l),
(0,238,l)
);
},
{
alignment = -1;
pos = (21,0);
ref = l.ss01;
}
);
width = 300;
}
);
},
{
glyphname = m;
kernLeft = m;
kernRight = a;
lastChange = "2025-05-22 16:47:10 +0000";
layers = (
{
anchors = (
{
name = bottom;
pos = (395,0);
},
{
name = top;
pos = (425,500);
}
);
layerId = m01;
shapes = (
{
closed = 1;
nodes = (
(120,0,l),
(120,344,ls),
(120,411,o),
(206,492,o),
(274,492,qs),
(344,492,o),
(411,418,o),
(411,340,qs),
(411,0,l),
(431,0,l),
(431,340,ls),
(431,414,o),
(512,492,o),
(587,492,qs),
(654,492,o),
(722,415,o),
(722,342,qs),
(722,0,l),
(742,0,l),
(742,346,ls),
(742,426,o),
(664,512,o),
(589,512,qs),
(525,512,o),
(437,457,o),
(423,409,q),
(411,457,o),
(336,512,o),
(276,512,qs),
(220,512,o),
(132,459,o),
(120,420,q),
(120,500,l),
(100,500,l),
(100,0,l)
);
}
);
width = 840;
},
{
anchors = (
{
name = bottom;
pos = (420,0);
},
{
name = top;
pos = (420,500);
}
);
layerId = "CCD41F9B-A064-4484-B59C-AEE566599C6A";
shapes = (
{
closed = 1;
nodes = (
(198,0,l),
(198,280,ls),
(198,329,o),
(249,387,o),
(291,387,qs),
(322,387,o),
(350,346,o),
(350,306,qs),
(350,0,l),
(492,0,l),
(492,280,ls),
(492,329,o),
(541,387,o),
(583,387,qs),
(615,387,o),
(644,346,o),
(644,306,qs),
(644,0,l),
(786,0,l),
(786,323,ls),
(786,415,o),
(709,510,o),
(627,510,qs),
(577,510,o),
(497,458,o),
(473,406,q),
(465,458,o),
(397,510,o),
(344,510,qs),
(292,510,o),
(214,452,o),
(198,408,q),
(198,500,l),
(56,500,l),
(56,0,l)
);
}
);
width = 840;
},
{
anchors = (
{
name = bottom;
pos = (420,0);
},
{
name = top;
pos = (420,500);
}
);
layerId = m003;
shapes = (
{
closed = 1;
nodes = (
(198,0,l),
(198,280,ls),
(198,329,o),
(249,387,o),
(291,387,qs),
(322,387,o),
(350,346,o),
(350,306,qs),
(350,0,l),
(492,0,l),
(492,280,ls),
(492,329,o),
(541,387,o),
(583,387,qs),
(615,387,o),
(644,346,o),
(644,306,qs),
(644,0,l),
(786,0,l),
(786,323,ls),
(786,415,o),
(709,510,o),
(627,510,qs),
(577,510,o),
(497,458,o),
(473,406,q),
(465,458,o),
(397,510,o),
(344,510,qs),
(292,510,o),
(214,452,o),
(198,408,q),
(198,500,l),
(56,500,l),
(56,0,l)
);
}
);
width = 840;
}
);
metricLeft = n;
metricRight = n;
unicode = 109;
},
{
glyphname = n;
kernLeft = m;
kernRight = a;
lastChange = "2025-05-22 16:47:10 +0000";
layers = (
{
anchors = (
{
name = bottom;
pos = (280,0);
},
{
name = top;
pos = (280,500);
}
);
hints = (
{
origin = (0,22);
target = (0,21);
type = Stem;
},
{
origin = (0,10);
target = (0,11);
type = Stem;
},
{
horizontal = 1;
origin = (0,16);
target = (0,5);
type = Stem;
}
);
layerId = m01;
shapes = (
{
closed = 1;
nodes = (
(120,0,l),
(120,302,ls),
(120,378,o),
(174,460,o),
(247,492,o),
(290,492,qs),
(339,492,o),
(407,456,o),
(442,386,o),
(442,322,qs),
(442,0,l),
(462,0,l),
(462,326,ls),
(462,396,o),
(422,471,o),
(346,512,o),
(290,512,qs),
(239,512,o),
(165,476,o),
(126,424,o),
(120,400,q),
(120,500,l),
(100,500,l),
(100,0,l)
);
}
);
width = 560;
},
{
anchors = (
{
name = bottom;
pos = (288,0);
},
{
name = top;
pos = (288,500);
}
);
layerId = "CCD41F9B-A064-4484-B59C-AEE566599C6A";
shapes = (
{
closed = 1;
nodes = (
(198,0,l),
(198,260,ls),
(198,312,o),
(226,362,o),
(270,382,o),
(294,382,qs),
(320,382,o),
(351,362,o),
(364,328,o),
(364,300,qs),
(364,0,l),
(506,0,l),
(506,314,ls),
(506,386,o),
(468,466,o),
(400,510,o),
(342,510,qs),
(312,510,o),
(252,486,o),
(210,442,o),
(198,416,q),
(198,500,l),
(56,500,l),
(56,0,l)
);
}
);
width = 560;
},
{
anchors = (
{
name = bottom;
pos = (288,0);
},
{
name = top;
pos = (288,500);
}
);
layerId = m003;
shapes = (
{
closed = 1;
nodes = (
(198,0,l),
(198,260,ls),
(198,312,o),
(226,362,o),
(270,382,o),
(294,382,qs),
(320,382,o),
(351,362,o),
(364,328,o),
(364,300,qs),
(364,0,l),
(506,0,l),
(506,314,ls),
(506,386,o),
(468,466,o),
(400,510,o),
(342,510,qs),
(312,510,o),
(252,486,o),
(210,442,o),
(198,416,q),
(198,500,l),
(56,500,l),
(56,0,l)
);
}
);
width = 560;
}
);
unicode = 110;
userData = {
KernOnName = n;
};
},
{
glyphname = o;
kernLeft = c;
kernRight = b;
lastChange = "2025-05-22 16:47:10 +0000";
layers = (
{
anchors = (
{
name = bottom;
pos = (280,0);
},
{
name = ogonek;
pos = (368,10);
},
{
name = top;
pos = (280,500);
}
);
layerId = m01;
shapes = (
{
closed = 1;
nodes = (
(346,-12,o),
(440,50,o),
(492,164,o),
(492,250,qs),
(492,336,o),
(440,450,o),
(346,512,o),
(280,512,qs),
(214,512,o),
(120,450,o),
(68,336,o),
(68,250,qs),
(68,164,o),
(120,50,o),
(214,-12,o),
(280,-12,qs)
);
},
{
closed = 1;
nodes = (
(220,8,o),
(136,64,o),
(88,170,o),
(88,250,qs),
(88,330,o),
(136,436,o),
(220,492,o),
(280,492,qs),
(340,492,o),
(424,436,o),
(472,330,o),
(472,250,qs),
(472,170,o),
(424,64,o),
(340,8,o),
(280,8,qs)
);
}
);
width = 560;
},
{
anchors = (
{
name = bottom;
pos = (280,0);
},
{
name = ogonek;
pos = (364,10);
},
{
name = top;
pos = (280,500);
}
);
layerId = "CCD41F9B-A064-4484-B59C-AEE566599C6A";
shapes = (
{
closed = 1;
nodes = (
(356,-12,o),
(474,56,o),
(536,178,o),
(536,250,qs),
(536,322,o),
(474,444,o),
(356,512,o),
(280,512,qs),
(204,512,o),
(86,444,o),
(24,322,o),
(24,250,qs),
(24,178,o),
(86,56,o),
(204,-12,o),
(280,-12,qs)
);
},
{
closed = 1;
nodes = (
(244,108,o),
(196,144,o),
(170,206,o),
(170,250,qs),
(170,294,o),
(196,356,o),
(244,392,o),
(280,392,qs),
(316,392,o),
(364,356,o),
(390,294,o),
(390,250,qs),
(390,206,o),
(364,144,o),
(316,108,o),
(280,108,qs)
);
}
);
width = 560;
},
{
anchors = (
{
name = bottom;
pos = (280,0);
},
{
name = ogonek;
pos = (364,10);
},
{
name = top;
pos = (280,500);
}
);
layerId = m003;
shapes = (
{
closed = 1;
nodes = (
(356,-12,o),
(474,56,o),
(536,178,o),
(536,250,qs),
(536,322,o),
(474,444,o),
(356,512,o),
(280,512,qs),
(204,512,o),
(86,444,o),
(24,322,o),
(24,250,qs),
(24,178,o),
(86,56,o),
(204,-12,o),
(280,-12,qs)
);
},
{
closed = 1;
nodes = (
(244,108,o),
(196,144,o),
(170,206,o),
(170,250,qs),
(170,294,o),
(196,356,o),
(244,392,o),
(280,392,qs),
(316,392,o),
(364,356,o),
(390,294,o),
(390,250,qs),
(390,206,o),
(364,144,o),
(316,108,o),
(280,108,qs)
);
}
);
width = 560;
}
);
unicode = 111;
userData = {
KernOnName = o;
};
},
{
glyphname = oslash;
kernLeft = c;
kernRight = b;
lastChange = "2025-05-22 16:47:10 +0000";
layers = (
{
anchors = (
{
name = bottom;
pos = (280,0);
},
{
name = ogonek;
pos = (368,10);
},
{
name = top;
pos = (280,500);
}
);
layerId = m01;
shapes = (
{
closed = 1;
nodes = (
(95,0,l),
(490,500,l),
(465,500,l),
(70,0,l)
);
},
{
ref = o;
}
);
width = 560;
},
{
anchors = (
{
name = bottom;
pos = (280,0);
},
{
name = ogonek;
pos = (364,10);
},
{
name = top;
pos = (280,500);
}
);
layerId = "CCD41F9B-A064-4484-B59C-AEE566599C6A";
shapes = (
{
closed = 1;
nodes = (
(134,0,l),
(518,500,l),
(430,500,l),
(46,0,l)
);
},
{
ref = o;
}
);
width = 560;
},
{
anchors = (
{
name = bottom;
pos = (280,0);
},
{
name = ogonek;
pos = (364,10);
},
{
name = top;
pos = (280,500);
}
);
layerId = m003;
shapes = (
{
closed = 1;
nodes = (
(134,0,l),
(518,500,l),
(430,500,l),
(46,0,l)
);
},
{
ref = o;
}
);
width = 560;
}
);
metricLeft = o;
metricRight = o;
unicode = 248;
},
{
glyphname = oe;
kernLeft = c;
kernRight = e;
lastChange = "2025-05-22 16:47:10 +0000";
layers = (
{
anchors = (
{
name = top;
pos = (424,500);
}
);
layerId = m01;
shapes = (
{
closed = 1;
nodes = (
(288,-12,o),
(360,26,o),
(414,104,o),
(424,158,q),
(434,104,o),
(488,26,o),
(565,-12,o),
(613,-12,qs),
(665,-12,o),
(738,22,o),
(782,102,o),
(782,130,q),
(762,130,l),
(762,108,o),
(724,38,o),
(661,8,o),
(613,8,qs),
(557,8,o),
(478,64,o),
(434,172,o),
(434,252,q),
(794,252,l),
(794,272,ls),
(794,338,o),
(756,448,o),
(671,512,o),
(611,512,qs),
(563,512,o),
(488,475,o),
(434,397,o),
(424,343,q),
(414,397,o),
(360,475,o),
(288,512,o),
(240,512,qs),
(178,512,o),
(94,450,o),
(46,336,o),
(46,250,qs),
(46,164,o),
(94,50,o),
(178,-12,o),
(240,-12,qs)
);
},
{
closed = 1;
nodes = (
(184,8,o),
(110,64,o),
(66,170,o),
(66,250,qs),
(66,330,o),
(110,436,o),
(184,492,o),
(240,492,qs),
(296,492,o),
(370,436,o),
(414,330,o),
(414,250,qs),
(414,170,o),
(370,64,o),
(296,8,o),
(240,8,qs)
);
},
{
closed = 1;
nodes = (
(434,330,o),
(478,436,o),
(555,492,o),
(611,492,qs),
(659,492,o),
(731,444,o),
(774,351,o),
(774,272,q),
(434,272,l)
);
}
);
width = 840;
},
{
anchors = (
{
name = top;
pos = (426,500);
}
);
layerId = "CCD41F9B-A064-4484-B59C-AEE566599C6A";
shapes = (
{
closed = 1;
nodes = (
(300,-12,o),
(366,14,o),
(404,50,o),
(416,72,q),
(428,50,o),
(480,12,o),
(551,-12,o),
(599,-12,qs),
(667,-12,o),
(761,40,o),
(812,122,o),
(812,160,q),
(680,160,l),
(680,144,o),
(662,115,o),
(627,94,o),
(597,94,q),
(566,94,o),
(515,122,o),
(488,174,o),
(488,210,q),
(814,210,l),
(814,260,ls),
(814,335,o),
(762,451,o),
(659,512,o),
(597,512,qs),
(551,512,o),
(482,490,o),
(430,448,o),
(418,428,q),
(406,448,o),
(363,486,o),
(300,512,o),
(254,512,qs),
(188,512,o),
(84,450,o),
(26,331,o),
(26,250,qs),
(26,169,o),
(84,50,o),
(188,-12,o),
(254,-12,qs)
);
},
{
closed = 1;
nodes = (
(226,108,o),
(184,144,o),
(164,206,o),
(164,250,qs),
(164,294,o),
(184,356,o),
(226,392,o),
(260,392,qs),
(294,392,o),
(336,356,o),
(356,294,o),
(356,250,qs),
(356,206,o),
(336,144,o),
(294,108,o),
(260,108,qs)
);
},
{
closed = 1;
nodes = (
(492,336,o),
(521,388,o),
(563,412,o),
(591,412,qs),
(623,412,o),
(661,386,o),
(684,338,o),
(684,298,q),
(490,298,l)
);
}
);
width = 840;
},
{
anchors = (
{
name = top;
pos = (426,500);
}
);
layerId = m003;
shapes = (
{
closed = 1;
nodes = (
(300,-12,o),
(366,14,o),
(404,50,o),
(416,72,q),
(428,50,o),
(480,12,o),
(551,-12,o),
(599,-12,qs),
(667,-12,o),
(761,40,o),
(812,122,o),
(812,160,q),
(680,160,l),
(680,144,o),
(662,115,o),
(627,94,o),
(597,94,q),
(566,94,o),
(515,122,o),
(488,174,o),
(488,210,q),
(814,210,l),
(814,260,ls),
(814,335,o),
(762,451,o),
(659,512,o),
(597,512,qs),
(551,512,o),
(482,490,o),
(430,448,o),
(418,428,q),
(406,448,o),
(363,486,o),
(300,512,o),
(254,512,qs),
(188,512,o),
(84,450,o),
(26,331,o),
(26,250,qs),
(26,169,o),
(84,50,o),
(188,-12,o),
(254,-12,qs)
);
},
{
closed = 1;
nodes = (
(226,108,o),
(184,144,o),
(164,206,o),
(164,250,qs),
(164,294,o),
(184,356,o),
(226,392,o),
(260,392,qs),
(294,392,o),
(336,356,o),
(356,294,o),
(356,250,qs),
(356,206,o),
(336,144,o),
(294,108,o),
(260,108,qs)
);
},
{
closed = 1;
nodes = (
(492,336,o),
(521,388,o),
(563,412,o),
(591,412,qs),
(623,412,o),
(661,386,o),
(684,338,o),
(684,298,q),
(490,298,l)
);
}
);
width = 840;
}
);
unicode = 339;
},
{
glyphname = thorn;
kernLeft = b;
kernRight = b;
lastChange = "2025-05-22 16:47:10 +0000";
layers = (
{
anchors = (
{
name = bottom;
pos = (306,0);
},
{
name = top;
pos = (306,500);
}
);
layerId = m01;
shapes = (
{
closed = 1;
nodes = (
(120,-220,l),
(120,100,l),
(100,100,l),
(100,-220,l)
);
},
{
alignment = -1;
ref = b;
}
);
width = 584;
},
{
anchors = (
{
name = bottom;
pos = (332,0);
},
{
name = top;
pos = (334,500);
}
);
layerId = "CCD41F9B-A064-4484-B59C-AEE566599C6A";
shapes = (
{
closed = 1;
nodes = (
(198,-220,l),
(198,100,l),
(56,100,l),
(56,-220,l)
);
},
{
alignment = -1;
ref = b;
}
);
width = 584;
},
{
anchors = (
{
name = bottom;
pos = (332,0);
},
{
name = top;
pos = (334,500);
}
);
layerId = m003;
shapes = (
{
closed = 1;
nodes = (
(198,-220,l),
(198,100,l),
(56,100,l),
(56,-220,l)
);
},
{
alignment = -1;
ref = b;
}
);
width = 584;
}
);
metricLeft = n;
metricRight = o;
unicode = 254;
},
{
glyphname = r;
kernLeft = m;
kernRight = r;
lastChange = "2025-05-22 16:47:10 +0000";
layers = (
{
anchors = (
{
name = bottom;
pos = (118,0);
},
{
name = top;
pos = (198,500);
}
);
layerId = m01;
shapes = (
{
closed = 1;
nodes = (
(120,0,l),
(120,260,ls),
(120,367,o),
(206,480,o),
(290,480,qs),
(320,480,l),
(320,500,l),
(290,500,ls),
(224,500,o),
(136,437,o),
(120,380,q),
(120,500,l),
(100,500,l),
(100,0,l)
);
}
);
width = 370;
},
{
anchors = (
{
name = bottom;
pos = (126,0);
},
{
name = top;
pos = (198,500);
}
);
layerId = "CCD41F9B-A064-4484-B59C-AEE566599C6A";
shapes = (
{
closed = 1;
nodes = (
(198,0,l),
(198,250,ls),
(198,306,o),
(258,366,o),
(314,366,qs),
(350,366,l),
(350,500,l),
(328,500,ls),
(281,500,o),
(211,446,o),
(198,400,q),
(198,500,l),
(56,500,l),
(56,0,l)
);
}
);
width = 370;
},
{
anchors = (
{
name = bottom;
pos = (126,0);
},
{
name = top;
pos = (198,500);
}
);
layerId = m003;
shapes = (
{
closed = 1;
nodes = (
(198,0,l),
(198,250,ls),
(198,306,o),
(258,366,o),
(314,366,qs),
(350,366,l),
(350,500,l),
(328,500,ls),
(281,500,o),
(211,446,o),
(198,400,q),
(198,500,l),
(56,500,l),
(56,0,l)
);
}
);
width = 370;
}
);
metricLeft = n;
unicode = 114;
userData = {
KernOnName = r;
};
},
{
color = 7;
glyphname = r.ss02;
kernLeft = m;
kernRight = r;
lastChange = "2025-05-22 16:47:10 +0000";
layers = (
{
anchors = (
{
name = bottom;
pos = (118,0);
},
{
name = top;
pos = (198,500);
}
);
layerId = m01;
shapes = (
{
closed = 1;
nodes = (
(120,0,l),
(120,376,ls),
(120,430,o),
(168,480,o),
(220,480,qs),
(320,480,l),
(320,500,l),
(220,500,ls),
(158,500,o),
(100,440,o),
(100,378,q),
(100,0,l)
);
}
);
width = 370;
},
{
anchors = (
{
name = bottom;
pos = (126,0);
},
{
name = top;
pos = (198,500);
}
);
layerId = "CCD41F9B-A064-4484-B59C-AEE566599C6A";
shapes = (
{
closed = 1;
nodes = (
(198,0,l),
(198,324,ls),
(198,351,o),
(221,376,o),
(248,376,qs),
(350,376,l),
(350,500,l),
(210,500,ls),
(128,500,o),
(56,429,o),
(56,352,q),
(56,0,l)
);
}
);
width = 370;
},
{
anchors = (
{
name = bottom;
pos = (126,0);
},
{
name = top;
pos = (198,500);
}
);
layerId = m003;
shapes = (
{
closed = 1;
nodes = (
(198,0,l),
(198,324,ls),
(198,351,o),
(221,376,o),
(248,376,qs),
(350,376,l),
(350,500,l),
(210,500,ls),
(128,500,o),
(56,429,o),
(56,352,q),
(56,0,l)
);
}
);
width = 370;
}
);
metricLeft = n;
userData = {
KernOnName = r;
};
},
{
glyphname = rlongleg;
kernLeft = m;
kernRight = r;
lastChange = "2025-08-13 17:18:14 +0000";
layers = (
{
anchors = (
{
name = bottom;
pos = (118,0);
},
{
name = top;
pos = (198,500);
}
);
layerId = m01;
shapes = (
{
closed = 1;
nodes = (
(120,-200,l),
(120,260,ls),
(120,367,o),
(206,480,o),
(290,480,qs),
(320,480,l),
(320,500,l),
(290,500,ls),
(224,500,o),
(136,437,o),
(120,380,q),
(120,500,l),
(100,500,l),
(100,-200,l)
);
}
);
width = 370;
},
{
anchors = (
{
name = bottom;
pos = (126,0);
},
{
name = top;
pos = (198,500);
}
);
layerId = "CCD41F9B-A064-4484-B59C-AEE566599C6A";
shapes = (
{
closed = 1;
nodes = (
(198,-200,l),
(198,250,ls),
(198,306,o),
(258,366,o),
(314,366,qs),
(350,366,l),
(350,500,l),
(328,500,ls),
(281,500,o),
(211,446,o),
(198,400,q),
(198,500,l),
(56,500,l),
(56,-200,l)
);
}
);
width = 370;
},
{
anchors = (
{
name = bottom;
pos = (126,0);
},
{
name = top;
pos = (198,500);
}
);
layerId = m003;
shapes = (
{
closed = 1;
nodes = (
(198,-200,l),
(198,250,ls),
(198,306,o),
(258,366,o),
(314,366,qs),
(350,366,l),
(350,500,l),
(328,500,ls),
(281,500,o),
(211,446,o),
(198,400,q),
(198,500,l),
(56,500,l),
(56,-200,l)
);
}
);
width = 370;
}
);
metricLeft = r;
metricRight = r;
metricWidth = r;
unicode = 636;
},
{
color = 7;
glyphname = rlongleg.ss02;
kernLeft = m;
kernRight = r;
lastChange = "2025-08-13 17:17:35 +0000";
layers = (
{
anchors = (
{
name = bottom;
pos = (118,0);
},
{
name = top;
pos = (198,500);
}
);
layerId = m01;
shapes = (
{
closed = 1;
nodes = (
(120,-200,l),
(120,376,ls),
(120,430,o),
(168,480,o),
(220,480,qs),
(320,480,l),
(320,500,l),
(220,500,ls),
(158,500,o),
(100,440,o),
(100,378,q),
(100,-200,l)
);
}
);
width = 370;
},
{
anchors = (
{
name = bottom;
pos = (126,0);
},
{
name = top;
pos = (198,500);
}
);
layerId = "CCD41F9B-A064-4484-B59C-AEE566599C6A";
shapes = (
{
closed = 1;
nodes = (
(198,-200,l),
(198,324,ls),
(198,351,o),
(221,376,o),
(248,376,qs),
(350,376,l),
(350,500,l),
(210,500,ls),
(128,500,o),
(56,429,o),
(56,352,q),
(56,-200,l)
);
}
);
width = 370;
},
{
anchors = (
{
name = bottom;
pos = (126,0);
},
{
name = top;
pos = (198,500);
}
);
layerId = m003;
shapes = (
{
closed = 1;
nodes = (
(198,-200,l),
(198,324,ls),
(198,351,o),
(221,376,o),
(248,376,qs),
(350,376,l),
(350,500,l),
(210,500,ls),
(128,500,o),
(56,429,o),
(56,352,q),
(56,-200,l)
);
}
);
width = 370;
}
);
metricLeft = r;
metricRight = r;
metricWidth = r;
},
{
glyphname = s;
kernLeft = s;
kernRight = s;
lastChange = "2025-08-10 11:25:16 +0000";
layers = (
{
anchors = (
{
name = bottom;
pos = (248,0);
},
{
name = top;
pos = (248,500);
}
);
layerId = m01;
shapes = (
{
closed = 1;
nodes = (
(309,-12,o),
(386,21,o),
(426,84,o),
(426,126,qs),
(426,168,o),
(395,220,o),
(334,254,o),
(284,262,qs),
(227,271,ls),
(179,279,o),
(135,298,o),
(102,337,o),
(102,374,qs),
(102,410,o),
(142,464,o),
(206,492,o),
(248,492,qs),
(290,492,o),
(356,468,o),
(398,412,o),
(398,370,q),
(418,370,l),
(418,421,o),
(370,483,o),
(294,512,o),
(248,512,qs),
(202,512,o),
(127,479,o),
(82,416,o),
(82,374,qs),
(82,331,o),
(119,284,o),
(173,261,o),
(223,253,qs),
(280,244,ls),
(328,236,o),
(379,206,o),
(406,162,o),
(406,126,qs),
(406,90,o),
(370,36,o),
(304,8,o),
(252,8,qs),
(202,8,o),
(133,37,o),
(94,89,o),
(94,130,q),
(74,130,l),
(74,83,o),
(119,19,o),
(199,-12,o),
(252,-12,qs)
);
}
);
width = 500;
},
{
anchors = (
{
name = bottom;
pos = (245,0);
},
{
name = top;
pos = (245,500);
}
);
layerId = "CCD41F9B-A064-4484-B59C-AEE566599C6A";
shapes = (
{
closed = 1;
nodes = (
(312,-12,o),
(408,24,o),
(462,98,o),
(462,150,qs),
(462,194,o),
(422,260,o),
(347,296,o),
(295,305,qs),
(237,315,ls),
(211,319,o),
(193,329,o),
(180,346,o),
(180,360,qs),
(180,376,o),
(196,396,o),
(224,408,o),
(244,408,qs),
(268,408,o),
(299,395,o),
(315,364,o),
(315,340,q),
(453,340,l),
(449,392,o),
(397,470,o),
(308,512,o),
(244,512,qs),
(180,512,o),
(86,464,o),
(40,390,o),
(40,344,qs),
(40,300,o),
(78,240,o),
(144,207,o),
(206,196,qs),
(264,186,ls),
(286,182,o),
(308,172,o),
(322,154,o),
(322,140,qs),
(322,124,o),
(304,102,o),
(275,92,o),
(251,92,qs),
(227,92,o),
(195,104,o),
(176,136,o),
(176,160,q),
(40,160,l),
(42,100,o),
(98,22,o),
(192,-12,o),
(252,-12,qs)
);
}
);
width = 500;
},
{
anchors = (
{
name = bottom;
pos = (245,0);
},
{
name = top;
pos = (245,500);
}
);
layerId = m003;
shapes = (
{
closed = 1;
nodes = (
(312,-12,o),
(408,24,o),
(462,98,o),
(462,150,qs),
(462,194,o),
(422,260,o),
(347,296,o),
(295,305,qs),
(237,315,ls),
(211,319,o),
(193,329,o),
(180,346,o),
(180,360,qs),
(180,376,o),
(196,396,o),
(224,408,o),
(244,408,qs),
(268,408,o),
(299,391,o),
(315,360,o),
(315,340,q),
(453,340,l),
(449,392,o),
(397,470,o),
(308,512,o),
(244,512,qs),
(180,512,o),
(86,464,o),
(40,390,o),
(40,344,qs),
(40,300,o),
(78,240,o),
(144,207,o),
(206,196,qs),
(264,186,ls),
(286,182,o),
(308,172,o),
(322,154,o),
(322,140,qs),
(322,124,o),
(304,102,o),
(275,92,o),
(251,92,qs),
(227,92,o),
(195,104,o),
(176,136,o),
(176,160,q),
(40,160,l),
(42,100,o),
(98,22,o),
(192,-12,o),
(252,-12,qs)
);
}
);
width = 500;
}
);
unicode = 115;
userData = {
KernOnName = s;
};
},
{
glyphname = germandbls;
kernLeft = b;
lastChange = "2025-08-10 09:57:54 +0000";
layers = (
{
layerId = m01;
shapes = (
{
closed = 1;
nodes = (
(442,0,o),
(510,34,o),
(552,98,o),
(552,146,qs),
(552,198,o),
(486,270,o),
(430,296,qs),
(386,317,o),
(352,361,o),
(352,392,qs),
(352,423,o),
(397,482,o),
(444,554,o),
(444,592,qs),
(444,638,o),
(398,697,o),
(334,726,o),
(288,726,qs),
(230,726,o),
(147,678,o),
(100,588,o),
(100,506,qs),
(100,0,l),
(120,0,l),
(120,506,ls),
(120,580,o),
(161,662,o),
(238,706,o),
(288,706,qs),
(326,706,o),
(384,682,o),
(424,630,o),
(424,592,qs),
(424,560,o),
(381,496,o),
(332,427,o),
(332,392,qs),
(332,354,o),
(374,299,o),
(424,276,qs),
(472,254,o),
(532,192,o),
(532,146,qs),
(532,106,o),
(494,48,o),
(434,20,o),
(390,20,qs),
(290,20,l),
(290,0,l),
(390,0,ls)
);
}
);
width = 620;
},
{
layerId = "CCD41F9B-A064-4484-B59C-AEE566599C6A";
shapes = (
{
closed = 1;
nodes = (
(465,0,o),
(545,26,o),
(596,98,o),
(596,158,qs),
(596,206,o),
(551,284,o),
(493,329,qs),
(464,351,o),
(442,374,o),
(442,394,qs),
(442,414,o),
(486,476,o),
(500,526,o),
(500,558,qs),
(500,608,o),
(438,689,o),
(344,726,o),
(284,726,qs),
(224,726,o),
(118,678,o),
(56,570,o),
(56,470,qs),
(56,0,l),
(198,0,l),
(198,458,ls),
(198,532,o),
(222,586,o),
(260,608,o),
(284,608,qs),
(304,608,o),
(336,596,o),
(358,564,o),
(358,536,qs),
(358,514,o),
(338,472,o),
(300,404,o),
(300,366,qs),
(300,333,o),
(334,268,o),
(391,234,qs),
(431,210,o),
(456,176,o),
(456,160,qs),
(456,146,o),
(444,128,o),
(423,116,o),
(387,116,q),
(298,116,l),
(298,0,l),
(397,0,l)
);
}
);
width = 620;
},
{
layerId = m003;
shapes = (
{
closed = 1;
nodes = (
(465,0,o),
(545,26,o),
(596,98,o),
(596,158,qs),
(596,206,o),
(551,284,o),
(493,329,qs),
(464,351,o),
(442,374,o),
(442,394,qs),
(442,414,o),
(486,476,o),
(500,526,o),
(500,558,qs),
(500,608,o),
(438,689,o),
(344,726,o),
(284,726,qs),
(224,726,o),
(118,678,o),
(56,570,o),
(56,470,qs),
(56,0,l),
(198,0,l),
(198,458,ls),
(198,532,o),
(222,586,o),
(260,608,o),
(284,608,qs),
(304,608,o),
(336,596,o),
(358,564,o),
(358,536,qs),
(358,514,o),
(338,472,o),
(300,404,o),
(300,366,qs),
(300,333,o),
(334,268,o),
(391,234,qs),
(431,210,o),
(456,176,o),
(456,160,qs),
(456,146,o),
(444,128,o),
(423,116,o),
(387,116,q),
(298,116,l),
(298,0,l),
(397,0,l)
);
}
);
width = 620;
}
);
metricLeft = n;
metricRight = b;
unicode = 223;
},
{
glyphname = t;
kernLeft = t;
kernRight = t;
lastChange = "2025-05-22 16:47:10 +0000";
layers = (
{
anchors = (
{
name = bottom;
pos = (216,0);
},
{
name = top;
pos = (160,500);
},
{
name = topright;
pos = (166,720);
}
);
layerId = m01;
shapes = (
{
closed = 1;
nodes = (
(306,0,l),
(306,20,l),
(240,20,ls),
(204,20,o),
(166,54,o),
(166,90,qs),
(166,480,l),
(306,480,l),
(306,500,l),
(166,500,l),
(166,620,l),
(146,620,l),
(146,500,l),
(40,500,l),
(40,480,l),
(146,480,l),
(146,84,ls),
(146,44,o),
(196,0,o),
(240,0,qs)
);
}
);
width = 380;
},
{
anchors = (
{
name = bottom;
pos = (226,0);
},
{
name = top;
pos = (170,620);
},
{
name = topright;
pos = (276,720);
}
);
layerId = "CCD41F9B-A064-4484-B59C-AEE566599C6A";
shapes = (
{
closed = 1;
nodes = (
(344,0,l),
(344,114,l),
(286,114,ls),
(262,114,o),
(238,138,o),
(238,162,qs),
(238,380,l),
(344,380,l),
(344,500,l),
(238,500,l),
(238,620,l),
(98,620,l),
(98,500,l),
(20,500,l),
(20,380,l),
(98,380,l),
(98,140,ls),
(98,68,o),
(172,0,o),
(246,0,qs)
);
}
);
width = 380;
},
{
anchors = (
{
name = bottom;
pos = (226,0);
},
{
name = top;
pos = (170,620);
},
{
name = topright;
pos = (276,720);
}
);
layerId = m003;
shapes = (
{
closed = 1;
nodes = (
(344,0,l),
(344,114,l),
(286,114,ls),
(262,114,o),
(238,138,o),
(238,162,qs),
(238,380,l),
(344,380,l),
(344,500,l),
(238,500,l),
(238,620,l),
(98,620,l),
(98,500,l),
(20,500,l),
(20,380,l),
(98,380,l),
(98,140,ls),
(98,68,o),
(172,0,o),
(246,0,qs)
);
}
);
width = 380;
}
);
metricLeft = f;
metricRight = f;
unicode = 116;
userData = {
KernOnName = t;
};
},
{
color = 7;
glyphname = t.ss02;
kernLeft = t;
kernRight = t;
lastChange = "2025-05-22 16:47:10 +0000";
layers = (
{
anchors = (
{
name = bottom;
pos = (190,0);
},
{
name = top;
pos = (190,500);
},
{
name = topright;
pos = (196,720);
}
);
layerId = m01;
shapes = (
{
closed = 1;
nodes = (
(200,0,l),
(200,480,l),
(340,480,l),
(340,500,l),
(200,500,l),
(200,620,l),
(180,620,l),
(180,500,l),
(40,500,l),
(40,480,l),
(180,480,l),
(180,0,l)
);
}
);
width = 380;
},
{
anchors = (
{
name = bottom;
pos = (189,0);
},
{
name = top;
pos = (190,620);
},
{
name = topright;
pos = (285,720);
}
);
layerId = "CCD41F9B-A064-4484-B59C-AEE566599C6A";
shapes = (
{
closed = 1;
nodes = (
(261,0,l),
(261,380,l),
(360,380,l),
(360,500,l),
(261,500,l),
(261,620,l),
(119,620,l),
(119,500,l),
(20,500,l),
(20,380,l),
(119,380,l),
(119,0,l)
);
}
);
width = 380;
},
{
anchors = (
{
name = bottom;
pos = (189,0);
},
{
name = top;
pos = (190,620);
},
{
name = topright;
pos = (285,720);
}
);
layerId = m003;
shapes = (
{
closed = 1;
nodes = (
(261,0,l),
(261,380,l),
(360,380,l),
(360,500,l),
(261,500,l),
(261,620,l),
(119,620,l),
(119,500,l),
(20,500,l),
(20,380,l),
(119,380,l),
(119,0,l)
);
}
);
width = 380;
}
);
userData = {
KernOnName = t;
};
},
{
glyphname = tbar;
kernLeft = t;
kernRight = t;
lastChange = "2025-05-22 16:47:10 +0000";
layers = (
{
layerId = m01;
shapes = (
{
closed = 1;
nodes = (
(306,280,l),
(306,300,l),
(40,300,l),
(40,280,l)
);
},
{
ref = t;
}
);
width = 380;
},
{
layerId = "CCD41F9B-A064-4484-B59C-AEE566599C6A";
shapes = (
{
closed = 1;
nodes = (
(344,210,l),
(344,290,l),
(20,290,l),
(20,210,l)
);
},
{
ref = t;
}
);
width = 380;
},
{
layerId = m003;
shapes = (
{
closed = 1;
nodes = (
(344,210,l),
(344,290,l),
(20,290,l),
(20,210,l)
);
},
{
ref = t;
}
);
width = 380;
}
);
metricLeft = t;
metricRight = t;
unicode = 359;
},
{
color = 7;
glyphname = tbar.ss02;
kernLeft = t;
kernRight = t;
lastChange = "2025-05-22 16:47:10 +0000";
layers = (
{
layerId = m01;
shapes = (
{
closed = 1;
nodes = (
(340,280,l),
(340,300,l),
(40,300,l),
(40,280,l)
);
},
{
ref = t.ss02;
}
);
width = 380;
},
{
layerId = "CCD41F9B-A064-4484-B59C-AEE566599C6A";
shapes = (
{
closed = 1;
nodes = (
(360,190,l),
(360,270,l),
(20,270,l),
(20,190,l)
);
},
{
ref = t.ss02;
}
);
width = 380;
},
{
layerId = m003;
shapes = (
{
closed = 1;
nodes = (
(360,190,l),
(360,270,l),
(20,270,l),
(20,190,l)
);
},
{
ref = t.ss02;
}
);
width = 380;
}
);
metricLeft = t.ss02;
metricRight = t.ss02;
},
{
glyphname = v;
kernLeft = v;
kernRight = v;
lastChange = "2025-05-22 16:47:10 +0000";
layers = (
{
anchors = (
{
name = bottom;
pos = (250,0);
},
{
name = top;
pos = (250,500);
}
);
layerId = m01;
shapes = (
{
closed = 1;
nodes = (
(262,0,l),
(456,500,l),
(434,500,l),
(251,26,l),
(66,500,l),
(44,500,l),
(238,0,l)
);
}
);
width = 500;
},
{
anchors = (
{
name = bottom;
pos = (256,0);
},
{
name = top;
pos = (256,500);
}
);
layerId = "CCD41F9B-A064-4484-B59C-AEE566599C6A";
shapes = (
{
closed = 1;
nodes = (
(323,0,l),
(484,500,l),
(342,500,l),
(256,180,l),
(166,500,l),
(16,500,l),
(181,0,l)
);
}
);
width = 500;
},
{
anchors = (
{
name = bottom;
pos = (256,0);
},
{
name = top;
pos = (256,500);
}
);
layerId = m003;
shapes = (
{
closed = 1;
nodes = (
(323,0,l),
(484,500,l),
(342,500,l),
(256,180,l),
(166,500,l),
(16,500,l),
(181,0,l)
);
}
);
width = 500;
}
);
unicode = 118;
userData = {
KernOnName = v;
};
},
{
glyphname = w;
kernLeft = w;
kernRight = w;
lastChange = "2025-05-22 16:47:10 +0000";
layers = (
{
anchors = (
{
name = bottom;
pos = (370,0);
},
{
name = top;
pos = (370,500);
}
);
layerId = m01;
shapes = (
{
closed = 1;
nodes = (
(228,0,l),
(372,474,l),
(512,0,l),
(540,0,l),
(696,500,l),
(675,500,l),
(526,26,l),
(386,500,l),
(358,500,l),
(214,26,l),
(65,500,l),
(44,500,l),
(200,0,l)
);
}
);
width = 740;
},
{
anchors = (
{
name = bottom;
pos = (370,0);
},
{
name = top;
pos = (370,500);
}
);
layerId = "CCD41F9B-A064-4484-B59C-AEE566599C6A";
shapes = (
{
closed = 1;
nodes = (
(287,0,l),
(367,290,l),
(443,0,l),
(592,0,l),
(724,500,l),
(594,500,l),
(518,180,l),
(435,500,l),
(319,500,l),
(234,180,l),
(162,500,l),
(16,500,l),
(148,0,l)
);
}
);
width = 740;
},
{
anchors = (
{
name = bottom;
pos = (370,0);
},
{
name = top;
pos = (370,500);
}
);
layerId = m003;
shapes = (
{
closed = 1;
nodes = (
(287,0,l),
(367,290,l),
(443,0,l),
(592,0,l),
(724,500,l),
(594,500,l),
(518,180,l),
(435,500,l),
(319,500,l),
(234,180,l),
(162,500,l),
(16,500,l),
(148,0,l)
);
}
);
width = 740;
}
);
metricLeft = v;
metricRight = v;
unicode = 119;
userData = {
KernOnName = w;
};
},
{
glyphname = x;
kernLeft = x;
kernRight = x;
lastChange = "2025-05-22 16:47:10 +0000";
layers = (
{
anchors = (
{
name = bottom;
pos = (260,0);
},
{
name = top;
pos = (260,500);
}
);
layerId = m01;
shapes = (
{
closed = 1;
nodes = (
(74,0,l),
(271,246,l),
(466,0,l),
(492,0,l),
(285,260,l),
(484,500,l),
(458,500,l),
(271,274,l),
(82,500,l),
(56,500,l),
(257,260,l),
(48,0,l)
);
}
);
width = 540;
},
{
anchors = (
{
name = bottom;
pos = (272,0);
},
{
name = top;
pos = (272,500);
}
);
layerId = "CCD41F9B-A064-4484-B59C-AEE566599C6A";
shapes = (
{
closed = 1;
nodes = (
(162,0,l),
(262,166,l),
(356,0,l),
(524,0,l),
(368,254,l),
(512,500,l),
(366,500,l),
(278,340,l),
(192,500,l),
(24,500,l),
(170,254,l),
(16,0,l)
);
}
);
width = 540;
},
{
anchors = (
{
name = bottom;
pos = (272,0);
},
{
name = top;
pos = (272,500);
}
);
layerId = m003;
shapes = (
{
closed = 1;
nodes = (
(162,0,l),
(262,166,l),
(356,0,l),
(524,0,l),
(368,254,l),
(512,500,l),
(366,500,l),
(278,340,l),
(192,500,l),
(24,500,l),
(170,254,l),
(16,0,l)
);
}
);
width = 540;
}
);
unicode = 120;
userData = {
KernOnName = x;
};
},
{
glyphname = y;
kernLeft = v;
kernRight = v;
lastChange = "2025-08-13 15:43:54 +0000";
layers = (
{
anchors = (
{
name = bottom;
pos = (246,-160);
},
{
name = top;
pos = (250,500);
}
);
layerId = m01;
shapes = (
{
closed = 1;
nodes = (
(130,-160,ls),
(174,-160,o),
(222,-124,o),
(239,-79,qs),
(456,500,l),
(434,500,l),
(257,22,l),
(66,500,l),
(44,500,l),
(246,0,l),
(221,-72,ls),
(208,-109,o),
(165,-140,o),
(130,-140,qs),
(64,-140,l),
(64,-160,l)
);
}
);
width = 500;
},
{
anchors = (
{
name = bottom;
pos = (245,-200);
},
{
name = top;
pos = (250,500);
}
);
layerId = "CCD41F9B-A064-4484-B59C-AEE566599C6A";
shapes = (
{
closed = 1;
nodes = (
(117,-200,ls),
(209,-200,o),
(296,-119,o),
(323,-30,qs),
(484,500,l),
(342,500,l),
(260,181,l),
(166,500,l),
(16,500,l),
(194,0,l),
(188,-18,ls),
(176,-53,o),
(140,-80,o),
(100,-80,qs),
(52,-80,l),
(52,-200,l)
);
}
);
width = 500;
},
{
anchors = (
{
name = bottom;
pos = (245,-200);
},
{
name = top;
pos = (250,500);
}
);
layerId = m003;
shapes = (
{
closed = 1;
nodes = (
(117,-200,ls),
(209,-200,o),
(296,-119,o),
(323,-30,qs),
(484,500,l),
(342,500,l),
(260,181,l),
(166,500,l),
(16,500,l),
(194,0,l),
(188,-18,ls),
(176,-53,o),
(140,-80,o),
(100,-80,qs),
(52,-80,l),
(52,-200,l)
);
}
);
width = 500;
}
);
metricLeft = v;
metricRight = v;
unicode = 121;
userData = {
KernOnName = y;
};
},
{
color = 7;
glyphname = y.ss02;
kernLeft = v;
kernRight = v;
lastChange = "2025-08-13 15:43:18 +0000";
layers = (
{
anchors = (
{
name = bottom;
pos = (237,0);
},
{
name = top;
pos = (250,500);
}
);
layerId = m01;
shapes = (
{
closed = 1;
nodes = (
(195,-200,l),
(456,500,l),
(434,500,l),
(258,26,l),
(66,500,l),
(44,500,l),
(246,0,l),
(173,-200,l)
);
}
);
width = 500;
},
{
anchors = (
{
name = bottom;
pos = (230,-200);
},
{
name = top;
pos = (250,500);
}
);
layerId = "CCD41F9B-A064-4484-B59C-AEE566599C6A";
shapes = (
{
closed = 1;
nodes = (
(272,-200,l),
(484,500,l),
(342,500,l),
(260,181,l),
(166,500,l),
(16,500,l),
(190,0,l),
(128,-200,l)
);
}
);
width = 500;
},
{
anchors = (
{
name = bottom;
pos = (230,-200);
},
{
name = top;
pos = (250,500);
}
);
layerId = m003;
shapes = (
{
closed = 1;
nodes = (
(272,-200,l),
(484,500,l),
(342,500,l),
(260,181,l),
(166,500,l),
(16,500,l),
(190,0,l),
(128,-200,l)
);
}
);
width = 500;
}
);
metricLeft = v;
metricRight = v;
},
{
glyphname = z;
kernLeft = z;
kernRight = z;
lastChange = "2025-05-22 16:47:10 +0000";
layers = (
{
anchors = (
{
name = bottom;
pos = (240,0);
},
{
name = top;
pos = (240,500);
}
);
layerId = m01;
shapes = (
{
closed = 1;
nodes = (
(420,0,l),
(420,20,l),
(91,20,l),
(420,488,l),
(420,500,l),
(60,500,l),
(60,480,l),
(389,480,l),
(60,12,l),
(60,0,l)
);
}
);
width = 480;
},
{
anchors = (
{
name = bottom;
pos = (234,0);
},
{
name = top;
pos = (234,500);
}
);
layerId = "CCD41F9B-A064-4484-B59C-AEE566599C6A";
shapes = (
{
closed = 1;
nodes = (
(442,0,l),
(442,120,l),
(240,120,l),
(454,472,l),
(454,500,l),
(38,500,l),
(38,380,l),
(240,380,l),
(26,28,l),
(26,0,l)
);
}
);
width = 480;
},
{
anchors = (
{
name = bottom;
pos = (234,0);
},
{
name = top;
pos = (234,500);
}
);
layerId = m003;
shapes = (
{
closed = 1;
nodes = (
(442,0,l),
(442,120,l),
(240,120,l),
(454,472,l),
(454,500,l),
(38,500,l),
(38,380,l),
(240,380,l),
(26,28,l),
(26,0,l)
);
}
);
width = 480;
}
);
unicode = 122;
},
{
glyphname = saltillo;
kernLeft = b;
lastChange = "2025-08-10 09:15:30 +0000";
layers = (
{
layerId = m01;
shapes = (
{
closed = 1;
nodes = (
(117,380,l),
(117,620,l),
(117,720,l),
(97,720,l),
(97,620,l),
(97,380,l)
);
}
);
width = 214;
},
{
layerId = "CCD41F9B-A064-4484-B59C-AEE566599C6A";
shapes = (
{
closed = 1;
nodes = (
(178,380,l),
(178,620,l),
(178,720,l),
(36,720,l),
(36,620,l),
(36,380,l)
);
}
);
width = 214;
},
{
layerId = m003;
shapes = (
{
closed = 1;
nodes = (
(178,380,l),
(178,620,l),
(178,720,l),
(36,720,l),
(36,620,l),
(36,380,l)
);
}
);
width = 214;
}
);
unicode = 42892;
},
{
color = 3;
glyphname = f_f;
lastChange = "2025-05-22 16:47:10 +0000";
layers = (
{
anchors = (
{
name = caret;
pos = (330,0);
},
{
name = caret_1;
pos = (650,0);
}
);
layerId = m01;
shapes = (
{
closed = 1;
nodes = (
(170,0,l),
(170,480,l),
(490,480,l),
(490,0,l),
(510,0,l),
(510,480,l),
(646,480,l),
(646,500,l),
(510,500,l),
(510,594,ls),
(510,653,o),
(561,700,o),
(624,700,qs),
(646,700,l),
(646,720,l),
(624,720,ls),
(553,720,o),
(490,665,o),
(490,600,qs),
(490,500,l),
(170,500,l),
(170,594,ls),
(170,653,o),
(221,700,o),
(284,700,qs),
(306,700,l),
(306,720,l),
(284,720,ls),
(213,720,o),
(150,665,o),
(150,600,qs),
(150,500,l),
(40,500,l),
(40,480,l),
(150,480,l),
(150,0,l)
);
}
);
width = 720;
},
{
anchors = (
{
name = caret;
pos = (330,0);
},
{
name = caret_1;
pos = (650,0);
}
);
layerId = "CCD41F9B-A064-4484-B59C-AEE566599C6A";
shapes = (
{
closed = 1;
nodes = (
(240,0,l),
(240,380,l),
(438,380,l),
(438,0,l),
(580,0,l),
(580,380,l),
(684,380,l),
(684,500,l),
(580,500,l),
(580,560,ls),
(580,584,o),
(604,608,o),
(628,608,qs),
(684,608,l),
(684,720,l),
(586,720,ls),
(512,720,o),
(438,652,o),
(438,580,qs),
(438,500,l),
(240,500,l),
(240,560,ls),
(240,584,o),
(264,608,o),
(288,608,qs),
(344,608,l),
(344,720,l),
(246,720,ls),
(172,720,o),
(98,652,o),
(98,580,qs),
(98,500,l),
(20,500,l),
(20,380,l),
(98,380,l),
(98,0,l)
);
}
);
width = 720;
},
{
anchors = (
{
name = caret;
pos = (330,0);
},
{
name = caret_1;
pos = (650,0);
}
);
layerId = m003;
shapes = (
{
closed = 1;
nodes = (
(240,0,l),
(240,380,l),
(438,380,l),
(438,0,l),
(580,0,l),
(580,380,l),
(684,380,l),
(684,500,l),
(580,500,l),
(580,560,ls),
(580,584,o),
(604,608,o),
(628,608,qs),
(684,608,l),
(684,720,l),
(586,720,ls),
(512,720,o),
(438,652,o),
(438,580,qs),
(438,500,l),
(240,500,l),
(240,560,ls),
(240,584,o),
(264,608,o),
(288,608,qs),
(344,608,l),
(344,720,l),
(246,720,ls),
(172,720,o),
(98,652,o),
(98,580,qs),
(98,500,l),
(20,500,l),
(20,380,l),
(98,380,l),
(98,0,l)
);
}
);
width = 720;
}
);
metricLeft = f;
metricRight = f;
},
{
color = 3;
glyphname = f_f_i;
lastChange = "2025-05-22 16:47:10 +0000";
layers = (
{
anchors = (
{
name = caret;
pos = (330,0);
},
{
name = caret_1;
pos = (680,0);
}
);
layerId = m01;
shapes = (
{
closed = 1;
nodes = (
(178,0,l),
(178,480,l),
(498,480,l),
(498,0,l),
(518,0,l),
(518,480,l),
(838,480,l),
(838,0,l),
(858,0,l),
(858,500,l),
(518,500,l),
(518,594,ls),
(518,653,o),
(569,700,o),
(632,700,qs),
(754,700,l),
(754,720,l),
(632,720,ls),
(561,720,o),
(498,665,o),
(498,600,qs),
(498,500,l),
(178,500,l),
(178,594,ls),
(178,653,o),
(229,700,o),
(292,700,qs),
(314,700,l),
(314,720,l),
(292,720,ls),
(221,720,o),
(158,665,o),
(158,600,qs),
(158,500,l),
(40,500,l),
(40,480,l),
(158,480,l),
(158,0,l)
);
}
);
width = 956;
},
{
anchors = (
{
name = caret;
pos = (330,0);
},
{
name = caret_1;
pos = (680,0);
}
);
layerId = "CCD41F9B-A064-4484-B59C-AEE566599C6A";
shapes = (
{
closed = 1;
nodes = (
(240,0,l),
(240,380,l),
(438,380,l),
(438,0,l),
(580,0,l),
(580,380,l),
(778,380,l),
(778,0,l),
(920,0,l),
(920,500,l),
(580,500,l),
(580,560,ls),
(580,584,o),
(604,608,o),
(628,608,qs),
(798,608,l),
(798,720,l),
(586,720,ls),
(512,720,o),
(438,652,o),
(438,580,qs),
(438,500,l),
(240,500,l),
(240,560,ls),
(240,584,o),
(264,608,o),
(288,608,qs),
(344,608,l),
(344,720,l),
(246,720,ls),
(172,720,o),
(98,652,o),
(98,580,qs),
(98,500,l),
(20,500,l),
(20,380,l),
(98,380,l),
(98,0,l)
);
}
);
width = 956;
},
{
anchors = (
{
name = caret;
pos = (330,0);
},
{
name = caret_1;
pos = (680,0);
}
);
layerId = m003;
shapes = (
{
closed = 1;
nodes = (
(240,0,l),
(240,380,l),
(438,380,l),
(438,0,l),
(580,0,l),
(580,380,l),
(778,380,l),
(778,0,l),
(920,0,l),
(920,500,l),
(580,500,l),
(580,560,ls),
(580,584,o),
(604,608,o),
(628,608,qs),
(798,608,l),
(798,720,l),
(586,720,ls),
(512,720,o),
(438,652,o),
(438,580,qs),
(438,500,l),
(240,500,l),
(240,560,ls),
(240,584,o),
(264,608,o),
(288,608,qs),
(344,608,l),
(344,720,l),
(246,720,ls),
(172,720,o),
(98,652,o),
(98,580,qs),
(98,500,l),
(20,500,l),
(20,380,l),
(98,380,l),
(98,0,l)
);
}
);
width = 956;
}
);
metricLeft = f;
metricRight = i;
},
{
color = 3;
glyphname = f_f_j;
lastChange = "2025-05-22 16:47:10 +0000";
layers = (
{
layerId = m01;
shapes = (
{
closed = 1;
nodes = (
(744,-200,ls),
(802,-200,o),
(858,-143,o),
(858,-80,qs),
(858,500,l),
(518,500,l),
(518,594,ls),
(518,653,o),
(569,700,o),
(632,700,qs),
(754,700,l),
(754,720,l),
(632,720,ls),
(561,720,o),
(498,665,o),
(498,600,qs),
(498,500,l),
(178,500,l),
(178,594,ls),
(178,653,o),
(229,700,o),
(292,700,qs),
(314,700,l),
(314,720,l),
(292,720,ls),
(221,720,o),
(158,665,o),
(158,600,qs),
(158,500,l),
(40,500,l),
(40,480,l),
(158,480,l),
(158,0,l),
(178,0,l),
(178,480,l),
(498,480,l),
(498,0,l),
(518,0,l),
(518,480,l),
(838,480,l),
(838,-74,ls),
(838,-131,o),
(793,-180,o),
(744,-180,qs),
(736,-180,l),
(736,-200,l)
);
}
);
width = 956;
},
{
layerId = "CCD41F9B-A064-4484-B59C-AEE566599C6A";
shapes = (
{
closed = 1;
nodes = (
(772,-200,ls),
(846,-200,o),
(920,-132,o),
(920,-60,qs),
(920,500,l),
(580,500,l),
(580,560,ls),
(580,584,o),
(604,608,o),
(628,608,qs),
(798,608,l),
(798,720,l),
(586,720,ls),
(512,720,o),
(438,652,o),
(438,580,qs),
(438,500,l),
(240,500,l),
(240,560,ls),
(240,584,o),
(264,608,o),
(288,608,qs),
(344,608,l),
(344,720,l),
(246,720,ls),
(172,720,o),
(98,652,o),
(98,580,qs),
(98,500,l),
(20,500,l),
(20,380,l),
(98,380,l),
(98,0,l),
(240,0,l),
(240,380,l),
(438,380,l),
(438,0,l),
(580,0,l),
(580,380,l),
(778,380,l),
(778,-38,ls),
(778,-62,o),
(754,-86,o),
(730,-86,qs),
(701,-86,l),
(701,-200,l)
);
}
);
width = 956;
},
{
layerId = m003;
shapes = (
{
closed = 1;
nodes = (
(772,-200,ls),
(846,-200,o),
(920,-132,o),
(920,-60,qs),
(920,500,l),
(580,500,l),
(580,560,ls),
(580,584,o),
(604,608,o),
(628,608,qs),
(798,608,l),
(798,720,l),
(586,720,ls),
(512,720,o),
(438,652,o),
(438,580,qs),
(438,500,l),
(240,500,l),
(240,560,ls),
(240,584,o),
(264,608,o),
(288,608,qs),
(344,608,l),
(344,720,l),
(246,720,ls),
(172,720,o),
(98,652,o),
(98,580,qs),
(98,500,l),
(20,500,l),
(20,380,l),
(98,380,l),
(98,0,l),
(240,0,l),
(240,380,l),
(438,380,l),
(438,0,l),
(580,0,l),
(580,380,l),
(778,380,l),
(778,-38,ls),
(778,-62,o),
(754,-86,o),
(730,-86,qs),
(701,-86,l),
(701,-200,l)
);
}
);
width = 956;
}
);
metricLeft = f;
metricRight = j;
},
{
color = 3;
glyphname = f_f_l;
lastChange = "2025-05-22 16:47:10 +0000";
layers = (
{
anchors = (
{
name = caret;
pos = (330,0);
},
{
name = caret_2;
pos = (700,0);
}
);
layerId = m01;
shapes = (
{
closed = 1;
nodes = (
(178,0,l),
(178,480,l),
(498,480,l),
(498,0,l),
(518,0,l),
(518,480,l),
(754,480,l),
(754,500,l),
(518,500,l),
(518,594,ls),
(518,653,o),
(569,700,o),
(632,700,qs),
(839,700,l),
(839,0,l),
(859,0,l),
(859,720,l),
(632,720,ls),
(561,720,o),
(498,665,o),
(498,600,qs),
(498,500,l),
(178,500,l),
(178,594,ls),
(178,653,o),
(229,700,o),
(292,700,qs),
(314,700,l),
(314,720,l),
(292,720,ls),
(221,720,o),
(158,665,o),
(158,600,qs),
(158,500,l),
(40,500,l),
(40,480,l),
(158,480,l),
(158,0,l)
);
}
);
width = 977;
},
{
anchors = (
{
name = caret;
pos = (330,0);
},
{
name = caret_2;
pos = (700,0);
}
);
layerId = "CCD41F9B-A064-4484-B59C-AEE566599C6A";
shapes = (
{
closed = 1;
nodes = (
(240,0,l),
(240,380,l),
(438,380,l),
(438,0,l),
(580,0,l),
(580,380,l),
(684,380,l),
(684,500,l),
(580,500,l),
(580,560,ls),
(580,584,o),
(604,608,o),
(628,608,qs),
(778,608,l),
(778,0,l),
(920,0,l),
(920,720,l),
(586,720,ls),
(512,720,o),
(438,652,o),
(438,580,qs),
(438,500,l),
(240,500,l),
(240,560,ls),
(240,584,o),
(264,608,o),
(288,608,qs),
(344,608,l),
(344,720,l),
(246,720,ls),
(172,720,o),
(98,652,o),
(98,580,qs),
(98,500,l),
(20,500,l),
(20,380,l),
(98,380,l),
(98,0,l)
);
}
);
width = 977;
},
{
anchors = (
{
name = caret;
pos = (330,0);
},
{
name = caret_2;
pos = (700,0);
}
);
layerId = m003;
shapes = (
{
closed = 1;
nodes = (
(240,0,l),
(240,380,l),
(438,380,l),
(438,0,l),
(580,0,l),
(580,380,l),
(684,380,l),
(684,500,l),
(580,500,l),
(580,560,ls),
(580,584,o),
(604,608,o),
(628,608,qs),
(778,608,l),
(778,0,l),
(920,0,l),
(920,720,l),
(586,720,ls),
(512,720,o),
(438,652,o),
(438,580,qs),
(438,500,l),
(240,500,l),
(240,560,ls),
(240,584,o),
(264,608,o),
(288,608,qs),
(344,608,l),
(344,720,l),
(246,720,ls),
(172,720,o),
(98,652,o),
(98,580,qs),
(98,500,l),
(20,500,l),
(20,380,l),
(98,380,l),
(98,0,l)
);
}
);
width = 977;
}
);
metricLeft = f;
metricRight = l;
},
{
color = 3;
glyphname = f_j;
lastChange = "2025-05-22 16:47:10 +0000";
layers = (
{
layerId = m01;
shapes = (
{
closed = 1;
nodes = (
(404,-200,ls),
(463,-200,o),
(518,-143,o),
(518,-80,q),
(518,500,l),
(178,500,l),
(178,594,ls),
(178,653,o),
(229,700,o),
(292,700,qs),
(414,700,l),
(414,720,l),
(292,720,ls),
(221,720,o),
(158,665,o),
(158,600,qs),
(158,500,l),
(40,500,l),
(40,480,l),
(158,480,l),
(158,0,l),
(178,0,l),
(178,480,l),
(498,480,l),
(498,-74,ls),
(498,-131,o),
(453,-180,o),
(404,-180,qs),
(396,-180,l),
(396,-200,l)
);
}
);
width = 616;
},
{
layerId = "CCD41F9B-A064-4484-B59C-AEE566599C6A";
shapes = (
{
closed = 1;
nodes = (
(432,-200,ls),
(506,-200,o),
(580,-132,o),
(580,-60,q),
(580,500,l),
(240,500,l),
(240,560,ls),
(240,584,o),
(264,608,o),
(288,608,qs),
(458,608,l),
(458,720,l),
(246,720,ls),
(172,720,o),
(98,652,o),
(98,580,qs),
(98,500,l),
(20,500,l),
(20,380,l),
(98,380,l),
(98,0,l),
(240,0,l),
(240,380,l),
(438,380,l),
(438,-38,ls),
(438,-62,o),
(414,-86,o),
(390,-86,qs),
(361,-86,l),
(361,-200,l)
);
}
);
width = 616;
},
{
layerId = m003;
shapes = (
{
closed = 1;
nodes = (
(432,-200,ls),
(506,-200,o),
(580,-132,o),
(580,-60,q),
(580,500,l),
(240,500,l),
(240,560,ls),
(240,584,o),
(264,608,o),
(288,608,qs),
(458,608,l),
(458,720,l),
(246,720,ls),
(172,720,o),
(98,652,o),
(98,580,qs),
(98,500,l),
(20,500,l),
(20,380,l),
(98,380,l),
(98,0,l),
(240,0,l),
(240,380,l),
(438,380,l),
(438,-38,ls),
(438,-62,o),
(414,-86,o),
(390,-86,qs),
(361,-86,l),
(361,-200,l)
);
}
);
width = 616;
}
);
metricLeft = f;
metricRight = j;
},
{
color = 3;
glyphname = f_t;
lastChange = "2025-05-22 16:47:10 +0000";
layers = (
{
layerId = m01;
shapes = (
{
closed = 1;
nodes = (
(166,0,l),
(166,480,l),
(486,480,l),
(486,84,ls),
(486,44,o),
(537,0,o),
(580,0,qs),
(646,0,l),
(646,20,l),
(580,20,ls),
(548,20,o),
(506,54,o),
(506,90,qs),
(506,480,l),
(646,480,l),
(646,500,l),
(506,500,l),
(506,620,l),
(486,620,l),
(486,500,l),
(166,500,l),
(166,594,ls),
(166,653,o),
(217,700,o),
(280,700,qs),
(302,700,l),
(302,720,l),
(280,720,ls),
(209,720,o),
(146,665,o),
(146,600,qs),
(146,500,l),
(40,500,l),
(40,480,l),
(146,480,l),
(146,0,l)
);
}
);
width = 720;
},
{
layerId = "CCD41F9B-A064-4484-B59C-AEE566599C6A";
shapes = (
{
closed = 1;
nodes = (
(240,0,l),
(240,380,l),
(438,380,l),
(438,140,ls),
(438,68,o),
(512,0,o),
(586,0,qs),
(684,0,l),
(684,114,l),
(626,114,ls),
(602,114,o),
(578,138,o),
(578,162,qs),
(578,380,l),
(684,380,l),
(684,500,l),
(578,500,l),
(578,620,l),
(438,620,l),
(438,500,l),
(240,500,l),
(240,560,ls),
(240,584,o),
(264,608,o),
(288,608,qs),
(344,608,l),
(344,720,l),
(246,720,ls),
(172,720,o),
(98,652,o),
(98,580,qs),
(98,500,l),
(20,500,l),
(20,380,l),
(98,380,l),
(98,0,l)
);
}
);
width = 720;
},
{
layerId = m003;
shapes = (
{
closed = 1;
nodes = (
(240,0,l),
(240,380,l),
(438,380,l),
(438,140,ls),
(438,68,o),
(512,0,o),
(586,0,qs),
(684,0,l),
(684,114,l),
(626,114,ls),
(602,114,o),
(578,138,o),
(578,162,qs),
(578,380,l),
(684,380,l),
(684,500,l),
(578,500,l),
(578,620,l),
(438,620,l),
(438,500,l),
(240,500,l),
(240,560,ls),
(240,584,o),
(264,608,o),
(288,608,qs),
(344,608,l),
(344,720,l),
(246,720,ls),
(172,720,o),
(98,652,o),
(98,580,qs),
(98,500,l),
(20,500,l),
(20,380,l),
(98,380,l),
(98,0,l)
);
}
);
width = 720;
}
);
metricLeft = f;
metricRight = t;
},
{
color = 3;
glyphname = fi;
lastChange = "2025-05-22 16:47:10 +0000";
layers = (
{
anchors = (
{
name = caret_1;
pos = (300,0);
}
);
layerId = m01;
shapes = (
{
closed = 1;
nodes = (
(178,0,l),
(178,480,l),
(498,480,l),
(498,0,l),
(518,0,l),
(518,500,l),
(178,500,l),
(178,594,ls),
(178,653,o),
(229,700,o),
(292,700,qs),
(414,700,l),
(414,720,l),
(292,720,ls),
(221,720,o),
(158,665,o),
(158,600,qs),
(158,500,l),
(40,500,l),
(40,480,l),
(158,480,l),
(158,0,l)
);
}
);
width = 616;
},
{
anchors = (
{
name = caret_1;
pos = (300,0);
}
);
layerId = "CCD41F9B-A064-4484-B59C-AEE566599C6A";
shapes = (
{
closed = 1;
nodes = (
(240,0,l),
(240,380,l),
(438,380,l),
(438,0,l),
(580,0,l),
(580,500,l),
(240,500,l),
(240,560,ls),
(240,584,o),
(264,608,o),
(288,608,qs),
(458,608,l),
(458,720,l),
(246,720,ls),
(172,720,o),
(98,652,o),
(98,580,qs),
(98,500,l),
(20,500,l),
(20,380,l),
(98,380,l),
(98,0,l)
);
}
);
width = 616;
},
{
anchors = (
{
name = caret_1;
pos = (300,0);
}
);
layerId = m003;
shapes = (
{
closed = 1;
nodes = (
(240,0,l),
(240,380,l),
(438,380,l),
(438,0,l),
(580,0,l),
(580,500,l),
(240,500,l),
(240,560,ls),
(240,584,o),
(264,608,o),
(288,608,qs),
(458,608,l),
(458,720,l),
(246,720,ls),
(172,720,o),
(98,652,o),
(98,580,qs),
(98,500,l),
(20,500,l),
(20,380,l),
(98,380,l),
(98,0,l)
);
}
);
width = 616;
}
);
metricLeft = f;
metricRight = i;
unicode = 64257;
},
{
color = 3;
glyphname = fl;
lastChange = "2025-05-22 16:47:10 +0000";
layers = (
{
anchors = (
{
name = caret_1;
pos = (330,0);
}
);
layerId = m01;
shapes = (
{
closed = 1;
nodes = (
(178,0,l),
(178,480,l),
(414,480,l),
(414,500,l),
(178,500,l),
(178,594,ls),
(178,653,o),
(229,700,o),
(292,700,qs),
(499,700,l),
(499,0,l),
(519,0,l),
(519,720,l),
(292,720,ls),
(221,720,o),
(158,665,o),
(158,600,qs),
(158,500,l),
(40,500,l),
(40,480,l),
(158,480,l),
(158,0,l)
);
}
);
width = 637;
},
{
anchors = (
{
name = caret_1;
pos = (330,0);
}
);
layerId = "CCD41F9B-A064-4484-B59C-AEE566599C6A";
shapes = (
{
closed = 1;
nodes = (
(240,0,l),
(240,380,l),
(344,380,l),
(344,500,l),
(240,500,l),
(240,560,ls),
(240,584,o),
(264,608,o),
(288,608,qs),
(438,608,l),
(438,0,l),
(580,0,l),
(580,720,l),
(246,720,ls),
(172,720,o),
(98,652,o),
(98,580,qs),
(98,500,l),
(20,500,l),
(20,380,l),
(98,380,l),
(98,0,l)
);
}
);
width = 637;
},
{
anchors = (
{
name = caret_1;
pos = (330,0);
}
);
layerId = m003;
shapes = (
{
closed = 1;
nodes = (
(240,0,l),
(240,380,l),
(344,380,l),
(344,500,l),
(240,500,l),
(240,560,ls),
(240,584,o),
(264,608,o),
(288,608,qs),
(438,608,l),
(438,0,l),
(580,0,l),
(580,720,l),
(246,720,ls),
(172,720,o),
(98,652,o),
(98,580,qs),
(98,500,l),
(20,500,l),
(20,380,l),
(98,380,l),
(98,0,l)
);
}
);
width = 637;
}
);
metricLeft = f;
metricRight = l;
unicode = 64258;
},
{
glyphname = "Be-cy";
kernLeft = "Be-cy";
kernRight = "Be-cy";
lastChange = "2025-05-22 16:47:10 +0000";
layers = (
{
layerId = m01;
shapes = (
{
closed = 1;
nodes = (
(302,0,ls),
(386,0,o),
(484,50,o),
(538,141,o),
(538,208,qs),
(538,274,o),
(484,366,o),
(386,416,o),
(302,416,qs),
(124,416,l),
(124,700,l),
(512,700,l),
(512,720,l),
(104,720,l),
(104,0,l)
);
},
{
closed = 1;
nodes = (
(124,396,l),
(300,396,ls),
(380,396,o),
(470,350,o),
(518,268,o),
(518,208,qs),
(518,149,o),
(470,66,o),
(380,20,o),
(300,20,qs),
(124,20,l)
);
}
);
width = 612;
},
{
layerId = "CCD41F9B-A064-4484-B59C-AEE566599C6A";
shapes = (
{
closed = 1;
nodes = (
(329,0,ls),
(409,0,o),
(519,65,o),
(572,171,o),
(572,227,qs),
(572,283,o),
(524,389,o),
(409,453,o),
(329,453,qs),
(208,453,l),
(208,592,l),
(525,592,l),
(525,720,l),
(58,720,l),
(58,0,l)
);
},
{
closed = 1;
nodes = (
(208,333,l),
(301,333,ls),
(341,333,o),
(391,312,o),
(422,267,o),
(422,227,qs),
(422,187,o),
(391,142,o),
(341,120,o),
(301,120,qs),
(208,120,l)
);
}
);
width = 612;
},
{
layerId = m003;
shapes = (
{
closed = 1;
nodes = (
(329,0,ls),
(409,0,o),
(519,65,o),
(572,171,o),
(572,227,qs),
(572,283,o),
(524,389,o),
(409,453,o),
(329,453,qs),
(208,453,l),
(208,592,l),
(525,592,l),
(525,720,l),
(58,720,l),
(58,0,l)
);
},
{
closed = 1;
nodes = (
(208,333,l),
(301,333,ls),
(341,333,o),
(391,312,o),
(422,267,o),
(422,227,qs),
(422,187,o),
(391,142,o),
(341,120,o),
(301,120,qs),
(208,120,l)
);
}
);
width = 612;
}
);
metricLeft = N;
metricRight = B;
unicode = 1041;
},
{
glyphname = "Geupturn-cy";
kernLeft = "Be-cy";
kernRight = "Ge-cy";
lastChange = "2025-05-22 16:47:10 +0000";
layers = (
{
layerId = m01;
shapes = (
{
closed = 1;
nodes = (
(124,0,l),
(124,700,l),
(397,700,ls),
(433,700,o),
(478,716,o),
(500,756,o),
(500,790,qs),
(500,800,l),
(480,800,l),
(480,790,ls),
(480,762,o),
(462,730,o),
(427,720,o),
(397,720,qs),
(104,720,l),
(104,0,l)
);
}
);
width = 540;
},
{
layerId = "CCD41F9B-A064-4484-B59C-AEE566599C6A";
shapes = (
{
closed = 1;
nodes = (
(208,0,l),
(208,590,l),
(320,590,ls),
(404,590,o),
(482,624,o),
(520,695,o),
(520,760,qs),
(520,800,l),
(400,800,l),
(400,780,ls),
(400,755,o),
(383,730,o),
(342,720,o),
(304,720,qs),
(58,720,l),
(58,0,l)
);
}
);
width = 540;
},
{
layerId = m003;
shapes = (
{
closed = 1;
nodes = (
(208,0,l),
(208,590,l),
(320,590,ls),
(404,590,o),
(482,624,o),
(520,695,o),
(520,760,qs),
(520,800,l),
(400,800,l),
(400,780,ls),
(400,755,o),
(383,730,o),
(342,720,o),
(304,720,qs),
(58,720,l),
(58,0,l)
);
}
);
width = 540;
}
);
metricLeft = "Ge-cy";
metricRight = "Ge-cy";
unicode = 1168;
},
{
color = 7;
glyphname = "Geupturn-cy.ss02";
kernLeft = "Be-cy";
kernRight = "Ge-cy";
lastChange = "2025-05-22 16:47:10 +0000";
layers = (
{
layerId = m01;
shapes = (
{
closed = 1;
nodes = (
(124,0,l),
(124,570,ls),
(124,639,o),
(188,700,o),
(257,700,qs),
(397,700,ls),
(453,700,o),
(500,742,o),
(500,790,qs),
(500,800,l),
(480,800,l),
(480,790,ls),
(480,752,o),
(443,720,o),
(397,720,qs),
(256,720,ls),
(176,720,o),
(104,649,o),
(104,570,qs),
(104,0,l)
);
}
);
width = 540;
},
{
layerId = "CCD41F9B-A064-4484-B59C-AEE566599C6A";
shapes = (
{
closed = 1;
nodes = (
(208,0,l),
(208,532,ls),
(208,567,o),
(237,592,o),
(277,592,qs),
(350,592,ls),
(443,592,o),
(520,669,o),
(520,760,qs),
(520,800,l),
(400,800,l),
(400,770,ls),
(400,744,o),
(379,720,o),
(354,720,qs),
(228,720,ls),
(136,720,o),
(58,639,o),
(58,550,qs),
(58,0,l)
);
}
);
width = 540;
},
{
layerId = m003;
shapes = (
{
closed = 1;
nodes = (
(208,0,l),
(208,532,ls),
(208,567,o),
(237,592,o),
(277,592,qs),
(350,592,ls),
(443,592,o),
(520,669,o),
(520,760,qs),
(520,800,l),
(400,800,l),
(400,770,ls),
(400,744,o),
(379,720,o),
(354,720,qs),
(228,720,ls),
(136,720,o),
(58,639,o),
(58,550,qs),
(58,0,l)
);
}
);
width = 540;
}
);
metricLeft = "Ge-cy";
metricRight = "Ge-cy";
},
{
glyphname = "Gedescender-cy";
lastChange = "2025-05-22 16:47:10 +0000";
layers = (
{
layerId = m01;
shapes = (
{
closed = 1;
nodes = (
(224,-160,l),
(224,20,l),
(104,20,l),
(104,0,l),
(204,0,l),
(204,-160,l)
);
},
{
ref = "Ge-cy";
}
);
width = 520;
},
{
layerId = "CCD41F9B-A064-4484-B59C-AEE566599C6A";
shapes = (
{
closed = 1;
nodes = (
(292,-160,l),
(292,120,l),
(58,120,l),
(58,0,l),
(158,0,l),
(158,-160,l)
);
},
{
ref = "Ge-cy";
}
);
width = 520;
},
{
layerId = m003;
shapes = (
{
closed = 1;
nodes = (
(292,-160,l),
(292,120,l),
(58,120,l),
(58,0,l),
(158,0,l),
(158,-160,l)
);
},
{
ref = "Ge-cy";
}
);
width = 520;
}
);
metricLeft = "Ge-cy";
metricRight = "Ge-cy";
unicode = 1270;
},
{
color = 7;
glyphname = "Gedescender-cy.ss02";
lastChange = "2025-05-22 16:47:10 +0000";
layers = (
{
layerId = m01;
shapes = (
{
closed = 1;
nodes = (
(224,-160,l),
(224,20,l),
(104,20,l),
(104,0,l),
(204,0,l),
(204,-160,l)
);
},
{
ref = "Ge-cy.ss02";
}
);
width = 520;
},
{
layerId = "CCD41F9B-A064-4484-B59C-AEE566599C6A";
shapes = (
{
closed = 1;
nodes = (
(292,-160,l),
(292,120,l),
(58,120,l),
(58,0,l),
(158,0,l),
(158,-160,l)
);
},
{
ref = "Ge-cy.ss02";
}
);
width = 520;
},
{
layerId = m003;
shapes = (
{
closed = 1;
nodes = (
(292,-160,l),
(292,120,l),
(58,120,l),
(58,0,l),
(158,0,l),
(158,-160,l)
);
},
{
ref = "Ge-cy.ss02";
}
);
width = 520;
}
);
metricLeft = "Ge-cy";
metricRight = "Ge-cy";
},
{
glyphname = "De-cy";
kernLeft = "De-cy";
kernRight = "De-cy";
lastChange = "2025-08-10 07:34:02 +0000";
layers = (
{
layerId = m01;
shapes = (
{
closed = 1;
nodes = (
(68,-160,l),
(68,0,l),
(658,0,l),
(658,-160,l),
(678,-160,l),
(678,20,l),
(578,20,l),
(578,720,l),
(177,720,l),
(177,448,ls),
(177,210,o),
(142,50,o),
(111,20,q),
(48,20,l),
(48,-160,l)
);
},
{
closed = 1;
nodes = (
(161,47,o),
(197,210,o),
(197,448,qs),
(197,700,l),
(558,700,l),
(558,20,l),
(137,20,l)
);
}
);
width = 732;
},
{
layerId = "CCD41F9B-A064-4484-B59C-AEE566599C6A";
shapes = (
{
closed = 1;
nodes = (
(154,-160,l),
(154,0,l),
(574,0,l),
(574,-160,l),
(708,-160,l),
(708,130,l),
(616,130,l),
(616,720,l),
(138,720,l),
(138,484,ls),
(138,336,o),
(113,164,o),
(87,130,q),
(20,130,l),
(20,-160,l)
);
},
{
closed = 1;
nodes = (
(247,176,o),
(270,350,o),
(270,470,qs),
(270,590,l),
(466,590,l),
(466,130,l),
(227,130,l)
);
}
);
width = 732;
},
{
layerId = m003;
shapes = (
{
closed = 1;
nodes = (
(154,-160,l),
(154,0,l),
(574,0,l),
(574,-160,l),
(708,-160,l),
(708,130,l),
(616,130,l),
(616,720,l),
(138,720,l),
(138,484,ls),
(138,336,o),
(113,164,o),
(87,130,q),
(20,130,l),
(20,-160,l)
);
},
{
closed = 1;
nodes = (
(247,176,o),
(270,350,o),
(270,470,qs),
(270,590,l),
(466,590,l),
(466,130,l),
(227,130,l)
);
}
);
width = 732;
}
);
unicode = 1044;
},
{
color = 5;
glyphname = "De-cy.loclBGR";
kernLeft = "De-cy";
kernRight = "De-cy";
lastChange = "2025-08-10 06:37:34 +0000";
layers = (
{
layerId = m01;
shapes = (
{
closed = 1;
nodes = (
(140,0,l),
(398,696,l),
(644,0,l),
(666,0,l),
(412,720,l),
(384,720,l),
(118,0,l)
);
},
{
closed = 1;
nodes = (
(68,-160,l),
(68,0,l),
(716,0,l),
(716,-160,l),
(736,-160,l),
(736,20,l),
(48,20,l),
(48,-160,l)
);
}
);
width = 790;
},
{
layerId = "CCD41F9B-A064-4484-B59C-AEE566599C6A";
shapes = (
{
closed = 1;
nodes = (
(216,0,l),
(388,549,l),
(558,0,l),
(713,0,l),
(465,720,l),
(314,720,l),
(68,0,l)
);
},
{
closed = 1;
nodes = (
(154,-160,l),
(154,0,l),
(632,0,l),
(632,-160,l),
(766,-160,l),
(766,120,l),
(20,120,l),
(20,-160,l)
);
}
);
width = 790;
},
{
layerId = m003;
shapes = (
{
closed = 1;
nodes = (
(216,0,l),
(388,549,l),
(558,0,l),
(713,0,l),
(465,720,l),
(314,720,l),
(68,0,l)
);
},
{
closed = 1;
nodes = (
(154,-160,l),
(154,0,l),
(632,0,l),
(632,-160,l),
(766,-160,l),
(766,120,l),
(20,120,l),
(20,-160,l)
);
}
);
width = 790;
}
);
metricLeft = "De-cy";
metricRight = "De-cy";
},
{
glyphname = "Zhe-cy";
kernLeft = "Zhe-cy";
kernRight = "Zhe-cy";
lastChange = "2025-08-13 17:41:42 +0000";
layers = (
{
anchors = (
{
name = bottom;
pos = (501,0);
},
{
name = top;
pos = (501,720);
}
);
layerId = m01;
shapes = (
{
closed = 1;
nodes = (
(672,360,l),
(924,0,l),
(950,0,l),
(692,370,l),
(950,719,l),
(924,719,l),
(672,380,l),
(328,380,l),
(76,719,l),
(50,719,l),
(308,370,l),
(50,0,l),
(76,0,l),
(328,360,l)
);
},
{
closed = 1;
nodes = (
(510,721,l),
(490,721,l),
(490,0,l),
(510,0,l)
);
}
);
width = 1000;
},
{
anchors = (
{
name = bottom;
pos = (500,0);
},
{
name = top;
pos = (500,720);
}
);
layerId = "CCD41F9B-A064-4484-B59C-AEE566599C6A";
shapes = (
{
closed = 1;
nodes = (
(652,300,l),
(818,0,l),
(980,0,l),
(781,357,l),
(974,720,l),
(822,720,l),
(668,428,l),
(332,428,l),
(178,720,l),
(26,720,l),
(219,357,l),
(20,0,l),
(182,0,l),
(348,300,l)
);
},
{
closed = 1;
nodes = (
(573,720,l),
(427,720,l),
(427,0,l),
(573,0,l)
);
}
);
width = 1000;
},
{
anchors = (
{
name = bottom;
pos = (500,0);
},
{
name = top;
pos = (500,720);
}
);
layerId = m003;
shapes = (
{
closed = 1;
nodes = (
(652,300,l),
(818,0,l),
(980,0,l),
(781,357,l),
(974,720,l),
(822,720,l),
(668,428,l),
(332,428,l),
(178,720,l),
(26,720,l),
(219,357,l),
(20,0,l),
(182,0,l),
(348,300,l)
);
},
{
closed = 1;
nodes = (
(573,720,l),
(427,720,l),
(427,0,l),
(573,0,l)
);
}
);
width = 1000;
}
);
unicode = 1046;
},
{
color = 9;
glyphname = "Zhe-cy.ss01";
kernLeft = "Zhe-cy";
kernRight = "Zhe-cy";
lastChange = "2025-05-22 16:47:10 +0000";
layers = (
{
anchors = (
{
name = bottom;
pos = (541,0);
},
{
name = top;
pos = (541,720);
}
);
layerId = m01;
shapes = (
{
closed = 1;
nodes = (
(120,0,l),
(204,0,o),
(204,90,q),
(204,220,l),
(204,298,o),
(269,360,o),
(360,360,q),
(530,360,l),
(530,0,l),
(550,0,l),
(550,360,l),
(720,360,l),
(810,360,o),
(876,299,o),
(876,220,q),
(876,90,l),
(876,0,o),
(960,0,q),
(996,0,l),
(996,20,l),
(960,20,l),
(896,20,o),
(896,90,q),
(896,220,l),
(896,289,o),
(849,358,o),
(794,370,q),
(843,380,o),
(890,452,o),
(890,520,q),
(890,636,l),
(890,700,o),
(950,700,q),
(990,700,l),
(990,720,l),
(950,720,l),
(870,720,o),
(870,637,q),
(870,520,l),
(870,443,o),
(803,380,o),
(720,380,q),
(550,380,l),
(550,720,l),
(530,720,l),
(530,380,l),
(360,380,l),
(277,380,o),
(210,443,o),
(210,520,q),
(210,637,l),
(210,720,o),
(130,720,q),
(90,720,l),
(90,700,l),
(130,700,l),
(190,700,o),
(190,636,q),
(190,520,l),
(190,452,o),
(237,380,o),
(286,370,q),
(231,358,o),
(184,289,o),
(184,220,q),
(184,90,l),
(184,20,o),
(120,20,q),
(84,20,l),
(84,0,l)
);
}
);
width = 1080;
},
{
anchors = (
{
name = bottom;
pos = (540,0);
},
{
name = top;
pos = (540,720);
}
);
layerId = "CCD41F9B-A064-4484-B59C-AEE566599C6A";
shapes = (
{
closed = 1;
nodes = (
(162,0,ls),
(282,0,o),
(282,120,qs),
(282,210,ls),
(282,258,o),
(325,300,o),
(378,300,qs),
(468,300,l),
(468,0,l),
(612,0,l),
(612,300,l),
(702,300,ls),
(755,300,o),
(798,258,o),
(798,210,qs),
(798,120,ls),
(798,0,o),
(918,0,qs),
(1024,0,l),
(1024,120,l),
(976,120,ls),
(940,120,o),
(940,160,qs),
(940,240,ls),
(940,294,o),
(886,359,o),
(835,367,q),
(884,374,o),
(936,432,o),
(936,480,qs),
(936,560,ls),
(936,600,o),
(972,600,qs),
(1020,600,l),
(1020,720,l),
(916,720,ls),
(794,720,o),
(794,590,qs),
(794,501,ls),
(794,463,o),
(752,428,o),
(708,428,qs),
(612,428,l),
(612,720,l),
(468,720,l),
(468,428,l),
(372,428,ls),
(328,428,o),
(286,463,o),
(286,501,qs),
(286,590,ls),
(286,720,o),
(164,720,qs),
(60,720,l),
(60,600,l),
(104,600,ls),
(144,600,o),
(144,560,qs),
(144,480,ls),
(144,432,o),
(196,374,o),
(245,367,q),
(194,359,o),
(140,294,o),
(140,240,qs),
(140,160,ls),
(140,120,o),
(100,120,qs),
(56,120,l),
(56,0,l)
);
}
);
width = 1080;
},
{
anchors = (
{
name = bottom;
pos = (540,0);
},
{
name = top;
pos = (540,720);
}
);
layerId = m003;
shapes = (
{
closed = 1;
nodes = (
(162,0,ls),
(282,0,o),
(282,120,qs),
(282,210,ls),
(282,258,o),
(325,300,o),
(378,300,qs),
(468,300,l),
(468,0,l),
(612,0,l),
(612,300,l),
(702,300,ls),
(755,300,o),
(798,258,o),
(798,210,qs),
(798,120,ls),
(798,0,o),
(918,0,qs),
(1024,0,l),
(1024,120,l),
(976,120,ls),
(940,120,o),
(940,160,qs),
(940,240,ls),
(940,294,o),
(886,359,o),
(835,367,q),
(884,374,o),
(936,432,o),
(936,480,qs),
(936,560,ls),
(936,600,o),
(972,600,qs),
(1020,600,l),
(1020,720,l),
(916,720,ls),
(794,720,o),
(794,590,qs),
(794,501,ls),
(794,463,o),
(752,428,o),
(708,428,qs),
(612,428,l),
(612,720,l),
(468,720,l),
(468,428,l),
(372,428,ls),
(328,428,o),
(286,463,o),
(286,501,qs),
(286,590,ls),
(286,720,o),
(164,720,qs),
(60,720,l),
(60,600,l),
(104,600,ls),
(144,600,o),
(144,560,qs),
(144,480,ls),
(144,432,o),
(196,374,o),
(245,367,q),
(194,359,o),
(140,294,o),
(140,240,qs),
(140,160,ls),
(140,120,o),
(100,120,qs),
(56,120,l),
(56,0,l)
);
}
);
width = 1080;
}
);
},
{
glyphname = "Ze-cy";
kernLeft = "Ze-cy";
kernRight = "Ze-cy";
lastChange = "2025-05-22 16:47:10 +0000";
layers = (
{
anchors = (
{
name = bottom;
pos = (312,0);
},
{
name = top;
pos = (312,720);
}
);
layerId = m01;
shapes = (
{
closed = 1;
nodes = (
(382,-12,o),
(486,33,o),
(546,124,o),
(546,190,qs),
(546,246,o),
(496,326,o),
(418,366,o),
(382,370,q),
(412,374,o),
(488,420,o),
(530,498,o),
(530,542,qs),
(530,604,o),
(470,689,o),
(374,732,o),
(310,732,qs),
(242,732,o),
(139,693,o),
(68,604,o),
(68,550,q),
(88,550,l),
(88,598,o),
(151,677,o),
(248,712,o),
(310,712,qs),
(368,712,o),
(454,675,o),
(510,598,o),
(510,542,qs),
(510,500,o),
(466,424,o),
(366,380,o),
(306,380,qs),
(224,380,l),
(224,360,l),
(306,360,ls),
(366,360,o),
(472,320,o),
(526,244,o),
(526,190,qs),
(526,130,o),
(472,49,o),
(376,8,o),
(314,8,qs),
(244,8,o),
(145,45,o),
(84,122,o),
(84,170,q),
(64,170,l),
(64,116,o),
(131,29,o),
(238,-12,o),
(314,-12,qs)
);
}
);
width = 620;
},
{
anchors = (
{
name = bottom;
pos = (307,0);
},
{
name = top;
pos = (307,720);
}
);
layerId = "CCD41F9B-A064-4484-B59C-AEE566599C6A";
shapes = (
{
closed = 1;
nodes = (
(398,-12,o),
(516,42,o),
(580,138,o),
(580,200,qs),
(580,244,o),
(546,320,o),
(476,367,o),
(428,377,q),
(472,383,o),
(540,429,o),
(569,494,o),
(569,534,qs),
(569,582,o),
(513,676,o),
(391,732,o),
(313,732,qs),
(219,732,o),
(97,674,o),
(30,574,o),
(30,510,q),
(176,510,l),
(176,538,o),
(206,588,o),
(265,614,o),
(309,614,qs),
(339,614,o),
(387,594,o),
(419,552,o),
(419,522,qs),
(419,492,o),
(389,450,o),
(330,428,o),
(288,428,qs),
(211,428,l),
(211,304,l),
(290,304,ls),
(338,304,o),
(398,284,o),
(430,238,o),
(430,208,qs),
(430,178,o),
(406,134,o),
(354,106,o),
(314,106,qs),
(274,106,o),
(213,128,o),
(176,178,o),
(176,210,q),
(30,210,l),
(30,146,o),
(98,46,o),
(221,-12,o),
(317,-12,qs)
);
}
);
width = 620;
},
{
anchors = (
{
name = bottom;
pos = (307,0);
},
{
name = top;
pos = (307,720);
}
);
layerId = m003;
shapes = (
{
closed = 1;
nodes = (
(398,-12,o),
(516,42,o),
(580,138,o),
(580,200,qs),
(580,244,o),
(546,320,o),
(476,367,o),
(428,377,q),
(472,383,o),
(540,429,o),
(569,494,o),
(569,534,qs),
(569,582,o),
(513,676,o),
(391,732,o),
(313,732,qs),
(219,732,o),
(97,674,o),
(30,574,o),
(30,510,q),
(176,510,l),
(176,538,o),
(206,588,o),
(265,614,o),
(309,614,qs),
(339,614,o),
(387,594,o),
(419,552,o),
(419,522,qs),
(419,492,o),
(389,450,o),
(330,428,o),
(288,428,qs),
(211,428,l),
(211,304,l),
(290,304,ls),
(338,304,o),
(398,284,o),
(430,238,o),
(430,208,qs),
(430,178,o),
(406,134,o),
(354,106,o),
(314,106,qs),
(274,106,o),
(213,128,o),
(176,178,o),
(176,210,q),
(30,210,l),
(30,146,o),
(98,46,o),
(221,-12,o),
(317,-12,qs)
);
}
);
width = 620;
}
);
metricRight = B;
unicode = 1047;
},
{
glyphname = "Ka-cy";
kernLeft = "Be-cy";
kernRight = "Zhe-cy";
lastChange = "2025-08-13 16:19:19 +0000";
layers = (
{
anchors = (
{
name = top;
pos = (320,720);
}
);
layerId = m01;
shapes = (
{
closed = 1;
nodes = (
(124,0,l),
(124,360,l),
(368,360,l),
(368,380,l),
(124,380,l),
(124,720,l),
(104,720,l),
(104,0,l)
);
},
{
closed = 1;
nodes = (
(626,0,l),
(378,370,l),
(352,370,l),
(600,0,l)
);
},
{
closed = 1;
nodes = (
(378,366,l),
(626,720,l),
(600,720,l),
(352,366,l)
);
}
);
width = 680;
},
{
anchors = (
{
name = top;
pos = (317,720);
}
);
layerId = "CCD41F9B-A064-4484-B59C-AEE566599C6A";
shapes = (
{
closed = 1;
nodes = (
(204,0,l),
(204,300,l),
(390,300,l),
(390,428,l),
(204,428,l),
(204,720,l),
(58,720,l),
(58,0,l)
);
},
{
closed = 1;
nodes = (
(660,0,l),
(442,372,l),
(272,372,l),
(488,0,l)
);
},
{
closed = 1;
nodes = (
(432,348,l),
(650,720,l),
(496,720,l),
(280,348,l)
);
}
);
width = 680;
},
{
anchors = (
{
name = top;
pos = (317,720);
}
);
layerId = m003;
shapes = (
{
closed = 1;
nodes = (
(204,0,l),
(204,300,l),
(390,300,l),
(390,428,l),
(204,428,l),
(204,720,l),
(58,720,l),
(58,0,l)
);
},
{
closed = 1;
nodes = (
(660,0,l),
(442,372,l),
(272,372,l),
(488,0,l)
);
},
{
closed = 1;
nodes = (
(432,348,l),
(650,720,l),
(496,720,l),
(280,348,l)
);
}
);
width = 680;
}
);
metricLeft = N;
unicode = 1050;
},
{
color = 9;
glyphname = "Ka-cy.ss01";
kernLeft = "Be-cy";
kernRight = "Zhe-cy";
lastChange = "2025-05-22 16:47:10 +0000";
layers = (
{
anchors = (
{
name = top;
pos = (320,720);
}
);
layerId = m01;
shapes = (
{
closed = 1;
nodes = (
(124,0,l),
(124,360,l),
(340,360,ls),
(430,360,o),
(496,299,o),
(496,220,qs),
(496,90,ls),
(496,0,o),
(580,0,qs),
(616,0,l),
(616,20,l),
(580,20,ls),
(516,20,o),
(516,90,qs),
(516,220,ls),
(516,289,o),
(469,358,o),
(414,370,q),
(463,380,o),
(510,452,o),
(510,520,qs),
(510,636,ls),
(510,700,o),
(570,700,qs),
(610,700,l),
(610,720,l),
(570,720,ls),
(490,720,o),
(490,637,qs),
(490,520,ls),
(490,443,o),
(423,380,o),
(340,380,qs),
(124,380,l),
(124,720,l),
(104,720,l),
(104,0,l)
);
}
);
width = 700;
},
{
anchors = (
{
name = top;
pos = (317,720);
}
);
layerId = "CCD41F9B-A064-4484-B59C-AEE566599C6A";
shapes = (
{
closed = 1;
nodes = (
(204,0,l),
(204,300,l),
(322,300,ls),
(375,300,o),
(418,258,o),
(418,210,qs),
(418,120,ls),
(418,0,o),
(538,0,qs),
(644,0,l),
(644,120,l),
(600,120,ls),
(564,120,o),
(564,160,qs),
(564,240,ls),
(564,294,o),
(508,359,o),
(455,367,q),
(505,374,o),
(560,432,o),
(560,480,qs),
(560,560,ls),
(560,600,o),
(596,600,qs),
(640,600,l),
(640,720,l),
(536,720,ls),
(414,720,o),
(414,590,qs),
(414,501,ls),
(414,463,o),
(372,428,o),
(328,428,qs),
(204,428,l),
(204,720,l),
(58,720,l),
(58,0,l)
);
}
);
width = 700;
},
{
anchors = (
{
name = top;
pos = (317,720);
}
);
layerId = m003;
shapes = (
{
closed = 1;
nodes = (
(204,0,l),
(204,300,l),
(322,300,ls),
(375,300,o),
(418,258,o),
(418,210,qs),
(418,120,ls),
(418,0,o),
(538,0,qs),
(644,0,l),
(644,120,l),
(600,120,ls),
(564,120,o),
(564,160,qs),
(564,240,ls),
(564,294,o),
(508,359,o),
(455,367,q),
(505,374,o),
(560,432,o),
(560,480,qs),
(560,560,ls),
(560,600,o),
(596,600,qs),
(640,600,l),
(640,720,l),
(536,720,ls),
(414,720,o),
(414,590,qs),
(414,501,ls),
(414,463,o),
(372,428,o),
(328,428,qs),
(204,428,l),
(204,720,l),
(58,720,l),
(58,0,l)
);
}
);
width = 700;
}
);
metricLeft = N;
},
{
glyphname = "El-cy";
kernLeft = "El-cy";
lastChange = "2025-08-10 11:53:51 +0000";
layers = (
{
layerId = m01;
shapes = (
{
closed = 1;
nodes = (
(88,0,o),
(155,24,o),
(201,96,o),
(223,261,o),
(223,489,qs),
(223,700,l),
(556,700,l),
(556,0,l),
(576,0,l),
(576,720,l),
(203,720,l),
(203,491,ls),
(203,264,o),
(182,106,o),
(142,41,o),
(84,20,o),
(40,20,q),
(40,0,l)
);
}
);
width = 680;
},
{
layerId = "CCD41F9B-A064-4484-B59C-AEE566599C6A";
shapes = (
{
closed = 1;
nodes = (
(90,0,o),
(186,20,o),
(258,100,o),
(280,258,o),
(280,452,qs),
(280,590,l),
(472,590,l),
(472,0,l),
(622,0,l),
(622,720,l),
(142,720,l),
(142,468,ls),
(142,285,o),
(127,197,o),
(98,152,o),
(58,134,o),
(20,134,q),
(20,0,l)
);
}
);
width = 680;
},
{
layerId = m003;
shapes = (
{
closed = 1;
nodes = (
(90,0,o),
(186,20,o),
(258,100,o),
(280,258,o),
(280,452,qs),
(280,590,l),
(472,590,l),
(472,0,l),
(622,0,l),
(622,720,l),
(142,720,l),
(142,468,ls),
(142,285,o),
(127,197,o),
(98,152,o),
(58,134,o),
(20,134,q),
(20,0,l)
);
}
);
width = 680;
}
);
metricRight = N;
unicode = 1051;
},
{
glyphname = "Pe-cy";
kernLeft = "Be-cy";
lastChange = "2025-05-22 16:47:10 +0000";
layers = (
{
layerId = m01;
shapes = (
{
closed = 1;
nodes = (
(124,0,l),
(124,700,l),
(556,700,l),
(556,0,l),
(576,0,l),
(576,720,l),
(104,720,l),
(104,0,l)
);
}
);
width = 680;
},
{
layerId = "CCD41F9B-A064-4484-B59C-AEE566599C6A";
shapes = (
{
closed = 1;
nodes = (
(208,0,l),
(208,590,l),
(472,590,l),
(472,0,l),
(622,0,l),
(622,720,l),
(58,720,l),
(58,0,l)
);
}
);
width = 680;
},
{
layerId = m003;
shapes = (
{
closed = 1;
nodes = (
(208,0,l),
(208,590,l),
(472,590,l),
(472,0,l),
(622,0,l),
(622,720,l),
(58,720,l),
(58,0,l)
);
}
);
width = 680;
}
);
metricLeft = N;
metricRight = N;
unicode = 1055;
},
{
glyphname = "U-cy";
kernLeft = "U-cy";
kernRight = "U-cy";
lastChange = "2025-05-22 16:47:10 +0000";
layers = (
{
anchors = (
{
name = top;
pos = (324,720);
}
);
layerId = m01;
shapes = (
{
closed = 1;
nodes = (
(176,0,ls),
(229,0,o),
(293,41,o),
(328,102,o),
(354,162,qs),
(600,720,l),
(578,720,l),
(348,196,l),
(82,720,l),
(60,720,l),
(337,174,l),
(311,114,o),
(279,58,o),
(222,20,o),
(176,20,qs),
(124,20,l),
(124,0,l)
);
}
);
width = 660;
},
{
anchors = (
{
name = top;
pos = (334,720);
}
);
layerId = "CCD41F9B-A064-4484-B59C-AEE566599C6A";
shapes = (
{
closed = 1;
nodes = (
(216,0,ls),
(264,0,o),
(332,26,o),
(390,94,o),
(415,156,qs),
(644,720,l),
(498,720,l),
(342,328,l),
(176,720,l),
(16,720,l),
(258,180,l),
(252,166,o),
(238,144,o),
(214,130,o),
(190,130,qs),
(95,130,l),
(95,0,l)
);
}
);
width = 660;
},
{
anchors = (
{
name = top;
pos = (334,720);
}
);
layerId = m003;
shapes = (
{
closed = 1;
nodes = (
(216,0,ls),
(264,0,o),
(332,26,o),
(390,94,o),
(415,156,qs),
(644,720,l),
(498,720,l),
(342,328,l),
(176,720,l),
(16,720,l),
(258,180,l),
(252,166,o),
(238,144,o),
(214,130,o),
(190,130,qs),
(95,130,l),
(95,0,l)
);
}
);
width = 660;
}
);
unicode = 1059;
},
{
color = 7;
glyphname = "U-cy.ss02";
kernLeft = "U-cy";
kernRight = "U-cy";
lastChange = "2025-05-22 16:47:10 +0000";
layers = (
{
anchors = (
{
name = top;
pos = (324,720);
}
);
layerId = m01;
shapes = (
{
closed = 1;
nodes = (
(284,0,l),
(600,720,l),
(578,720,l),
(348,196,l),
(82,720,l),
(60,720,l),
(337,174,l),
(262,0,l)
);
}
);
width = 660;
},
{
anchors = (
{
name = top;
pos = (334,720);
}
);
layerId = "CCD41F9B-A064-4484-B59C-AEE566599C6A";
shapes = (
{
closed = 1;
nodes = (
(348,0,l),
(644,720,l),
(498,720,l),
(342,328,l),
(176,720,l),
(16,720,l),
(258,180,l),
(190,0,l)
);
}
);
width = 660;
},
{
anchors = (
{
name = top;
pos = (334,720);
}
);
layerId = m003;
shapes = (
{
closed = 1;
nodes = (
(348,0,l),
(644,720,l),
(498,720,l),
(342,328,l),
(176,720,l),
(16,720,l),
(258,180,l),
(190,0,l)
);
}
);
width = 660;
}
);
},
{
glyphname = "Ef-cy";
kernLeft = "Ef-cy";
kernRight = "Ef-cy";
lastChange = "2025-08-13 12:45:56 +0000";
layers = (
{
layerId = m01;
shapes = (
{
closed = 1;
nodes = (
(480,-12,l),
(480,90,l),
(628,90,ls),
(718,90,o),
(832,146,o),
(888,260,o),
(888,350,qs),
(888,390,ls),
(888,480,o),
(832,594,o),
(718,650,o),
(628,650,qs),
(480,650,l),
(480,732,l),
(460,732,l),
(460,650,l),
(312,650,ls),
(222,650,o),
(108,594,o),
(52,480,o),
(52,390,qs),
(52,350,ls),
(52,260,o),
(108,146,o),
(222,90,o),
(312,90,qs),
(460,90,l),
(460,-12,l)
);
},
{
closed = 1;
nodes = (
(228,110,o),
(122,160,o),
(72,266,o),
(72,350,qs),
(72,390,ls),
(72,474,o),
(122,580,o),
(228,630,o),
(312,630,qs),
(460,630,l),
(460,110,l),
(312,110,ls)
);
},
{
closed = 1;
nodes = (
(480,630,l),
(628,630,ls),
(712,630,o),
(818,580,o),
(868,474,o),
(868,390,qs),
(868,350,ls),
(868,266,o),
(818,160,o),
(712,110,o),
(628,110,qs),
(480,110,l)
);
}
);
width = 940;
},
{
layerId = "CCD41F9B-A064-4484-B59C-AEE566599C6A";
shapes = (
{
closed = 1;
nodes = (
(524,0,l),
(524,112,l),
(602,112,ls),
(670,112,o),
(794,170,o),
(870,294,o),
(870,382,qs),
(870,390,ls),
(870,478,o),
(794,602,o),
(670,660,o),
(602,660,qs),
(524,660,l),
(524,760,l),
(376,760,l),
(376,660,l),
(298,660,ls),
(230,660,o),
(106,602,o),
(30,478,o),
(30,390,qs),
(30,382,ls),
(30,294,o),
(106,170,o),
(230,112,o),
(298,112,qs),
(376,112,l),
(376,0,l)
);
},
{
closed = 1;
nodes = (
(262,232,o),
(204,266,o),
(176,326,o),
(176,372,qs),
(176,400,ls),
(176,446,o),
(204,506,o),
(262,540,o),
(308,540,qs),
(376,540,l),
(376,232,l),
(308,232,ls)
);
},
{
closed = 1;
nodes = (
(524,540,l),
(592,540,ls),
(638,540,o),
(696,506,o),
(724,446,o),
(724,400,qs),
(724,372,ls),
(724,326,o),
(696,266,o),
(638,232,o),
(592,232,qs),
(524,232,l)
);
}
);
width = 900;
},
{
layerId = m003;
shapes = (
{
closed = 1;
nodes = (
(524,0,l),
(524,112,l),
(602,112,ls),
(670,112,o),
(794,170,o),
(870,294,o),
(870,382,qs),
(870,390,ls),
(870,478,o),
(794,602,o),
(670,660,o),
(602,660,qs),
(524,660,l),
(524,760,l),
(376,760,l),
(376,660,l),
(298,660,ls),
(230,660,o),
(106,602,o),
(30,478,o),
(30,390,qs),
(30,382,ls),
(30,294,o),
(106,170,o),
(230,112,o),
(298,112,qs),
(376,112,l),
(376,0,l)
);
},
{
closed = 1;
nodes = (
(262,232,o),
(204,266,o),
(176,326,o),
(176,372,qs),
(176,400,ls),
(176,446,o),
(204,506,o),
(262,540,o),
(308,540,qs),
(376,540,l),
(376,232,l),
(308,232,ls)
);
},
{
closed = 1;
nodes = (
(524,540,l),
(592,540,ls),
(638,540,o),
(696,506,o),
(724,446,o),
(724,400,qs),
(724,372,ls),
(724,326,o),
(696,266,o),
(638,232,o),
(592,232,qs),
(524,232,l)
);
}
);
width = 900;
}
);
unicode = 1060;
},
{
color = 5;
glyphname = "Ef-cy.loclBGR";
kernLeft = "Ef-cy";
kernRight = "Ef-cy";
lastChange = "2025-05-22 16:47:10 +0000";
layers = (
{
layerId = m01;
shapes = (
{
closed = 1;
nodes = (
(460,-80,l),
(460,0,l),
(568,1,o),
(734,84,o),
(828,245,o),
(828,360,qs),
(828,471,o),
(738,633,o),
(572,719,o),
(460,720,q),
(460,800,l),
(440,800,l),
(440,720,l),
(332,719,o),
(166,636,o),
(72,475,o),
(72,360,qs),
(72,243,o),
(169,82,o),
(335,1,o),
(440,0,q),
(440,-80,l)
);
},
{
closed = 1;
nodes = (
(334,21,o),
(177,104,o),
(92,257,o),
(92,360,qs),
(92,465,o),
(179,618,o),
(337,699,o),
(440,700,q),
(440,20,l)
);
},
{
closed = 1;
nodes = (
(460,700,l),
(566,699,o),
(723,616,o),
(808,463,o),
(808,360,qs),
(808,254,o),
(719,101,o),
(562,21,o),
(460,20,q)
);
}
);
width = 900;
},
{
layerId = "CCD41F9B-A064-4484-B59C-AEE566599C6A";
shapes = (
{
closed = 1;
nodes = (
(525,-80,l),
(525,0,l),
(626,3,o),
(779,96,o),
(860,240,o),
(860,360,qs),
(860,480,o),
(779,624,o),
(628,717,o),
(525,720,q),
(525,800,l),
(375,800,l),
(375,720,l),
(274,717,o),
(121,624,o),
(40,480,o),
(40,360,qs),
(40,240,o),
(121,96,o),
(274,3,o),
(375,0,q),
(375,-80,l)
);
},
{
closed = 1;
nodes = (
(311,128,o),
(229,194,o),
(194,288,o),
(194,360,qs),
(194,432,o),
(229,526,o),
(311,592,o),
(375,592,q),
(375,128,l)
);
},
{
closed = 1;
nodes = (
(525,592,l),
(589,592,o),
(671,526,o),
(706,432,o),
(706,360,qs),
(706,288,o),
(671,194,o),
(589,128,o),
(525,128,q)
);
}
);
width = 900;
},
{
layerId = m003;
shapes = (
{
closed = 1;
nodes = (
(525,-80,l),
(525,0,l),
(626,3,o),
(779,96,o),
(860,240,o),
(860,360,qs),
(860,480,o),
(779,624,o),
(628,717,o),
(525,720,q),
(525,800,l),
(375,800,l),
(375,720,l),
(274,717,o),
(121,624,o),
(40,480,o),
(40,360,qs),
(40,240,o),
(121,96,o),
(274,3,o),
(375,0,q),
(375,-80,l)
);
},
{
closed = 1;
nodes = (
(311,128,o),
(229,194,o),
(194,288,o),
(194,360,qs),
(194,432,o),
(229,526,o),
(311,592,o),
(375,592,q),
(375,128,l)
);
},
{
closed = 1;
nodes = (
(525,592,l),
(589,592,o),
(671,526,o),
(706,432,o),
(706,360,qs),
(706,288,o),
(671,194,o),
(589,128,o),
(525,128,q)
);
}
);
width = 900;
}
);
metricLeft = O;
metricRight = O;
},
{
glyphname = "Tse-cy";
kernLeft = "Be-cy";
kernRight = "De-cy";
lastChange = "2025-08-10 07:03:37 +0000";
layers = (
{
layerId = m01;
shapes = (
{
closed = 1;
nodes = (
(686,-160,l),
(686,20,l),
(576,20,l),
(576,720,l),
(556,720,l),
(556,20,l),
(124,20,l),
(124,720,l),
(104,720,l),
(104,0,l),
(666,0,l),
(666,-160,l)
);
}
);
width = 740;
},
{
layerId = "CCD41F9B-A064-4484-B59C-AEE566599C6A";
shapes = (
{
closed = 1;
nodes = (
(716,-160,l),
(716,130,l),
(620,130,l),
(620,720,l),
(470,720,l),
(470,130,l),
(208,130,l),
(208,720,l),
(58,720,l),
(58,0,l),
(582,0,l),
(582,-160,l)
);
}
);
width = 740;
},
{
layerId = m003;
shapes = (
{
closed = 1;
nodes = (
(716,-160,l),
(716,130,l),
(620,130,l),
(620,720,l),
(470,720,l),
(470,130,l),
(208,130,l),
(208,720,l),
(58,720,l),
(58,0,l),
(582,0,l),
(582,-160,l)
);
}
);
width = 740;
}
);
metricLeft = N;
metricRight = "De-cy";
unicode = 1062;
},
{
glyphname = "Che-cy";
kernLeft = "Che-cy";
lastChange = "2025-05-22 16:47:10 +0000";
layers = (
{
anchors = (
{
name = top;
pos = (312,720);
}
);
layerId = m01;
shapes = (
{
closed = 1;
nodes = (
(536,0,l),
(536,720,l),
(516,720,l),
(516,324,l),
(456,306,o),
(357,290,o),
(300,290,qs),
(194,290,o),
(90,390,o),
(90,500,qs),
(90,720,l),
(70,720,l),
(70,500,ls),
(70,382,o),
(188,270,o),
(300,270,qs),
(356,270,o),
(455,285,o),
(516,302,q),
(516,0,l)
);
}
);
width = 640;
},
{
anchors = (
{
name = top;
pos = (322,720);
}
);
layerId = "CCD41F9B-A064-4484-B59C-AEE566599C6A";
shapes = (
{
closed = 1;
nodes = (
(582,0,l),
(582,720,l),
(432,720,l),
(432,378,l),
(397,366,o),
(340,359,o),
(309,359,qs),
(250,359,o),
(190,419,o),
(190,475,qs),
(190,720,l),
(40,720,l),
(40,450,ls),
(40,342,o),
(169,226,o),
(291,226,qs),
(337,226,o),
(396,236,o),
(432,248,q),
(432,0,l)
);
}
);
width = 640;
},
{
anchors = (
{
name = top;
pos = (322,720);
}
);
layerId = m003;
shapes = (
{
closed = 1;
nodes = (
(582,0,l),
(582,720,l),
(432,720,l),
(432,378,l),
(397,366,o),
(340,359,o),
(309,359,qs),
(250,359,o),
(190,419,o),
(190,475,qs),
(190,720,l),
(40,720,l),
(40,450,ls),
(40,342,o),
(169,226,o),
(291,226,qs),
(337,226,o),
(396,236,o),
(432,248,q),
(432,0,l)
);
}
);
width = 640;
}
);
metricRight = N;
unicode = 1063;
},
{
glyphname = "Sha-cy";
kernLeft = "Be-cy";
lastChange = "2025-05-22 16:47:10 +0000";
layers = (
{
layerId = m01;
shapes = (
{
closed = 1;
nodes = (
(876,0,l),
(876,720,l),
(856,720,l),
(856,20,l),
(500,20,l),
(500,720,l),
(480,720,l),
(480,20,l),
(124,20,l),
(124,720,l),
(104,720,l),
(104,0,l)
);
}
);
width = 980;
},
{
layerId = "CCD41F9B-A064-4484-B59C-AEE566599C6A";
shapes = (
{
closed = 1;
nodes = (
(922,0,l),
(922,720,l),
(772,720,l),
(772,130,l),
(565,130,l),
(565,720,l),
(415,720,l),
(415,130,l),
(208,130,l),
(208,720,l),
(58,720,l),
(58,0,l)
);
}
);
width = 980;
},
{
layerId = m003;
shapes = (
{
closed = 1;
nodes = (
(922,0,l),
(922,720,l),
(772,720,l),
(772,130,l),
(565,130,l),
(565,720,l),
(415,720,l),
(415,130,l),
(208,130,l),
(208,720,l),
(58,720,l),
(58,0,l)
);
}
);
width = 980;
}
);
metricLeft = N;
metricRight = N;
unicode = 1064;
},
{
glyphname = "Shcha-cy";
kernLeft = "Be-cy";
kernRight = "De-cy";
lastChange = "2025-05-22 16:47:10 +0000";
layers = (
{
layerId = m01;
shapes = (
{
closed = 1;
nodes = (
(982,-160,l),
(982,20,l),
(872,20,l),
(872,720,l),
(852,720,l),
(852,20,l),
(498,20,l),
(498,720,l),
(478,720,l),
(478,20,l),
(124,20,l),
(124,720,l),
(104,720,l),
(104,0,l),
(962,0,l),
(962,-160,l)
);
}
);
width = 1036;
},
{
layerId = "CCD41F9B-A064-4484-B59C-AEE566599C6A";
shapes = (
{
closed = 1;
nodes = (
(1012,-160,l),
(1012,130,l),
(916,130,l),
(916,720,l),
(766,720,l),
(766,130,l),
(562,130,l),
(562,720,l),
(412,720,l),
(412,130,l),
(208,130,l),
(208,720,l),
(58,720,l),
(58,0,l),
(878,0,l),
(878,-160,l)
);
}
);
width = 1036;
},
{
layerId = m003;
shapes = (
{
closed = 1;
nodes = (
(1012,-160,l),
(1012,130,l),
(916,130,l),
(916,720,l),
(766,720,l),
(766,130,l),
(562,130,l),
(562,720,l),
(412,720,l),
(412,130,l),
(208,130,l),
(208,720,l),
(58,720,l),
(58,0,l),
(878,0,l),
(878,-160,l)
);
}
);
width = 1036;
}
);
metricLeft = N;
metricRight = "De-cy";
unicode = 1065;
},
{
glyphname = "Dzhe-cy";
kernLeft = "Be-cy";
lastChange = "2025-05-22 16:47:10 +0000";
layers = (
{
layerId = m01;
shapes = (
{
closed = 1;
nodes = (
(350,-160,l),
(350,0,l),
(576,0,l),
(576,720,l),
(556,720,l),
(556,20,l),
(124,20,l),
(124,720,l),
(104,720,l),
(104,0,l),
(330,0,l),
(330,-160,l)
);
}
);
width = 680;
},
{
layerId = "CCD41F9B-A064-4484-B59C-AEE566599C6A";
shapes = (
{
closed = 1;
nodes = (
(407,-160,l),
(407,0,l),
(622,0,l),
(622,720,l),
(472,720,l),
(472,130,l),
(208,130,l),
(208,720,l),
(58,720,l),
(58,0,l),
(273,0,l),
(273,-160,l)
);
}
);
width = 680;
},
{
layerId = m003;
shapes = (
{
closed = 1;
nodes = (
(407,-160,l),
(407,0,l),
(622,0,l),
(622,720,l),
(472,720,l),
(472,130,l),
(208,130,l),
(208,720,l),
(58,720,l),
(58,0,l),
(273,0,l),
(273,-160,l)
);
}
);
width = 680;
}
);
metricLeft = N;
metricRight = N;
unicode = 1039;
},
{
glyphname = "Yeru-cy";
kernLeft = "Be-cy";
lastChange = "2025-05-22 16:47:10 +0000";
layers = (
{
anchors = (
{
name = bottom;
pos = (402,0);
},
{
name = top;
pos = (422,720);
}
);
layerId = m01;
shapes = (
{
closed = 1;
nodes = (
(302,0,ls),
(378,0,o),
(484,50,o),
(546,146,o),
(546,212,qs),
(546,278,o),
(484,374,o),
(378,424,o),
(302,424,qs),
(124,424,l),
(124,720,l),
(104,720,l),
(104,0,l)
);
},
{
closed = 1;
nodes = (
(124,404,l),
(300,404,ls),
(370,404,o),
(468,360,o),
(526,272,o),
(526,212,qs),
(526,152,o),
(468,64,o),
(370,20,o),
(300,20,qs),
(124,20,l)
);
},
{
alignment = -1;
pos = (591,0);
ref = I;
}
);
width = 840;
},
{
anchors = (
{
name = bottom;
pos = (396,0);
},
{
name = top;
pos = (416,720);
}
);
layerId = "CCD41F9B-A064-4484-B59C-AEE566599C6A";
shapes = (
{
closed = 1;
nodes = (
(306,0,ls),
(386,0,o),
(494,45,o),
(570,152,o),
(570,228,qs),
(570,304,o),
(494,410,o),
(386,456,o),
(306,456,qs),
(208,456,l),
(208,720,l),
(58,720,l),
(58,0,l)
);
},
{
closed = 1;
nodes = (
(208,332,l),
(290,332,ls),
(338,332,o),
(392,306,o),
(420,260,o),
(420,228,qs),
(420,196,o),
(392,150,o),
(338,124,o),
(290,124,qs),
(208,124,l)
);
},
{
alignment = -1;
pos = (572,0);
ref = I;
}
);
width = 840;
},
{
anchors = (
{
name = bottom;
pos = (396,0);
},
{
name = top;
pos = (416,720);
}
);
layerId = m003;
shapes = (
{
closed = 1;
nodes = (
(306,0,ls),
(386,0,o),
(494,45,o),
(570,152,o),
(570,228,qs),
(570,304,o),
(494,410,o),
(386,456,o),
(306,456,qs),
(208,456,l),
(208,720,l),
(58,720,l),
(58,0,l)
);
},
{
closed = 1;
nodes = (
(208,332,l),
(290,332,ls),
(338,332,o),
(392,306,o),
(420,260,o),
(420,228,qs),
(420,196,o),
(392,150,o),
(338,124,o),
(290,124,qs),
(208,124,l)
);
},
{
alignment = -1;
pos = (572,0);
ref = I;
}
);
width = 840;
}
);
metricLeft = N;
metricRight = N;
unicode = 1067;
},
{
glyphname = "Hardsign-cy";
kernLeft = "Te-cy";
kernRight = "Hardsign-cy";
lastChange = "2025-05-22 16:47:10 +0000";
layers = (
{
layerId = m01;
shapes = (
{
closed = 1;
nodes = (
(218,700,l),
(218,720,l),
(48,720,l),
(48,700,l)
);
},
{
pos = (100,0);
ref = "Softsign-cy";
}
);
width = 700;
},
{
layerId = "CCD41F9B-A064-4484-B59C-AEE566599C6A";
shapes = (
{
closed = 1;
nodes = (
(185,590,l),
(185,720,l),
(20,720,l),
(20,590,l)
);
},
{
pos = (100,0);
ref = "Softsign-cy";
}
);
width = 700;
},
{
layerId = m003;
shapes = (
{
closed = 1;
nodes = (
(185,590,l),
(185,720,l),
(20,720,l),
(20,590,l)
);
},
{
pos = (100,0);
ref = "Softsign-cy";
}
);
width = 700;
}
);
metricRight = "Softsign-cy";
unicode = 1066;
},
{
glyphname = "Lje-cy";
kernLeft = "El-cy";
kernRight = "Hardsign-cy";
lastChange = "2025-08-10 11:54:14 +0000";
layers = (
{
layerId = m01;
shapes = (
{
closed = 1;
nodes = (
(552,404,l),
(730,404,ls),
(794,404,o),
(900,360,o),
(956,270,o),
(956,212,qs),
(956,154,o),
(900,64,o),
(794,20,o),
(730,20,qs),
(552,20,l)
);
},
{
closed = 1;
nodes = (
(203,720,l),
(203,491,ls),
(203,264,o),
(182,106,o),
(142,41,o),
(84,20,o),
(40,20,q),
(40,0,l),
(88,0,o),
(155,24,o),
(201,96,o),
(223,261,o),
(223,489,qs),
(223,700,l),
(532,700,l),
(532,0,l),
(730,0,ls),
(798,0,o),
(914,48,o),
(976,148,o),
(976,212,qs),
(976,276,o),
(914,376,o),
(798,424,o),
(730,424,qs),
(552,424,l),
(552,720,l)
);
}
);
width = 1030;
},
{
layerId = "CCD41F9B-A064-4484-B59C-AEE566599C6A";
shapes = (
{
closed = 1;
nodes = (
(616,352,l),
(714,352,ls),
(764,352,o),
(820,326,o),
(850,274,o),
(850,238,qs),
(850,202,o),
(820,150,o),
(764,124,o),
(714,124,qs),
(616,124,l)
);
},
{
closed = 1;
nodes = (
(142,720,l),
(142,468,ls),
(142,285,o),
(127,197,o),
(98,152,o),
(58,134,o),
(20,134,q),
(20,0,l),
(90,0,o),
(186,20,o),
(258,100,o),
(280,258,o),
(280,452,qs),
(280,590,l),
(466,590,l),
(466,0,l),
(736,0,ls),
(816,0,o),
(938,58,o),
(1000,166,o),
(1000,238,qs),
(1000,310,o),
(938,418,o),
(816,476,o),
(736,476,qs),
(616,476,l),
(616,720,l)
);
}
);
width = 1030;
},
{
layerId = m003;
shapes = (
{
closed = 1;
nodes = (
(616,352,l),
(714,352,ls),
(764,352,o),
(820,326,o),
(850,274,o),
(850,238,qs),
(850,202,o),
(820,150,o),
(764,124,o),
(714,124,qs),
(616,124,l)
);
},
{
closed = 1;
nodes = (
(142,720,l),
(142,468,ls),
(142,285,o),
(127,197,o),
(98,152,o),
(58,134,o),
(20,134,q),
(20,0,l),
(90,0,o),
(186,20,o),
(258,100,o),
(280,258,o),
(280,452,qs),
(280,590,l),
(466,590,l),
(466,0,l),
(736,0,ls),
(816,0,o),
(938,58,o),
(1000,166,o),
(1000,238,qs),
(1000,310,o),
(938,418,o),
(816,476,o),
(736,476,qs),
(616,476,l),
(616,720,l)
);
}
);
width = 1030;
}
);
metricLeft = "El-cy";
metricRight = "Softsign-cy";
unicode = 1033;
},
{
glyphname = "Nje-cy";
kernLeft = "Be-cy";
kernRight = "Hardsign-cy";
lastChange = "2025-08-13 16:10:54 +0000";
layers = (
{
layerId = m01;
shapes = (
{
ref = H;
},
{
closed = 1;
nodes = (
(566,360,l),
(782,360,ls),
(842,360,o),
(932,322,o),
(986,240,o),
(986,190,qs),
(986,140,o),
(932,58,o),
(842,20,o),
(782,20,qs),
(566,20,l),
(566,0,l),
(782,0,ls),
(848,0,o),
(946,42,o),
(1006,134,o),
(1006,190,qs),
(1006,246,o),
(948,336,o),
(849,380,o),
(782,380,qs),
(566,380,l)
);
}
);
width = 1060;
},
{
layerId = "CCD41F9B-A064-4484-B59C-AEE566599C6A";
shapes = (
{
ref = H;
},
{
closed = 1;
nodes = (
(542,305,l),
(752,305,ls),
(800,305,o),
(848,287,o),
(878,243,o),
(878,215,qs),
(878,187,o),
(848,146,o),
(800,126,o),
(752,126,qs),
(542,126,l),
(542,0,l),
(770,0,ls),
(850,0,o),
(966,51,o),
(1030,151,o),
(1030,215,qs),
(1030,279,o),
(966,383,o),
(850,435,o),
(770,435,qs),
(542,435,l)
);
}
);
width = 1060;
},
{
layerId = m003;
shapes = (
{
ref = H;
},
{
closed = 1;
nodes = (
(542,305,l),
(752,305,ls),
(800,305,o),
(848,287,o),
(878,243,o),
(878,215,qs),
(878,187,o),
(848,146,o),
(800,126,o),
(752,126,qs),
(542,126,l),
(542,0,l),
(770,0,ls),
(850,0,o),
(966,51,o),
(1030,151,o),
(1030,215,qs),
(1030,279,o),
(966,383,o),
(850,435,o),
(770,435,qs),
(542,435,l)
);
}
);
width = 1060;
}
);
metricLeft = N;
metricRight = "Softsign-cy";
unicode = 1034;
},
{
glyphname = "Ereversed-cy";
kernLeft = "Ereversed-cy";
kernRight = "O-cy";
lastChange = "2025-05-22 16:47:10 +0000";
layers = (
{
anchors = (
{
name = top;
pos = (316,720);
}
);
layerId = m01;
shapes = (
{
closed = 1;
nodes = (
(596,356,l),
(596,376,l),
(240,376,l),
(240,356,l)
);
},
{
pos = (680,0);
ref = C;
scale = (-1,1);
}
);
width = 680;
},
{
anchors = (
{
name = top;
pos = (321,720);
}
);
layerId = "CCD41F9B-A064-4484-B59C-AEE566599C6A";
shapes = (
{
closed = 1;
nodes = (
(537,297,l),
(537,423,l),
(228,423,l),
(228,297,l)
);
},
{
pos = (680,0);
ref = C;
scale = (-1,1);
}
);
width = 680;
},
{
anchors = (
{
name = top;
pos = (321,720);
}
);
layerId = m003;
shapes = (
{
closed = 1;
nodes = (
(537,297,l),
(537,423,l),
(228,423,l),
(228,297,l)
);
},
{
pos = (680,0);
ref = C;
scale = (-1,1);
}
);
width = 680;
}
);
metricRight = O;
unicode = 1069;
},
{
glyphname = "Tshe-cy";
kernLeft = "Te-cy";
kernRight = "Dje-cy";
lastChange = "2025-08-13 16:07:42 +0000";
layers = (
{
anchors = (
{
name = bottom;
pos = (250,0);
},
{
name = top;
pos = (250,720);
}
);
layerId = m01;
shapes = (
{
closed = 1;
nodes = (
(480,700,l),
(480,720,l),
(20,720,l),
(20,700,l)
);
},
{
alignment = -1;
angle = 180;
pos = (776,720);
ref = "Che-cy";
}
);
width = 776;
},
{
anchors = (
{
name = bottom;
pos = (269,0);
},
{
name = top;
pos = (269,720);
}
);
layerId = "CCD41F9B-A064-4484-B59C-AEE566599C6A";
shapes = (
{
closed = 1;
nodes = (
(519,592,l),
(519,720,l),
(19,720,l),
(19,592,l)
);
},
{
alignment = -1;
angle = 180;
pos = (776,720);
ref = "Che-cy";
}
);
width = 776;
},
{
anchors = (
{
name = bottom;
pos = (269,0);
},
{
name = top;
pos = (269,720);
}
);
layerId = m003;
shapes = (
{
closed = 1;
nodes = (
(519,592,l),
(519,720,l),
(19,720,l),
(19,592,l)
);
},
{
alignment = -1;
angle = 180;
pos = (776,720);
ref = "Che-cy";
}
);
width = 776;
}
);
metricRight = "Shha-cy";
unicode = 1035;
},
{
glyphname = "Yu-cy";
kernLeft = "Be-cy";
kernRight = "O-cy";
lastChange = "2025-05-22 16:47:10 +0000";
layers = (
{
anchors = (
{
name = top;
pos = (476,720);
}
);
layerId = m01;
shapes = (
{
closed = 1;
nodes = (
(124,0,l),
(124,350,l),
(318,350,l),
(318,370,l),
(124,370,l),
(124,720,l),
(104,720,l),
(104,0,l)
);
},
{
pos = (240,0);
ref = O;
}
);
width = 1000;
},
{
anchors = (
{
name = top;
pos = (497,720);
}
);
layerId = "CCD41F9B-A064-4484-B59C-AEE566599C6A";
shapes = (
{
closed = 1;
nodes = (
(204,0,l),
(204,300,l),
(354,300,l),
(354,430,l),
(204,430,l),
(204,720,l),
(58,720,l),
(58,0,l)
);
},
{
pos = (240,0);
ref = O;
}
);
width = 1000;
},
{
anchors = (
{
name = top;
pos = (497,720);
}
);
layerId = m003;
shapes = (
{
closed = 1;
nodes = (
(204,0,l),
(204,300,l),
(354,300,l),
(354,430,l),
(204,430,l),
(204,720,l),
(58,720,l),
(58,0,l)
);
},
{
pos = (240,0);
ref = O;
}
);
width = 1000;
}
);
metricLeft = N;
metricRight = O;
unicode = 1070;
},
{
glyphname = "Dje-cy";
kernLeft = "Te-cy";
kernRight = "Dje-cy";
lastChange = "2025-05-22 16:47:10 +0000";
layers = (
{
layerId = m01;
shapes = (
{
closed = 1;
nodes = (
(325,0,l),
(325,700,l),
(708,700,l),
(708,720,l),
(40,720,l),
(40,700,l),
(305,700,l),
(305,0,l)
);
},
{
alignment = -1;
pos = (304,0);
ref = "paunch-1";
}
);
width = 820;
},
{
layerId = "CCD41F9B-A064-4484-B59C-AEE566599C6A";
shapes = (
{
closed = 1;
nodes = (
(398,0,l),
(398,590,l),
(681,590,l),
(681,720,l),
(20,720,l),
(20,590,l),
(248,590,l),
(248,0,l)
);
},
{
alignment = -1;
pos = (378,0);
ref = "paunch-1";
}
);
width = 820;
},
{
layerId = m003;
shapes = (
{
closed = 1;
nodes = (
(398,0,l),
(398,590,l),
(681,590,l),
(681,720,l),
(20,720,l),
(20,590,l),
(248,590,l),
(248,0,l)
);
},
{
alignment = -1;
pos = (378,0);
ref = "paunch-1";
}
);
width = 820;
}
);
metricLeft = T;
unicode = 1026;
},
{
glyphname = "Yat-cy";
kernLeft = "Yat-cy";
kernRight = "Hardsign-cy";
lastChange = "2025-05-22 16:47:10 +0000";
layers = (
{
layerId = m01;
shapes = (
{
closed = 1;
nodes = (
(462,0,ls),
(538,0,o),
(644,50,o),
(706,146,o),
(706,212,qs),
(706,278,o),
(644,374,o),
(538,424,o),
(462,424,qs),
(284,424,l),
(284,800,l),
(264,800,l),
(264,0,l)
);
},
{
closed = 1;
nodes = (
(284,404,l),
(460,404,ls),
(530,404,o),
(628,360,o),
(686,272,o),
(686,212,qs),
(686,152,o),
(628,64,o),
(530,20,o),
(460,20,qs),
(284,20,l)
);
},
{
closed = 1;
nodes = (
(540,610,l),
(540,630,l),
(46,630,l),
(46,610,l)
);
}
);
width = 760;
},
{
layerId = "CCD41F9B-A064-4484-B59C-AEE566599C6A";
shapes = (
{
closed = 1;
nodes = (
(466,0,ls),
(546,0,o),
(654,45,o),
(730,152,o),
(730,228,qs),
(730,304,o),
(654,410,o),
(546,456,o),
(466,456,qs),
(368,456,l),
(368,800,l),
(218,800,l),
(218,0,l)
);
},
{
closed = 1;
nodes = (
(368,332,l),
(450,332,ls),
(498,332,o),
(552,306,o),
(580,260,o),
(580,228,qs),
(580,196,o),
(552,150,o),
(498,124,o),
(450,124,qs),
(368,124,l)
);
},
{
closed = 1;
nodes = (
(605,560,l),
(605,680,l),
(24,680,l),
(24,560,l)
);
}
);
width = 760;
},
{
layerId = m003;
shapes = (
{
closed = 1;
nodes = (
(466,0,ls),
(546,0,o),
(654,45,o),
(730,152,o),
(730,228,qs),
(730,304,o),
(654,410,o),
(546,456,o),
(466,456,qs),
(368,456,l),
(368,800,l),
(218,800,l),
(218,0,l)
);
},
{
closed = 1;
nodes = (
(368,332,l),
(450,332,ls),
(498,332,o),
(552,306,o),
(580,260,o),
(580,228,qs),
(580,196,o),
(552,150,o),
(498,124,o),
(450,124,qs),
(368,124,l)
);
},
{
closed = 1;
nodes = (
(605,560,l),
(605,680,l),
(24,680,l),
(24,560,l)
);
}
);
width = 760;
}
);
metricRight = "Softsign-cy";
unicode = 1122;
},
{
glyphname = "Fita-cy";
kernLeft = "O-cy";
kernRight = "O-cy";
lastChange = "2025-05-22 16:47:10 +0000";
layers = (
{
layerId = m01;
shapes = (
{
closed = 1;
nodes = (
(558,316,o),
(638,335,o),
(676,350,q),
(676,370,l),
(638,355,o),
(558,336,o),
(526,336,qs),
(491,336,o),
(429,351,o),
(339,387,o),
(275,404,o),
(234,404,qs),
(202,404,o),
(122,385,o),
(84,370,q),
(84,350,l),
(122,365,o),
(202,384,o),
(234,384,qs),
(270,384,o),
(331,369,o),
(421,333,o),
(486,316,o),
(526,316,qs)
);
},
{
ref = O;
}
);
width = 760;
},
{
layerId = "CCD41F9B-A064-4484-B59C-AEE566599C6A";
shapes = (
{
closed = 1;
nodes = (
(516,269,o),
(570,296,o),
(595,317,q),
(595,421,l),
(580,407,o),
(524,373,o),
(499,373,qs),
(474,373,o),
(433,390,o),
(372,429,o),
(319,451,o),
(283,451,qs),
(247,451,o),
(189,420,o),
(167,403,q),
(167,299,l),
(182,314,o),
(237,347,o),
(263,347,qs),
(285,347,o),
(325,330,o),
(391,291,o),
(446,269,o),
(479,269,qs)
);
},
{
ref = O;
}
);
width = 760;
},
{
layerId = m003;
shapes = (
{
closed = 1;
nodes = (
(516,269,o),
(570,296,o),
(595,317,q),
(595,421,l),
(580,407,o),
(524,373,o),
(499,373,qs),
(474,373,o),
(433,390,o),
(372,429,o),
(319,451,o),
(283,451,qs),
(247,451,o),
(189,420,o),
(167,403,q),
(167,299,l),
(182,314,o),
(237,347,o),
(263,347,qs),
(285,347,o),
(325,330,o),
(391,291,o),
(446,269,o),
(479,269,qs)
);
},
{
ref = O;
}
);
width = 760;
}
);
metricLeft = O;
metricRight = O;
unicode = 1138;
},
